%TF.GenerationSoftware,KiCad,Pcbnew,8.0.1*%
%TF.CreationDate,2024-05-16T01:37:04-04:00*%
%TF.ProjectId,opensauce2024,6f70656e-7361-4756-9365-323032342e6b,rev?*%
%TF.SameCoordinates,Original*%
%TF.FileFunction,Copper,L1,Top*%
%TF.FilePolarity,Positive*%
%FSLAX46Y46*%
G04 Gerber Fmt 4.6, Leading zero omitted, Abs format (unit mm)*
G04 Created by KiCad (PCBNEW 8.0.1) date 2024-05-16 01:37:04*
%MOMM*%
%LPD*%
G01*
G04 APERTURE LIST*
G04 Aperture macros list*
%AMRoundRect*
0 Rectangle with rounded corners*
0 $1 Rounding radius*
0 $2 $3 $4 $5 $6 $7 $8 $9 X,Y pos of 4 corners*
0 Add a 4 corners polygon primitive as box body*
4,1,4,$2,$3,$4,$5,$6,$7,$8,$9,$2,$3,0*
0 Add four circle primitives for the rounded corners*
1,1,$1+$1,$2,$3*
1,1,$1+$1,$4,$5*
1,1,$1+$1,$6,$7*
1,1,$1+$1,$8,$9*
0 Add four rect primitives between the rounded corners*
20,1,$1+$1,$2,$3,$4,$5,0*
20,1,$1+$1,$4,$5,$6,$7,0*
20,1,$1+$1,$6,$7,$8,$9,0*
20,1,$1+$1,$8,$9,$2,$3,0*%
%AMFreePoly0*
4,1,14,0.230680,0.111820,0.364320,-0.021820,0.377500,-0.053640,0.377500,-0.080000,0.364320,-0.111820,0.332500,-0.125000,-0.332500,-0.125000,-0.364320,-0.111820,-0.377500,-0.080000,-0.377500,0.080000,-0.364320,0.111820,-0.332500,0.125000,0.198860,0.125000,0.230680,0.111820,0.230680,0.111820,$1*%
%AMFreePoly1*
4,1,14,0.364320,0.111820,0.377500,0.080000,0.377500,0.053640,0.364320,0.021820,0.230680,-0.111820,0.198860,-0.125000,-0.332500,-0.125000,-0.364320,-0.111820,-0.377500,-0.080000,-0.377500,0.080000,-0.364320,0.111820,-0.332500,0.125000,0.332500,0.125000,0.364320,0.111820,0.364320,0.111820,$1*%
%AMFreePoly2*
4,1,14,0.111820,0.364320,0.125000,0.332500,0.125000,-0.332500,0.111820,-0.364320,0.080000,-0.377500,-0.080000,-0.377500,-0.111820,-0.364320,-0.125000,-0.332500,-0.125000,0.198860,-0.111820,0.230680,0.021820,0.364320,0.053640,0.377500,0.080000,0.377500,0.111820,0.364320,0.111820,0.364320,$1*%
%AMFreePoly3*
4,1,14,-0.021820,0.364320,0.111820,0.230680,0.125000,0.198860,0.125000,-0.332500,0.111820,-0.364320,0.080000,-0.377500,-0.080000,-0.377500,-0.111820,-0.364320,-0.125000,-0.332500,-0.125000,0.332500,-0.111820,0.364320,-0.080000,0.377500,-0.053640,0.377500,-0.021820,0.364320,-0.021820,0.364320,$1*%
%AMFreePoly4*
4,1,14,0.364320,0.111820,0.377500,0.080000,0.377500,-0.080000,0.364320,-0.111820,0.332500,-0.125000,-0.198860,-0.125000,-0.230680,-0.111820,-0.364320,0.021820,-0.377500,0.053640,-0.377500,0.080000,-0.364320,0.111820,-0.332500,0.125000,0.332500,0.125000,0.364320,0.111820,0.364320,0.111820,$1*%
%AMFreePoly5*
4,1,14,0.364320,0.111820,0.377500,0.080000,0.377500,-0.080000,0.364320,-0.111820,0.332500,-0.125000,-0.332500,-0.125000,-0.364320,-0.111820,-0.377500,-0.080000,-0.377500,-0.053640,-0.364320,-0.021820,-0.230680,0.111820,-0.198860,0.125000,0.332500,0.125000,0.364320,0.111820,0.364320,0.111820,$1*%
%AMFreePoly6*
4,1,14,0.111820,0.364320,0.125000,0.332500,0.125000,-0.198860,0.111820,-0.230680,-0.021820,-0.364320,-0.053640,-0.377500,-0.080000,-0.377500,-0.111820,-0.364320,-0.125000,-0.332500,-0.125000,0.332500,-0.111820,0.364320,-0.080000,0.377500,0.080000,0.377500,0.111820,0.364320,0.111820,0.364320,$1*%
%AMFreePoly7*
4,1,14,0.111820,0.364320,0.125000,0.332500,0.125000,-0.332500,0.111820,-0.364320,0.080000,-0.377500,0.053640,-0.377500,0.021820,-0.364320,-0.111820,-0.230680,-0.125000,-0.198860,-0.125000,0.332500,-0.111820,0.364320,-0.080000,0.377500,0.080000,0.377500,0.111820,0.364320,0.111820,0.364320,$1*%
G04 Aperture macros list end*
%TA.AperFunction,SMDPad,CuDef*%
%ADD10C,2.000000*%
%TD*%
%TA.AperFunction,SMDPad,CuDef*%
%ADD11RoundRect,0.137500X0.137500X-0.262500X0.137500X0.262500X-0.137500X0.262500X-0.137500X-0.262500X0*%
%TD*%
%TA.AperFunction,SMDPad,CuDef*%
%ADD12C,1.000000*%
%TD*%
%TA.AperFunction,SMDPad,CuDef*%
%ADD13R,0.350000X0.375000*%
%TD*%
%TA.AperFunction,SMDPad,CuDef*%
%ADD14R,0.375000X0.350000*%
%TD*%
%TA.AperFunction,SMDPad,CuDef*%
%ADD15RoundRect,0.218750X0.218750X0.256250X-0.218750X0.256250X-0.218750X-0.256250X0.218750X-0.256250X0*%
%TD*%
%TA.AperFunction,SMDPad,CuDef*%
%ADD16RoundRect,0.225000X-0.250000X0.225000X-0.250000X-0.225000X0.250000X-0.225000X0.250000X0.225000X0*%
%TD*%
%TA.AperFunction,SMDPad,CuDef*%
%ADD17RoundRect,0.200000X0.200000X0.275000X-0.200000X0.275000X-0.200000X-0.275000X0.200000X-0.275000X0*%
%TD*%
%TA.AperFunction,SMDPad,CuDef*%
%ADD18RoundRect,0.200000X-0.200000X-0.275000X0.200000X-0.275000X0.200000X0.275000X-0.200000X0.275000X0*%
%TD*%
%TA.AperFunction,SMDPad,CuDef*%
%ADD19R,0.280000X0.850000*%
%TD*%
%TA.AperFunction,SMDPad,CuDef*%
%ADD20R,0.850000X0.280000*%
%TD*%
%TA.AperFunction,SMDPad,CuDef*%
%ADD21R,2.100000X2.100000*%
%TD*%
%TA.AperFunction,ConnectorPad*%
%ADD22C,0.787400*%
%TD*%
%TA.AperFunction,SMDPad,CuDef*%
%ADD23RoundRect,0.240000X-1.260000X1.260000X-1.260000X-1.260000X1.260000X-1.260000X1.260000X1.260000X0*%
%TD*%
%TA.AperFunction,SMDPad,CuDef*%
%ADD24C,16.000000*%
%TD*%
%TA.AperFunction,SMDPad,CuDef*%
%ADD25FreePoly0,0.000000*%
%TD*%
%TA.AperFunction,SMDPad,CuDef*%
%ADD26RoundRect,0.062500X-0.375000X-0.062500X0.375000X-0.062500X0.375000X0.062500X-0.375000X0.062500X0*%
%TD*%
%TA.AperFunction,SMDPad,CuDef*%
%ADD27FreePoly1,0.000000*%
%TD*%
%TA.AperFunction,SMDPad,CuDef*%
%ADD28FreePoly2,0.000000*%
%TD*%
%TA.AperFunction,SMDPad,CuDef*%
%ADD29RoundRect,0.062500X-0.062500X-0.375000X0.062500X-0.375000X0.062500X0.375000X-0.062500X0.375000X0*%
%TD*%
%TA.AperFunction,SMDPad,CuDef*%
%ADD30FreePoly3,0.000000*%
%TD*%
%TA.AperFunction,SMDPad,CuDef*%
%ADD31FreePoly4,0.000000*%
%TD*%
%TA.AperFunction,SMDPad,CuDef*%
%ADD32FreePoly5,0.000000*%
%TD*%
%TA.AperFunction,SMDPad,CuDef*%
%ADD33FreePoly6,0.000000*%
%TD*%
%TA.AperFunction,SMDPad,CuDef*%
%ADD34FreePoly7,0.000000*%
%TD*%
%TA.AperFunction,SMDPad,CuDef*%
%ADD35RoundRect,0.225000X0.250000X-0.225000X0.250000X0.225000X-0.250000X0.225000X-0.250000X-0.225000X0*%
%TD*%
%TA.AperFunction,SMDPad,CuDef*%
%ADD36RoundRect,0.200000X-0.275000X0.200000X-0.275000X-0.200000X0.275000X-0.200000X0.275000X0.200000X0*%
%TD*%
%TA.AperFunction,SMDPad,CuDef*%
%ADD37R,1.000000X0.750000*%
%TD*%
%TA.AperFunction,SMDPad,CuDef*%
%ADD38RoundRect,0.150000X0.150000X-0.587500X0.150000X0.587500X-0.150000X0.587500X-0.150000X-0.587500X0*%
%TD*%
%TA.AperFunction,SMDPad,CuDef*%
%ADD39RoundRect,0.225000X0.225000X0.250000X-0.225000X0.250000X-0.225000X-0.250000X0.225000X-0.250000X0*%
%TD*%
%TA.AperFunction,SMDPad,CuDef*%
%ADD40RoundRect,0.240000X1.260000X-1.260000X1.260000X1.260000X-1.260000X1.260000X-1.260000X-1.260000X0*%
%TD*%
%TA.AperFunction,ComponentPad*%
%ADD41R,1.700000X1.700000*%
%TD*%
%TA.AperFunction,ComponentPad*%
%ADD42O,1.700000X1.700000*%
%TD*%
%TA.AperFunction,ViaPad*%
%ADD43C,0.600000*%
%TD*%
%TA.AperFunction,Conductor*%
%ADD44C,1.000000*%
%TD*%
%TA.AperFunction,Conductor*%
%ADD45C,0.500000*%
%TD*%
%TA.AperFunction,Conductor*%
%ADD46C,0.250000*%
%TD*%
G04 APERTURE END LIST*
D10*
%TO.P,TP6,1,1*%
%TO.N,GND*%
X129500000Y-113750000D03*
%TD*%
%TO.P,TP5,1,1*%
%TO.N,+BATT*%
X126250000Y-113750000D03*
%TD*%
D11*
%TO.P,U2,1,VI*%
%TO.N,+6V*%
X150050000Y-118187500D03*
%TO.P,U2,2,GND*%
%TO.N,GND*%
X151000000Y-118187500D03*
%TO.P,U2,3,VO*%
%TO.N,+3.3V*%
X151950000Y-118187500D03*
%TO.P,U2,4,NC*%
%TO.N,unconnected-(U2-NC-Pad4)*%
X151950000Y-115787500D03*
%TO.P,U2,5,NC*%
%TO.N,unconnected-(U2-NC-Pad5)*%
X150050000Y-115787500D03*
%TD*%
D12*
%TO.P,TP4,1,1*%
%TO.N,NSS*%
X158750000Y-107500000D03*
%TD*%
%TO.P,TP3,1,1*%
%TO.N,MOSI*%
X157000000Y-107500000D03*
%TD*%
%TO.P,TP2,1,1*%
%TO.N,MISO*%
X160250000Y-106750000D03*
%TD*%
%TO.P,TP1,1,1*%
%TO.N,SCK*%
X155250000Y-107500000D03*
%TD*%
D13*
%TO.P,U4,1,DOUT_A6*%
%TO.N,MISO*%
X162250000Y-107262500D03*
%TO.P,U4,2,DIN_SDA*%
%TO.N,MOSI*%
X162750000Y-107262500D03*
%TO.P,U4,3,NC*%
%TO.N,unconnected-(U4-NC-Pad3)*%
X163250000Y-107262500D03*
%TO.P,U4,4,VPP*%
%TO.N,GND*%
X163750000Y-107262500D03*
D14*
%TO.P,U4,5,INTN1*%
%TO.N,WAKE0*%
X163762500Y-106750000D03*
%TO.P,U4,6,INTN2*%
%TO.N,WAKE2*%
X163762500Y-106250000D03*
D13*
%TO.P,U4,7,VDD*%
%TO.N,+3.3V*%
X163750000Y-105737500D03*
%TO.P,U4,8,NC*%
%TO.N,unconnected-(U4-NC-Pad8)*%
X163250000Y-105737500D03*
%TO.P,U4,9,GND*%
%TO.N,GND*%
X162750000Y-105737500D03*
%TO.P,U4,10,CSN*%
%TO.N,NSS*%
X162250000Y-105737500D03*
D14*
%TO.P,U4,11,NC*%
%TO.N,unconnected-(U4-NC-Pad11)*%
X162237500Y-106250000D03*
%TO.P,U4,12,SCK_SCL*%
%TO.N,SCK*%
X162237500Y-106750000D03*
%TD*%
D15*
%TO.P,D21,1,K*%
%TO.N,Net-(D21-K)*%
X142500000Y-112274180D03*
%TO.P,D21,2,A*%
%TO.N,+6V*%
X140925000Y-112274180D03*
%TD*%
D16*
%TO.P,C4,1*%
%TO.N,+3.3V*%
X154000000Y-101725000D03*
%TO.P,C4,2*%
%TO.N,GND*%
X154000000Y-103275000D03*
%TD*%
D15*
%TO.P,D5,1,K*%
%TO.N,Net-(D5-K)*%
X142500000Y-74854836D03*
%TO.P,D5,2,A*%
%TO.N,+6V*%
X140925000Y-74854836D03*
%TD*%
D17*
%TO.P,R2,1*%
%TO.N,+BATT*%
X138325000Y-120105000D03*
%TO.P,R2,2*%
%TO.N,Net-(Q1-G)*%
X136675000Y-120105000D03*
%TD*%
D15*
%TO.P,D30,1,K*%
%TO.N,Net-(D30-K)*%
X142500000Y-133322561D03*
%TO.P,D30,2,A*%
%TO.N,+6V*%
X140925000Y-133322561D03*
%TD*%
D18*
%TO.P,R1,1*%
%TO.N,Net-(U5-IREF)*%
X153175000Y-114000000D03*
%TO.P,R1,2*%
%TO.N,GND*%
X154825000Y-114000000D03*
%TD*%
D19*
%TO.P,U3,1,LAT*%
%TO.N,LATCH*%
X151000000Y-100418700D03*
%TO.P,U3,2,OUT0*%
%TO.N,Net-(D1-K)*%
X150500001Y-100418700D03*
%TO.P,U3,3,OUT1*%
%TO.N,Net-(D2-K)*%
X150000000Y-100418700D03*
%TO.P,U3,4,OUT2*%
%TO.N,Net-(D3-K)*%
X149500000Y-100418700D03*
%TO.P,U3,5,OUT3*%
%TO.N,Net-(D4-K)*%
X148999999Y-100418700D03*
%TO.P,U3,6,OUT4*%
%TO.N,Net-(D5-K)*%
X148500000Y-100418700D03*
D20*
%TO.P,U3,7,OUT5*%
%TO.N,Net-(D6-K)*%
X147775000Y-101143385D03*
%TO.P,U3,8,OUT6*%
%TO.N,Net-(D7-K)*%
X147775000Y-101643511D03*
%TO.P,U3,9,OUT7*%
%TO.N,Net-(D8-K)*%
X147775000Y-102143637D03*
%TO.P,U3,10,OUT8*%
%TO.N,Net-(D9-K)*%
X147775000Y-102643763D03*
%TO.P,U3,11,OUT9*%
%TO.N,Net-(D10-K)*%
X147775000Y-103143889D03*
%TO.P,U3,12,OUT10*%
%TO.N,Net-(D11-K)*%
X147775000Y-103644015D03*
D19*
%TO.P,U3,13,OUT11*%
%TO.N,Net-(D12-K)*%
X148500000Y-104368700D03*
%TO.P,U3,14,OUT12*%
%TO.N,Net-(D13-K)*%
X148999999Y-104368700D03*
%TO.P,U3,15,OUT13*%
%TO.N,Net-(D14-K)*%
X149500000Y-104368700D03*
%TO.P,U3,16,OUT14*%
%TO.N,Net-(D15-K)*%
X150000000Y-104368700D03*
%TO.P,U3,17,OUT15*%
%TO.N,Net-(D16-K)*%
X150500001Y-104368700D03*
%TO.P,U3,18,BLANK*%
%TO.N,BLANK*%
X151000000Y-104368700D03*
D20*
%TO.P,U3,19,SOUT*%
%TO.N,Net-(U3-SOUT)*%
X151725000Y-103644015D03*
%TO.P,U3,20,IREF*%
%TO.N,Net-(U3-IREF)*%
X151725000Y-103143889D03*
%TO.P,U3,21,VCC*%
%TO.N,+3.3V*%
X151725000Y-102643763D03*
%TO.P,U3,22,GND*%
%TO.N,GND*%
X151725000Y-102143637D03*
%TO.P,U3,23,SIN*%
%TO.N,SDATA*%
X151725000Y-101643511D03*
%TO.P,U3,24,SCLK*%
%TO.N,SCLK*%
X151725000Y-101143385D03*
D21*
%TO.P,U3,25,EPAD*%
%TO.N,GND*%
X149750000Y-102393700D03*
%TD*%
D15*
%TO.P,D16,1,K*%
%TO.N,Net-(D16-K)*%
X142500000Y-100580635D03*
%TO.P,D16,2,A*%
%TO.N,+6V*%
X140925000Y-100580635D03*
%TD*%
D22*
%TO.P,J1,1,VCC*%
%TO.N,+3.3V*%
X158230000Y-94190000D03*
%TO.P,J1,2,SWDIO*%
%TO.N,SWDIO*%
X159500000Y-94190000D03*
%TO.P,J1,3,~{RESET}*%
%TO.N,RESET*%
X158230000Y-95460000D03*
%TO.P,J1,4,SWCLK*%
%TO.N,SWCLK*%
X159500000Y-95460000D03*
%TO.P,J1,5,GND*%
%TO.N,GND*%
X158230000Y-96730000D03*
%TO.P,J1,6,SWO*%
%TO.N,unconnected-(J1-SWO-Pad6)*%
X159500000Y-96730000D03*
%TD*%
D15*
%TO.P,D6,1,K*%
%TO.N,Net-(D6-K)*%
X142500000Y-77193545D03*
%TO.P,D6,2,A*%
%TO.N,+6V*%
X140925000Y-77193545D03*
%TD*%
%TO.P,D32,1,K*%
%TO.N,Net-(D32-K)*%
X142500000Y-138000000D03*
%TO.P,D32,2,A*%
%TO.N,+6V*%
X140925000Y-138000000D03*
%TD*%
%TO.P,D19,1,K*%
%TO.N,Net-(D19-K)*%
X142500000Y-107596762D03*
%TO.P,D19,2,A*%
%TO.N,+6V*%
X140925000Y-107596762D03*
%TD*%
%TO.P,D28,1,K*%
%TO.N,Net-(D28-K)*%
X142500000Y-128645143D03*
%TO.P,D28,2,A*%
%TO.N,+6V*%
X140925000Y-128645143D03*
%TD*%
%TO.P,D8,1,K*%
%TO.N,Net-(D8-K)*%
X142500000Y-81870963D03*
%TO.P,D8,2,A*%
%TO.N,+6V*%
X140925000Y-81870963D03*
%TD*%
%TO.P,D12,1,K*%
%TO.N,Net-(D12-K)*%
X142500000Y-91225799D03*
%TO.P,D12,2,A*%
%TO.N,+6V*%
X140925000Y-91225799D03*
%TD*%
D18*
%TO.P,R5,1*%
%TO.N,KEEP POWER ON*%
X136675000Y-135600000D03*
%TO.P,R5,2*%
%TO.N,GND*%
X138325000Y-135600000D03*
%TD*%
D15*
%TO.P,D3,1,K*%
%TO.N,Net-(D3-K)*%
X142500000Y-70177418D03*
%TO.P,D3,2,A*%
%TO.N,+6V*%
X140925000Y-70177418D03*
%TD*%
%TO.P,D17,1,K*%
%TO.N,Net-(D17-K)*%
X142500000Y-102919344D03*
%TO.P,D17,2,A*%
%TO.N,+6V*%
X140925000Y-102919344D03*
%TD*%
D16*
%TO.P,C3,1*%
%TO.N,+BATT*%
X133500000Y-118225000D03*
%TO.P,C3,2*%
%TO.N,GND*%
X133500000Y-119775000D03*
%TD*%
D15*
%TO.P,D22,1,K*%
%TO.N,Net-(D22-K)*%
X142500000Y-114612889D03*
%TO.P,D22,2,A*%
%TO.N,+6V*%
X140925000Y-114612889D03*
%TD*%
%TO.P,D31,1,K*%
%TO.N,Net-(D31-K)*%
X142500000Y-135661270D03*
%TO.P,D31,2,A*%
%TO.N,+6V*%
X140925000Y-135661270D03*
%TD*%
%TO.P,D9,1,K*%
%TO.N,Net-(D9-K)*%
X142500000Y-84209672D03*
%TO.P,D9,2,A*%
%TO.N,+6V*%
X140925000Y-84209672D03*
%TD*%
D23*
%TO.P,BT2,1,+*%
%TO.N,Net-(BT1--)*%
X157500000Y-117000000D03*
X157500000Y-139000000D03*
D24*
%TO.P,BT2,2,-*%
%TO.N,GND*%
X157500000Y-128000000D03*
%TD*%
D25*
%TO.P,U1,1,PC14*%
%TO.N,unconnected-(U1-PC14-Pad1)*%
X156502500Y-101500000D03*
D26*
%TO.P,U1,2,PC15*%
%TO.N,unconnected-(U1-PC15-Pad2)*%
X156562500Y-102000000D03*
%TO.P,U1,3,VDD*%
%TO.N,+3.3V*%
X156562500Y-102500000D03*
%TO.P,U1,4,VSS*%
%TO.N,GND*%
X156562500Y-103000000D03*
%TO.P,U1,5,PF2*%
%TO.N,RESET*%
X156562500Y-103500000D03*
%TO.P,U1,6,PA0*%
%TO.N,unconnected-(U1-PA0-Pad6)*%
X156562500Y-104000000D03*
D27*
%TO.P,U1,7,PA1*%
%TO.N,SCK*%
X156502500Y-104500000D03*
D28*
%TO.P,U1,8,PA2*%
%TO.N,MOSI*%
X157000000Y-104997500D03*
D29*
%TO.P,U1,9,PA3*%
%TO.N,unconnected-(U1-PA3-Pad9)*%
X157500000Y-104937500D03*
%TO.P,U1,10,PA4*%
%TO.N,NSS*%
X158000000Y-104937500D03*
%TO.P,U1,11,PA5*%
%TO.N,BLANK*%
X158500000Y-104937500D03*
%TO.P,U1,12,PA6*%
%TO.N,MISO*%
X159000000Y-104937500D03*
%TO.P,U1,13,PA7*%
%TO.N,unconnected-(U1-PA7-Pad13)*%
X159500000Y-104937500D03*
D30*
%TO.P,U1,14,PB0*%
%TO.N,KEEP POWER ON*%
X160000000Y-104997500D03*
D31*
%TO.P,U1,15,PB1*%
%TO.N,unconnected-(U1-PB1-Pad15)*%
X160497500Y-104500000D03*
D26*
%TO.P,U1,16,PA8*%
%TO.N,unconnected-(U1-PA8-Pad16)*%
X160437500Y-104000000D03*
%TO.P,U1,17,PC6*%
%TO.N,unconnected-(U1-PC6-Pad17)*%
X160437500Y-103500000D03*
%TO.P,U1,18,PA11/PA9*%
%TO.N,unconnected-(U1-PA11{slash}PA9-Pad18)*%
X160437500Y-103000000D03*
%TO.P,U1,19,PA12/PA10*%
%TO.N,unconnected-(U1-PA12{slash}PA10-Pad19)*%
X160437500Y-102500000D03*
%TO.P,U1,20,PA13*%
%TO.N,SWDIO*%
X160437500Y-102000000D03*
D32*
%TO.P,U1,21,PA14*%
%TO.N,SWCLK*%
X160497500Y-101500000D03*
D33*
%TO.P,U1,22,PA15*%
%TO.N,unconnected-(U1-PA15-Pad22)*%
X160000000Y-101002500D03*
D29*
%TO.P,U1,23,PB3*%
%TO.N,unconnected-(U1-PB3-Pad23)*%
X159500000Y-101062500D03*
%TO.P,U1,24,PB4*%
%TO.N,unconnected-(U1-PB4-Pad24)*%
X159000000Y-101062500D03*
%TO.P,U1,25,PB5*%
%TO.N,LATCH*%
X158500000Y-101062500D03*
%TO.P,U1,26,PB6*%
%TO.N,WAKE2*%
X158000000Y-101062500D03*
%TO.P,U1,27,PB7*%
%TO.N,SCLK*%
X157500000Y-101062500D03*
D34*
%TO.P,U1,28,PB8*%
%TO.N,SDATA*%
X157000000Y-101002500D03*
%TD*%
D35*
%TO.P,C2,1*%
%TO.N,+3.3V*%
X153500000Y-118025000D03*
%TO.P,C2,2*%
%TO.N,GND*%
X153500000Y-116475000D03*
%TD*%
D15*
%TO.P,D26,1,K*%
%TO.N,Net-(D26-K)*%
X142500000Y-123967725D03*
%TO.P,D26,2,A*%
%TO.N,+6V*%
X140925000Y-123967725D03*
%TD*%
D35*
%TO.P,C1,1*%
%TO.N,+6V*%
X148500000Y-118025000D03*
%TO.P,C1,2*%
%TO.N,GND*%
X148500000Y-116475000D03*
%TD*%
D36*
%TO.P,R3,1*%
%TO.N,Net-(Q1-G)*%
X137500000Y-127175000D03*
%TO.P,R3,2*%
%TO.N,Net-(Q2-D)*%
X137500000Y-128825000D03*
%TD*%
D15*
%TO.P,D25,1,K*%
%TO.N,Net-(D25-K)*%
X142500000Y-121629016D03*
%TO.P,D25,2,A*%
%TO.N,+6V*%
X140925000Y-121629016D03*
%TD*%
D37*
%TO.P,SW1,1,1*%
%TO.N,GND*%
X163000000Y-113375000D03*
X157000000Y-113375000D03*
%TO.P,SW1,2,2*%
%TO.N,Net-(Q2-D)*%
X163000000Y-109625000D03*
X157000000Y-109625000D03*
%TD*%
D38*
%TO.P,Q1,1,G*%
%TO.N,Net-(Q1-G)*%
X136550000Y-124937500D03*
%TO.P,Q1,2,S*%
%TO.N,+BATT*%
X138450000Y-124937500D03*
%TO.P,Q1,3,D*%
%TO.N,+6V*%
X137500000Y-123062500D03*
%TD*%
D15*
%TO.P,D4,1,K*%
%TO.N,Net-(D4-K)*%
X142500000Y-72516127D03*
%TO.P,D4,2,A*%
%TO.N,+6V*%
X140925000Y-72516127D03*
%TD*%
D19*
%TO.P,U5,1,LAT*%
%TO.N,LATCH*%
X151000000Y-109131300D03*
%TO.P,U5,2,OUT0*%
%TO.N,Net-(D17-K)*%
X150500001Y-109131300D03*
%TO.P,U5,3,OUT1*%
%TO.N,Net-(D18-K)*%
X150000000Y-109131300D03*
%TO.P,U5,4,OUT2*%
%TO.N,Net-(D19-K)*%
X149500000Y-109131300D03*
%TO.P,U5,5,OUT3*%
%TO.N,Net-(D20-K)*%
X148999999Y-109131300D03*
%TO.P,U5,6,OUT4*%
%TO.N,Net-(D21-K)*%
X148500000Y-109131300D03*
D20*
%TO.P,U5,7,OUT5*%
%TO.N,Net-(D22-K)*%
X147775000Y-109855985D03*
%TO.P,U5,8,OUT6*%
%TO.N,Net-(D23-K)*%
X147775000Y-110356111D03*
%TO.P,U5,9,OUT7*%
%TO.N,Net-(D24-K)*%
X147775000Y-110856237D03*
%TO.P,U5,10,OUT8*%
%TO.N,Net-(D25-K)*%
X147775000Y-111356363D03*
%TO.P,U5,11,OUT9*%
%TO.N,Net-(D26-K)*%
X147775000Y-111856489D03*
%TO.P,U5,12,OUT10*%
%TO.N,Net-(D27-K)*%
X147775000Y-112356615D03*
D19*
%TO.P,U5,13,OUT11*%
%TO.N,Net-(D28-K)*%
X148500000Y-113081300D03*
%TO.P,U5,14,OUT12*%
%TO.N,Net-(D29-K)*%
X148999999Y-113081300D03*
%TO.P,U5,15,OUT13*%
%TO.N,Net-(D30-K)*%
X149500000Y-113081300D03*
%TO.P,U5,16,OUT14*%
%TO.N,Net-(D31-K)*%
X150000000Y-113081300D03*
%TO.P,U5,17,OUT15*%
%TO.N,Net-(D32-K)*%
X150500001Y-113081300D03*
%TO.P,U5,18,BLANK*%
%TO.N,BLANK*%
X151000000Y-113081300D03*
D20*
%TO.P,U5,19,SOUT*%
%TO.N,unconnected-(U5-SOUT-Pad19)*%
X151725000Y-112356615D03*
%TO.P,U5,20,IREF*%
%TO.N,Net-(U5-IREF)*%
X151725000Y-111856489D03*
%TO.P,U5,21,VCC*%
%TO.N,+3.3V*%
X151725000Y-111356363D03*
%TO.P,U5,22,GND*%
%TO.N,GND*%
X151725000Y-110856237D03*
%TO.P,U5,23,SIN*%
%TO.N,Net-(U3-SOUT)*%
X151725000Y-110356111D03*
%TO.P,U5,24,SCLK*%
%TO.N,SCLK*%
X151725000Y-109855985D03*
D21*
%TO.P,U5,25,EPAD*%
%TO.N,GND*%
X149750000Y-111106300D03*
%TD*%
D15*
%TO.P,D11,1,K*%
%TO.N,Net-(D11-K)*%
X142500000Y-88887090D03*
%TO.P,D11,2,A*%
%TO.N,+6V*%
X140925000Y-88887090D03*
%TD*%
%TO.P,D1,1,K*%
%TO.N,Net-(D1-K)*%
X142500000Y-65500000D03*
%TO.P,D1,2,A*%
%TO.N,+6V*%
X140925000Y-65500000D03*
%TD*%
D39*
%TO.P,C6,1*%
%TO.N,+BATT*%
X138275000Y-118000000D03*
%TO.P,C6,2*%
%TO.N,Net-(Q1-G)*%
X136725000Y-118000000D03*
%TD*%
D15*
%TO.P,D18,1,K*%
%TO.N,Net-(D18-K)*%
X142500000Y-105258053D03*
%TO.P,D18,2,A*%
%TO.N,+6V*%
X140925000Y-105258053D03*
%TD*%
D39*
%TO.P,C9,1*%
%TO.N,RESET*%
X153775000Y-98000000D03*
%TO.P,C9,2*%
%TO.N,GND*%
X152225000Y-98000000D03*
%TD*%
D15*
%TO.P,D7,1,K*%
%TO.N,Net-(D7-K)*%
X142500000Y-79532254D03*
%TO.P,D7,2,A*%
%TO.N,+6V*%
X140925000Y-79532254D03*
%TD*%
D35*
%TO.P,C8,1*%
%TO.N,+3.3V*%
X154000000Y-111775000D03*
%TO.P,C8,2*%
%TO.N,GND*%
X154000000Y-110225000D03*
%TD*%
D15*
%TO.P,D27,1,K*%
%TO.N,Net-(D27-K)*%
X142500000Y-126306434D03*
%TO.P,D27,2,A*%
%TO.N,+6V*%
X140925000Y-126306434D03*
%TD*%
%TO.P,D10,1,K*%
%TO.N,Net-(D10-K)*%
X142500000Y-86548381D03*
%TO.P,D10,2,A*%
%TO.N,+6V*%
X140925000Y-86548381D03*
%TD*%
%TO.P,D13,1,K*%
%TO.N,Net-(D13-K)*%
X142500000Y-93564508D03*
%TO.P,D13,2,A*%
%TO.N,+6V*%
X140925000Y-93564508D03*
%TD*%
%TO.P,D20,1,K*%
%TO.N,Net-(D20-K)*%
X142500000Y-109935471D03*
%TO.P,D20,2,A*%
%TO.N,+6V*%
X140925000Y-109935471D03*
%TD*%
D18*
%TO.P,R4,1*%
%TO.N,Net-(U3-IREF)*%
X153175000Y-105500000D03*
%TO.P,R4,2*%
%TO.N,GND*%
X154825000Y-105500000D03*
%TD*%
D15*
%TO.P,D23,1,K*%
%TO.N,Net-(D23-K)*%
X142500000Y-116951598D03*
%TO.P,D23,2,A*%
%TO.N,+6V*%
X140925000Y-116951598D03*
%TD*%
D38*
%TO.P,Q2,1,G*%
%TO.N,KEEP POWER ON*%
X136550000Y-132937500D03*
%TO.P,Q2,2,S*%
%TO.N,GND*%
X138450000Y-132937500D03*
%TO.P,Q2,3,D*%
%TO.N,Net-(Q2-D)*%
X137500000Y-131062500D03*
%TD*%
D15*
%TO.P,D14,1,K*%
%TO.N,Net-(D14-K)*%
X142500000Y-95903217D03*
%TO.P,D14,2,A*%
%TO.N,+6V*%
X140925000Y-95903217D03*
%TD*%
%TO.P,D15,1,K*%
%TO.N,Net-(D15-K)*%
X142500000Y-98241926D03*
%TO.P,D15,2,A*%
%TO.N,+6V*%
X140925000Y-98241926D03*
%TD*%
D16*
%TO.P,C5,1*%
%TO.N,+3.3V*%
X165500000Y-105725000D03*
%TO.P,C5,2*%
%TO.N,GND*%
X165500000Y-107275000D03*
%TD*%
D15*
%TO.P,D2,1,K*%
%TO.N,Net-(D2-K)*%
X142500000Y-67838709D03*
%TO.P,D2,2,A*%
%TO.N,+6V*%
X140925000Y-67838709D03*
%TD*%
D40*
%TO.P,BT1,1,+*%
%TO.N,+BATT*%
X125500000Y-139000000D03*
X125500000Y-117000000D03*
D24*
%TO.P,BT1,2,-*%
%TO.N,Net-(BT1--)*%
X125500000Y-128000000D03*
%TD*%
D41*
%TO.P,J2,1,Pin_1*%
%TO.N,+3.3V*%
X165500000Y-92840000D03*
D42*
%TO.P,J2,2,Pin_2*%
%TO.N,RESET*%
X165500000Y-95380000D03*
%TO.P,J2,3,Pin_3*%
%TO.N,SWCLK*%
X165500000Y-97920000D03*
%TO.P,J2,4,Pin_4*%
%TO.N,SWDIO*%
X165500000Y-100460000D03*
%TO.P,J2,5,Pin_5*%
%TO.N,GND*%
X165500000Y-103000000D03*
%TD*%
D15*
%TO.P,D29,1,K*%
%TO.N,Net-(D29-K)*%
X142500000Y-130983852D03*
%TO.P,D29,2,A*%
%TO.N,+6V*%
X140925000Y-130983852D03*
%TD*%
%TO.P,D24,1,K*%
%TO.N,Net-(D24-K)*%
X142500000Y-119290307D03*
%TO.P,D24,2,A*%
%TO.N,+6V*%
X140925000Y-119290307D03*
%TD*%
D43*
%TO.N,GND*%
X149000000Y-122400000D03*
X148300000Y-122400000D03*
X129250000Y-115250000D03*
%TO.N,+6V*%
X137500000Y-121500000D03*
%TO.N,GND*%
X151750000Y-117000000D03*
X150250000Y-117000000D03*
X151000000Y-117000000D03*
X163000000Y-112400000D03*
X154800000Y-102500000D03*
X162700000Y-104900000D03*
X150300000Y-111600000D03*
X164500000Y-107275000D03*
X158800000Y-97500000D03*
X150300000Y-102900000D03*
X133500000Y-121400000D03*
X152200000Y-96900000D03*
X138450000Y-134500000D03*
X152820558Y-102018763D03*
X148500000Y-115806300D03*
X157000000Y-112400000D03*
X133500000Y-120700000D03*
X149200000Y-110600000D03*
X155800000Y-114000000D03*
X149200000Y-101900000D03*
X150300000Y-110600000D03*
X152900000Y-110800000D03*
X149200000Y-102900000D03*
X149200000Y-111600000D03*
X150300000Y-101900000D03*
%TO.N,+6V*%
X147500000Y-120500000D03*
X140925000Y-120500000D03*
%TO.N,RESET*%
X154300000Y-95900000D03*
X155500000Y-101400000D03*
X155500000Y-103625000D03*
%TO.N,Net-(D16-K)*%
X142300000Y-101700000D03*
X144100000Y-105200000D03*
%TO.N,SWCLK*%
X160210326Y-94818849D03*
X163200000Y-99500000D03*
%TO.N,KEEP POWER ON*%
X165100000Y-112200000D03*
X137200000Y-136800000D03*
X162441942Y-103558058D03*
X165100000Y-109200000D03*
%TO.N,SCLK*%
X150450297Y-106549703D03*
X152642228Y-100484456D03*
X156565687Y-100134313D03*
%TO.N,NSS*%
X158479572Y-106012000D03*
X161400000Y-105800000D03*
%TO.N,LATCH*%
X157850000Y-99850000D03*
X152600000Y-99600000D03*
X150556779Y-107342587D03*
%TO.N,SCK*%
X161400000Y-106637000D03*
X156023562Y-106110322D03*
%TO.N,WAKE2*%
X158000000Y-102100000D03*
X164400000Y-106363000D03*
%TO.N,SDATA*%
X153000000Y-101200000D03*
X156000000Y-100700000D03*
%TO.N,BLANK*%
X158500000Y-103900000D03*
X152500000Y-112900000D03*
X152300000Y-106105418D03*
X154000000Y-107100000D03*
X155000000Y-109000000D03*
%TO.N,Net-(Q2-D)*%
X164475000Y-117100000D03*
X161700000Y-114300000D03*
X161700000Y-109625000D03*
X136400000Y-131300000D03*
%TO.N,Net-(U3-SOUT)*%
X152600000Y-107700000D03*
X151725000Y-105241116D03*
%TD*%
D44*
%TO.N,GND*%
X148300000Y-122400000D02*
X151900000Y-122400000D01*
X151900000Y-122400000D02*
X157000000Y-127500000D01*
D45*
X129250000Y-114000000D02*
X129250000Y-115250000D01*
%TO.N,+BATT*%
X126250000Y-114000000D02*
X126250000Y-116450000D01*
X126250000Y-116450000D02*
X125500000Y-117200000D01*
%TO.N,+6V*%
X137500000Y-123062500D02*
X137500000Y-121500000D01*
D44*
%TO.N,+BATT*%
X138749999Y-124637501D02*
X138450000Y-124937500D01*
X138325000Y-120105000D02*
X138749999Y-120529999D01*
X138749999Y-120529999D02*
X138749999Y-124637501D01*
D45*
%TO.N,+6V*%
X148662500Y-118187500D02*
X148500000Y-118025000D01*
X150050000Y-118187500D02*
X148662500Y-118187500D01*
%TO.N,GND*%
X151750000Y-117000000D02*
X152975000Y-117000000D01*
X150250000Y-117000000D02*
X151000000Y-117000000D01*
X151000000Y-117000000D02*
X151750000Y-117000000D01*
X152975000Y-117000000D02*
X153500000Y-116475000D01*
X151000000Y-118187500D02*
X151000000Y-117000000D01*
X149025000Y-117000000D02*
X150250000Y-117000000D01*
X148500000Y-116475000D02*
X149025000Y-117000000D01*
D46*
%TO.N,MOSI*%
X162750000Y-107550000D02*
X162750000Y-107262000D01*
X161800000Y-108500000D02*
X162750000Y-107550000D01*
X158250000Y-108500000D02*
X161800000Y-108500000D01*
X157000000Y-107250000D02*
X158250000Y-108500000D01*
X157000000Y-104997500D02*
X157000000Y-107250000D01*
%TO.N,NSS*%
X158479572Y-107229572D02*
X158552100Y-107302100D01*
X158552100Y-107302100D02*
X158750000Y-107302100D01*
X158479572Y-106012000D02*
X158479572Y-107229572D01*
%TO.N,SCK*%
X156023562Y-106726438D02*
X155250000Y-107500000D01*
X156023562Y-106110322D02*
X156023562Y-106726438D01*
X156502500Y-105631384D02*
X156502500Y-104500000D01*
X156023562Y-106110322D02*
X156502500Y-105631384D01*
%TO.N,BLANK*%
X154000000Y-108000000D02*
X154000000Y-107100000D01*
X155000000Y-109000000D02*
X154000000Y-108000000D01*
D44*
%TO.N,Net-(Q1-G)*%
X136550000Y-124937500D02*
X136250000Y-124637500D01*
X136725000Y-118000000D02*
X136725000Y-120055000D01*
X137500000Y-127175000D02*
X137500000Y-125887500D01*
X136250000Y-124637500D02*
X136250000Y-120530000D01*
X136725000Y-120055000D02*
X136675000Y-120105000D01*
X136250000Y-120530000D02*
X136675000Y-120105000D01*
X137500000Y-125887500D02*
X136550000Y-124937500D01*
%TO.N,+BATT*%
X137250000Y-116500000D02*
X138275000Y-117525000D01*
X138325000Y-120105000D02*
X138325000Y-118050000D01*
X133825000Y-116500000D02*
X137250000Y-116500000D01*
X138275000Y-117525000D02*
X138275000Y-118000000D01*
X126200000Y-116500000D02*
X133825000Y-116500000D01*
X133500000Y-116825000D02*
X133825000Y-116500000D01*
X125500000Y-117200000D02*
X126200000Y-116500000D01*
X138325000Y-118050000D02*
X138275000Y-118000000D01*
X133500000Y-118225000D02*
X133500000Y-116825000D01*
D46*
%TO.N,GND*%
X152843763Y-110856237D02*
X151725000Y-110856237D01*
X154825000Y-114000000D02*
X155800000Y-114000000D01*
X152900000Y-110800000D02*
X152843763Y-110856237D01*
X152225000Y-96925000D02*
X152200000Y-96900000D01*
X158230000Y-96730000D02*
X158230000Y-96930000D01*
X154000000Y-103987500D02*
X154825000Y-104812500D01*
D44*
X138450000Y-134500000D02*
X138450000Y-135475000D01*
X157000000Y-127500000D02*
X157000000Y-128000000D01*
D46*
X150556237Y-110856237D02*
X150300000Y-110600000D01*
X153475000Y-110225000D02*
X152900000Y-110800000D01*
D44*
X138450000Y-134500000D02*
X138450000Y-132937500D01*
X133500000Y-119775000D02*
X133500000Y-120700000D01*
D46*
X154000000Y-110225000D02*
X153475000Y-110225000D01*
X156425000Y-113375000D02*
X155800000Y-114000000D01*
D44*
X138450000Y-135475000D02*
X138325000Y-135600000D01*
D46*
X152225000Y-98000000D02*
X152225000Y-96925000D01*
X151725000Y-102143637D02*
X152695684Y-102143637D01*
X162750000Y-104950000D02*
X162700000Y-104900000D01*
X163000000Y-113375000D02*
X163000000Y-112400000D01*
X150543637Y-102143637D02*
X150300000Y-101900000D01*
X157000000Y-113375000D02*
X157000000Y-112400000D01*
X164500000Y-107275000D02*
X163763001Y-107275000D01*
X163763001Y-107275000D02*
X163750001Y-107262000D01*
X154825000Y-104812500D02*
X154825000Y-105500000D01*
X151725000Y-102143637D02*
X150543637Y-102143637D01*
X156562500Y-103000000D02*
X155300000Y-103000000D01*
X148500000Y-115806300D02*
X148500000Y-116725000D01*
X151725000Y-110856237D02*
X150556237Y-110856237D01*
X152695684Y-102143637D02*
X152820558Y-102018763D01*
X155300000Y-103000000D02*
X154800000Y-102500000D01*
X162750000Y-105738000D02*
X162750000Y-104950000D01*
X158230000Y-96930000D02*
X158800000Y-97500000D01*
X154000000Y-103275000D02*
X154000000Y-103987500D01*
D44*
X133500000Y-120700000D02*
X133500000Y-121400000D01*
D46*
X154000000Y-103275000D02*
X154025000Y-103275000D01*
X165500000Y-107275000D02*
X164500000Y-107275000D01*
X154025000Y-103275000D02*
X154800000Y-102500000D01*
X157000000Y-113375000D02*
X156425000Y-113375000D01*
X153300000Y-116425000D02*
X153500000Y-116225000D01*
%TO.N,+6V*%
X148500000Y-118275000D02*
X148500000Y-119500000D01*
D44*
X140925000Y-125100000D02*
X140925000Y-120500000D01*
X140925000Y-138000000D02*
X140925000Y-125100000D01*
X140925000Y-120500000D02*
X140925000Y-65500000D01*
X140762500Y-124937500D02*
X140925000Y-125100000D01*
D46*
X148500000Y-119500000D02*
X147500000Y-120500000D01*
%TO.N,+3.3V*%
X165487000Y-105738000D02*
X165500000Y-105725000D01*
X151725000Y-111356363D02*
X152572479Y-111356363D01*
X154000000Y-101725000D02*
X154908884Y-101725000D01*
X163750001Y-105738000D02*
X165487000Y-105738000D01*
X152572479Y-111356363D02*
X152991116Y-111775000D01*
X152991116Y-111775000D02*
X154000000Y-111775000D01*
X155683884Y-102500000D02*
X156562500Y-102500000D01*
X153081237Y-102643763D02*
X154000000Y-101725000D01*
X154908884Y-101725000D02*
X155683884Y-102500000D01*
X151725000Y-102643763D02*
X153081237Y-102643763D01*
%TO.N,RESET*%
X154300000Y-95900000D02*
X153775000Y-96425000D01*
X155300000Y-99525000D02*
X153775000Y-98000000D01*
X155625000Y-103500000D02*
X155500000Y-103625000D01*
X156562500Y-103500000D02*
X155625000Y-103500000D01*
X158230000Y-95460000D02*
X157257696Y-94487696D01*
X155712304Y-94487696D02*
X154300000Y-95900000D01*
X155500000Y-101400000D02*
X155300000Y-101200000D01*
X155300000Y-101200000D02*
X155300000Y-99525000D01*
X153775000Y-96425000D02*
X153775000Y-98000000D01*
X157257696Y-94487696D02*
X155712304Y-94487696D01*
%TO.N,Net-(D1-K)*%
X150500001Y-100418700D02*
X150500001Y-98399645D01*
X147312500Y-87335630D02*
X147312500Y-85633317D01*
X144162500Y-72269439D02*
X144162500Y-70567126D01*
X144162500Y-70567126D02*
X143712500Y-70117126D01*
X146862500Y-85183317D02*
X146862500Y-83481004D01*
X145962500Y-79176378D02*
X145512500Y-78726378D01*
X148662500Y-92090256D02*
X148250000Y-91677756D01*
X146412500Y-83031004D02*
X146412500Y-81328691D01*
X147762500Y-89487943D02*
X147762500Y-87785630D01*
X145512500Y-77024065D02*
X145062500Y-76574065D01*
X143712500Y-70117126D02*
X143712500Y-68414813D01*
X148250000Y-89975443D02*
X147762500Y-89487943D01*
X149112500Y-97012144D02*
X149112500Y-94242569D01*
X147312500Y-85633317D02*
X146862500Y-85183317D01*
X146412500Y-81328691D02*
X145962500Y-80878691D01*
X145062500Y-74871752D02*
X144612500Y-74421752D01*
X143262500Y-67964813D02*
X143262500Y-66262500D01*
X145962500Y-80878691D02*
X145962500Y-79176378D01*
X144612500Y-74421752D02*
X144612500Y-72719439D01*
X146862500Y-83481004D02*
X146412500Y-83031004D01*
X150500001Y-98399645D02*
X149112500Y-97012144D01*
X149112500Y-94242569D02*
X148662500Y-93792569D01*
X148662500Y-93792569D02*
X148662500Y-92090256D01*
X144612500Y-72719439D02*
X144162500Y-72269439D01*
X148250000Y-91677756D02*
X148250000Y-89975443D01*
X145512500Y-78726378D02*
X145512500Y-77024065D01*
X143262500Y-66262500D02*
X142500000Y-65500000D01*
X145062500Y-76574065D02*
X145062500Y-74871752D01*
X147762500Y-87785630D02*
X147312500Y-87335630D01*
X143712500Y-68414813D02*
X143262500Y-67964813D01*
%TO.N,Net-(D2-K)*%
X144612500Y-76760461D02*
X144612500Y-75058148D01*
X144612500Y-75058148D02*
X144162500Y-74608148D01*
X147800000Y-91864152D02*
X147800000Y-90161839D01*
X148662500Y-94428965D02*
X148212500Y-93978965D01*
X145512500Y-81065087D02*
X145512500Y-79362774D01*
X144162500Y-74608148D02*
X144162500Y-72905835D01*
X150000000Y-98536040D02*
X148662500Y-97198540D01*
X146412500Y-83667400D02*
X145962500Y-83217400D01*
X150000000Y-100418700D02*
X150000000Y-98536040D01*
X144162500Y-72905835D02*
X143712500Y-72455835D01*
X145512500Y-79362774D02*
X145062500Y-78912774D01*
X147800000Y-90161839D02*
X147312500Y-89674339D01*
X145962500Y-83217400D02*
X145962500Y-81515087D01*
X147312500Y-89674339D02*
X147312500Y-87972026D01*
X145062500Y-78912774D02*
X145062500Y-77210461D01*
X146862500Y-87522026D02*
X146862500Y-85819713D01*
X148662500Y-97198540D02*
X148662500Y-94428965D01*
X143712500Y-70753522D02*
X143262500Y-70303522D01*
X148212500Y-93978965D02*
X148212500Y-92276652D01*
X145062500Y-77210461D02*
X144612500Y-76760461D01*
X143262500Y-70303522D02*
X143262500Y-68601209D01*
X147312500Y-87972026D02*
X146862500Y-87522026D01*
X146412500Y-85369713D02*
X146412500Y-83667400D01*
X146862500Y-85819713D02*
X146412500Y-85369713D01*
X148212500Y-92276652D02*
X147800000Y-91864152D01*
X143262500Y-68601209D02*
X142500000Y-67838709D01*
X143712500Y-72455835D02*
X143712500Y-70753522D01*
X145962500Y-81515087D02*
X145512500Y-81065087D01*
%TO.N,Net-(D3-K)*%
X146862500Y-89860735D02*
X146862500Y-88158422D01*
X146412500Y-86006109D02*
X145962500Y-85556109D01*
X147350000Y-90348235D02*
X146862500Y-89860735D01*
X148212500Y-94615361D02*
X147762500Y-94165361D01*
X145512500Y-81701483D02*
X145062500Y-81251483D01*
X145062500Y-79549170D02*
X144612500Y-79099170D01*
X145962500Y-83853796D02*
X145512500Y-83403796D01*
X147350000Y-92050548D02*
X147350000Y-90348235D01*
X148212500Y-97384936D02*
X148212500Y-94615361D01*
X146412500Y-87708422D02*
X146412500Y-86006109D01*
X149500000Y-98672436D02*
X148212500Y-97384936D01*
X143262500Y-72642231D02*
X143262500Y-70939918D01*
X144162500Y-75244544D02*
X143712500Y-74794544D01*
X146862500Y-88158422D02*
X146412500Y-87708422D01*
X144612500Y-79099170D02*
X144612500Y-77396857D01*
X145062500Y-81251483D02*
X145062500Y-79549170D01*
X147762500Y-92463048D02*
X147350000Y-92050548D01*
X149500000Y-100418700D02*
X149500000Y-98672436D01*
X147762500Y-94165361D02*
X147762500Y-92463048D01*
X143262500Y-70939918D02*
X142500000Y-70177418D01*
X143712500Y-74794544D02*
X143712500Y-73092231D01*
X143712500Y-73092231D02*
X143262500Y-72642231D01*
X144162500Y-76946857D02*
X144162500Y-75244544D01*
X145962500Y-85556109D02*
X145962500Y-83853796D01*
X145512500Y-83403796D02*
X145512500Y-81701483D01*
X144612500Y-77396857D02*
X144162500Y-76946857D01*
%TO.N,Net-(D4-K)*%
X145962500Y-87894818D02*
X145962500Y-86192505D01*
X145962500Y-86192505D02*
X145512500Y-85742505D01*
X143712500Y-75430940D02*
X143262500Y-74980940D01*
X144162500Y-77583253D02*
X143712500Y-77133253D01*
X146900000Y-90534631D02*
X146412500Y-90047131D01*
X145512500Y-85742505D02*
X145512500Y-84040192D01*
X144162500Y-79285566D02*
X144162500Y-77583253D01*
X145062500Y-83590192D02*
X145062500Y-81887879D01*
X147762500Y-94801757D02*
X147312500Y-94351757D01*
X147312500Y-94351757D02*
X147312500Y-92649444D01*
X147312500Y-92649444D02*
X146900000Y-92236944D01*
X146412500Y-88344818D02*
X145962500Y-87894818D01*
X144612500Y-81437879D02*
X144612500Y-79735566D01*
X143712500Y-77133253D02*
X143712500Y-75430940D01*
X145512500Y-84040192D02*
X145062500Y-83590192D01*
X145062500Y-81887879D02*
X144612500Y-81437879D01*
X143262500Y-73278627D02*
X142500000Y-72516127D01*
X148999999Y-100418700D02*
X148999999Y-98808831D01*
X146412500Y-90047131D02*
X146412500Y-88344818D01*
X148999999Y-98808831D02*
X147762500Y-97571332D01*
X147762500Y-97571332D02*
X147762500Y-94801757D01*
X144612500Y-79735566D02*
X144162500Y-79285566D01*
X143262500Y-74980940D02*
X143262500Y-73278627D01*
X146900000Y-92236944D02*
X146900000Y-90534631D01*
%TO.N,Net-(D5-K)*%
X143262500Y-77319649D02*
X143262500Y-75617336D01*
X148500000Y-100418700D02*
X148500000Y-98945228D01*
X146450000Y-92423340D02*
X146450000Y-90721027D01*
X148500000Y-98945228D02*
X147312500Y-97757728D01*
X146862500Y-92835840D02*
X146450000Y-92423340D01*
X143262500Y-75617336D02*
X142500000Y-74854836D01*
X147312500Y-97757728D02*
X147312500Y-94988153D01*
X143712500Y-77769649D02*
X143262500Y-77319649D01*
X143712500Y-79471962D02*
X143712500Y-77769649D01*
X144162500Y-81624275D02*
X144162500Y-79921962D01*
X145512500Y-88081214D02*
X145512500Y-86378901D01*
X145962500Y-88531214D02*
X145512500Y-88081214D01*
X145962500Y-90233527D02*
X145962500Y-88531214D01*
X145062500Y-84226588D02*
X144612500Y-83776588D01*
X145062500Y-85928901D02*
X145062500Y-84226588D01*
X145512500Y-86378901D02*
X145062500Y-85928901D01*
X146450000Y-90721027D02*
X145962500Y-90233527D01*
X144612500Y-82074275D02*
X144162500Y-81624275D01*
X144612500Y-83776588D02*
X144612500Y-82074275D01*
X146862500Y-94538153D02*
X146862500Y-92835840D01*
X147312500Y-94988153D02*
X146862500Y-94538153D01*
X144162500Y-79921962D02*
X143712500Y-79471962D01*
%TO.N,Net-(D6-K)*%
X145512500Y-90419923D02*
X145512500Y-88717610D01*
X144612500Y-84412984D02*
X144162500Y-83962984D01*
X147775000Y-101143385D02*
X147775000Y-100775000D01*
X147312500Y-100312500D02*
X147312500Y-98394124D01*
X146000000Y-90907423D02*
X145512500Y-90419923D01*
X145062500Y-88267610D02*
X145062500Y-86565297D01*
X144162500Y-82260671D02*
X143712500Y-81810671D01*
X146862500Y-97944124D02*
X146862500Y-95174549D01*
X144162500Y-83962984D02*
X144162500Y-82260671D01*
X145512500Y-88717610D02*
X145062500Y-88267610D01*
X143712500Y-80108358D02*
X143262500Y-79658358D01*
X146862500Y-95174549D02*
X146412500Y-94724549D01*
X143712500Y-81810671D02*
X143712500Y-80108358D01*
X147775000Y-100775000D02*
X147312500Y-100312500D01*
X147312500Y-98394124D02*
X146862500Y-97944124D01*
X146000000Y-92609736D02*
X146000000Y-90907423D01*
X146412500Y-93022236D02*
X146000000Y-92609736D01*
X143262500Y-79658358D02*
X143262500Y-77956045D01*
X143262500Y-77956045D02*
X142500000Y-77193545D01*
X146412500Y-94724549D02*
X146412500Y-93022236D01*
X145062500Y-86565297D02*
X144612500Y-86115297D01*
X144612500Y-86115297D02*
X144612500Y-84412984D01*
%TO.N,Net-(D7-K)*%
X143262500Y-81997067D02*
X143262500Y-80294754D01*
X145550000Y-92796132D02*
X145550000Y-91093819D01*
X145962500Y-93208632D02*
X145550000Y-92796132D01*
X143712500Y-82447067D02*
X143262500Y-81997067D01*
X146412500Y-98130520D02*
X146412500Y-95360945D01*
X147775000Y-101643511D02*
X147006011Y-101643511D01*
X144162500Y-86301693D02*
X144162500Y-84599380D01*
X146412500Y-95360945D02*
X145962500Y-94910945D01*
X145550000Y-91093819D02*
X145062500Y-90606319D01*
X143712500Y-84149380D02*
X143712500Y-82447067D01*
X146862500Y-101500000D02*
X146862500Y-98580520D01*
X145062500Y-90606319D02*
X145062500Y-88904006D01*
X144612500Y-86751693D02*
X144162500Y-86301693D01*
X146862500Y-98580520D02*
X146412500Y-98130520D01*
X143262500Y-80294754D02*
X142500000Y-79532254D01*
X145062500Y-88904006D02*
X144612500Y-88454006D01*
X144162500Y-84599380D02*
X143712500Y-84149380D01*
X147006011Y-101643511D02*
X146862500Y-101500000D01*
X145962500Y-94910945D02*
X145962500Y-93208632D01*
X144612500Y-88454006D02*
X144612500Y-86751693D01*
%TO.N,Net-(D8-K)*%
X146412500Y-102000000D02*
X146412500Y-98766916D01*
X146412500Y-98766916D02*
X145962500Y-98316916D01*
X143262500Y-82633463D02*
X142500000Y-81870963D01*
X144162500Y-88640402D02*
X144162500Y-86938089D01*
X145100000Y-91280215D02*
X144612500Y-90792715D01*
X145962500Y-98316916D02*
X145962500Y-95547341D01*
X144162500Y-86938089D02*
X143712500Y-86488089D01*
X143712500Y-86488089D02*
X143712500Y-84785776D01*
X143262500Y-84335776D02*
X143262500Y-82633463D01*
X144612500Y-90792715D02*
X144612500Y-89090402D01*
X145962500Y-95547341D02*
X145512500Y-95097341D01*
X146556137Y-102143637D02*
X146412500Y-102000000D01*
X145100000Y-92982528D02*
X145100000Y-91280215D01*
X145512500Y-95097341D02*
X145512500Y-93395028D01*
X147775000Y-102143637D02*
X146556137Y-102143637D01*
X144612500Y-89090402D02*
X144162500Y-88640402D01*
X143712500Y-84785776D02*
X143262500Y-84335776D01*
X145512500Y-93395028D02*
X145100000Y-92982528D01*
%TO.N,Net-(D9-K)*%
X143712500Y-88826798D02*
X143712500Y-87124485D01*
X144162500Y-89276798D02*
X143712500Y-88826798D01*
X143262500Y-84972172D02*
X142500000Y-84209672D01*
X145062500Y-93581424D02*
X144650000Y-93168924D01*
X143712500Y-87124485D02*
X143262500Y-86674485D01*
X143262500Y-86674485D02*
X143262500Y-84972172D01*
X145062500Y-95283737D02*
X145062500Y-93581424D01*
X144162500Y-90979111D02*
X144162500Y-89276798D01*
X146262139Y-102643763D02*
X145962500Y-102344124D01*
X147775000Y-102643763D02*
X146262139Y-102643763D01*
X145962500Y-102344124D02*
X145962500Y-98953312D01*
X144650000Y-93168924D02*
X144650000Y-91466611D01*
X144650000Y-91466611D02*
X144162500Y-90979111D01*
X145512500Y-98503312D02*
X145512500Y-95733737D01*
X145512500Y-95733737D02*
X145062500Y-95283737D01*
X145962500Y-98953312D02*
X145512500Y-98503312D01*
%TO.N,Net-(D10-K)*%
X146125869Y-103143889D02*
X145512500Y-102530520D01*
X145512500Y-99139708D02*
X145062500Y-98689708D01*
X143712500Y-89463194D02*
X143262500Y-89013194D01*
X145512500Y-102530520D02*
X145512500Y-99139708D01*
X144612500Y-93767820D02*
X144200000Y-93355320D01*
X145062500Y-98689708D02*
X145062500Y-95920133D01*
X147775000Y-103143889D02*
X146125869Y-103143889D01*
X144612500Y-95470133D02*
X144612500Y-93767820D01*
X143712500Y-91165507D02*
X143712500Y-89463194D01*
X143262500Y-89013194D02*
X143262500Y-87310881D01*
X143262500Y-87310881D02*
X142500000Y-86548381D01*
X144200000Y-91653007D02*
X143712500Y-91165507D01*
X144200000Y-93355320D02*
X144200000Y-91653007D01*
X145062500Y-95920133D02*
X144612500Y-95470133D01*
%TO.N,Net-(D11-K)*%
X143750000Y-93541716D02*
X143750000Y-91839403D01*
X145989599Y-103644015D02*
X145062500Y-102716916D01*
X144612500Y-96106529D02*
X144162500Y-95656529D01*
X143262500Y-91351903D02*
X143262500Y-89649590D01*
X144162500Y-95656529D02*
X144162500Y-93954216D01*
X145062500Y-102716916D02*
X145062500Y-99326104D01*
X143262500Y-89649590D02*
X142500000Y-88887090D01*
X143750000Y-91839403D02*
X143262500Y-91351903D01*
X144612500Y-98876104D02*
X144612500Y-96106529D01*
X145062500Y-99326104D02*
X144612500Y-98876104D01*
X147775000Y-103644015D02*
X145989599Y-103644015D01*
X144162500Y-93954216D02*
X143750000Y-93541716D01*
%TO.N,Net-(D12-K)*%
X143300000Y-92025799D02*
X142500000Y-91225799D01*
X143712500Y-95842925D02*
X143712500Y-94140612D01*
X148500000Y-104368700D02*
X146077888Y-104368700D01*
X144162500Y-99062500D02*
X144162500Y-96292925D01*
X144612500Y-102903312D02*
X144612500Y-99512500D01*
X143300000Y-93728112D02*
X143300000Y-92025799D01*
X144162500Y-96292925D02*
X143712500Y-95842925D01*
X144612500Y-99512500D02*
X144162500Y-99062500D01*
X146077888Y-104368700D02*
X144612500Y-102903312D01*
X143712500Y-94140612D02*
X143300000Y-93728112D01*
%TO.N,Net-(D13-K)*%
X146304092Y-105231300D02*
X144162500Y-103089708D01*
X143262500Y-94327008D02*
X142500000Y-93564508D01*
X143712500Y-99270303D02*
X143712500Y-96479321D01*
X144162500Y-103089708D02*
X144162500Y-99720303D01*
X148868700Y-105231300D02*
X146304092Y-105231300D01*
X148999999Y-105100001D02*
X148868700Y-105231300D01*
X148999999Y-104368700D02*
X148999999Y-105100001D01*
X143712500Y-96479321D02*
X143262500Y-96029321D01*
X143262500Y-96029321D02*
X143262500Y-94327008D01*
X144162500Y-99720303D02*
X143712500Y-99270303D01*
%TO.N,Net-(D14-K)*%
X146117696Y-105681300D02*
X143712500Y-103276104D01*
X149500000Y-104368700D02*
X149500000Y-105327208D01*
X149500000Y-105327208D02*
X149145908Y-105681300D01*
X143262500Y-96665717D02*
X142500000Y-95903217D01*
X143712500Y-103276104D02*
X143712500Y-99906699D01*
X143262500Y-99456699D02*
X143262500Y-96665717D01*
X149145908Y-105681300D02*
X146117696Y-105681300D01*
X143712500Y-99906699D02*
X143262500Y-99456699D01*
%TO.N,Net-(D15-K)*%
X149332304Y-106131300D02*
X145931300Y-106131300D01*
X143262500Y-103462500D02*
X143262500Y-100093095D01*
X145931300Y-106131300D02*
X143262500Y-103462500D01*
X142800000Y-98541926D02*
X142500000Y-98241926D01*
X143262500Y-100093095D02*
X142800000Y-99630595D01*
X150000000Y-105463604D02*
X149332304Y-106131300D01*
X150000000Y-104368700D02*
X150000000Y-105463604D01*
X142800000Y-99630595D02*
X142800000Y-98541926D01*
%TO.N,Net-(D16-K)*%
X142812500Y-100893135D02*
X142500000Y-100580635D01*
X145481300Y-106581300D02*
X144100000Y-105200000D01*
X150500001Y-104368700D02*
X150500001Y-105599999D01*
X150500001Y-105599999D02*
X149518700Y-106581300D01*
X149518700Y-106581300D02*
X145481300Y-106581300D01*
X142300000Y-101700000D02*
X142300000Y-100780635D01*
X142300000Y-100780635D02*
X142500000Y-100580635D01*
%TO.N,Net-(D17-K)*%
X143268198Y-105331802D02*
X143268198Y-104776211D01*
X149362550Y-107031300D02*
X144967696Y-107031300D01*
X150500001Y-109131300D02*
X150500001Y-108168751D01*
X150500001Y-108168751D02*
X149362550Y-107031300D01*
X143268198Y-104776211D02*
X142812500Y-104320513D01*
X142812500Y-103231844D02*
X142500000Y-102919344D01*
X142812500Y-104320513D02*
X142812500Y-103231844D01*
X144967696Y-107031300D02*
X143268198Y-105331802D01*
%TO.N,Net-(D18-K)*%
X150000000Y-108319904D02*
X149161396Y-107481300D01*
X149161396Y-107481300D02*
X144781300Y-107481300D01*
X150000000Y-109131300D02*
X150000000Y-108319904D01*
X142558053Y-105258053D02*
X142500000Y-105258053D01*
X144781300Y-107481300D02*
X142558053Y-105258053D01*
%TO.N,Net-(D19-K)*%
X143196762Y-107596762D02*
X142500000Y-107596762D01*
X149500000Y-109131300D02*
X149500000Y-108456300D01*
X148975000Y-107931300D02*
X143531300Y-107931300D01*
X149500000Y-108456300D02*
X148975000Y-107931300D01*
X143531300Y-107931300D02*
X143196762Y-107596762D01*
%TO.N,Net-(D20-K)*%
X143564529Y-109935471D02*
X142500000Y-109935471D01*
X148781300Y-108381300D02*
X145118700Y-108381300D01*
X148999999Y-109131300D02*
X148999999Y-108599999D01*
X145118700Y-108381300D02*
X143564529Y-109935471D01*
X148999999Y-108599999D02*
X148781300Y-108381300D01*
%TO.N,Net-(D21-K)*%
X145368700Y-108831300D02*
X143500000Y-110700000D01*
X143500000Y-110700000D02*
X143500000Y-111300000D01*
X143500000Y-111300000D02*
X142525820Y-112274180D01*
X142525820Y-112274180D02*
X142500000Y-112274180D01*
X148500000Y-109131300D02*
X148131300Y-109131300D01*
X147831300Y-108831300D02*
X145368700Y-108831300D01*
X148131300Y-109131300D02*
X147831300Y-108831300D01*
%TO.N,Net-(D22-K)*%
X147775000Y-109855985D02*
X146168235Y-109855985D01*
X146168235Y-109855985D02*
X142800000Y-113224220D01*
X142800000Y-113224220D02*
X142800000Y-114312889D01*
X142800000Y-114312889D02*
X142500000Y-114612889D01*
%TO.N,Net-(D23-K)*%
X143262500Y-113398116D02*
X143262500Y-115100429D01*
X142800000Y-115562929D02*
X142800000Y-116651598D01*
X146304505Y-110356111D02*
X143262500Y-113398116D01*
X147775000Y-110356111D02*
X146304505Y-110356111D01*
X142800000Y-116651598D02*
X142500000Y-116951598D01*
X143262500Y-115100429D02*
X142800000Y-115562929D01*
%TO.N,Net-(D24-K)*%
X143262500Y-118527807D02*
X142500000Y-119290307D01*
X146440775Y-110856237D02*
X143712500Y-113584512D01*
X143712500Y-113584512D02*
X143712500Y-115287500D01*
X143262500Y-115737500D02*
X143262500Y-118527807D01*
X147775000Y-110856237D02*
X146440775Y-110856237D01*
X143712500Y-115287500D02*
X143262500Y-115737500D01*
%TO.N,Net-(D25-K)*%
X146577045Y-111356363D02*
X144162500Y-113770908D01*
X143712500Y-118714203D02*
X143300000Y-119126703D01*
X143300000Y-119126703D02*
X143300000Y-120829016D01*
X143712500Y-115923896D02*
X143712500Y-118714203D01*
X144162500Y-113770908D02*
X144162500Y-115473896D01*
X144162500Y-115473896D02*
X143712500Y-115923896D01*
X147775000Y-111356363D02*
X146577045Y-111356363D01*
X143300000Y-120829016D02*
X142500000Y-121629016D01*
%TO.N,Net-(D26-K)*%
X143750000Y-119313099D02*
X143750000Y-121015412D01*
X143262500Y-121502912D02*
X143262500Y-123205225D01*
X143750000Y-121015412D02*
X143262500Y-121502912D01*
X144612500Y-113957304D02*
X144612500Y-115660292D01*
X144612500Y-115660292D02*
X144162500Y-116110292D01*
X144162500Y-116110292D02*
X144162500Y-118900599D01*
X143262500Y-123205225D02*
X142500000Y-123967725D01*
X146713315Y-111856489D02*
X144612500Y-113957304D01*
X147775000Y-111856489D02*
X146713315Y-111856489D01*
X144162500Y-118900599D02*
X143750000Y-119313099D01*
%TO.N,Net-(D27-K)*%
X144612500Y-116296688D02*
X144612500Y-119086995D01*
X143712500Y-121689308D02*
X143712500Y-123391621D01*
X146849585Y-112356615D02*
X145062500Y-114143700D01*
X144612500Y-119086995D02*
X144200000Y-119499495D01*
X143262500Y-123841621D02*
X143262500Y-125543934D01*
X144200000Y-121201808D02*
X143712500Y-121689308D01*
X145062500Y-115846688D02*
X144612500Y-116296688D01*
X144200000Y-119499495D02*
X144200000Y-121201808D01*
X143712500Y-123391621D02*
X143262500Y-123841621D01*
X143262500Y-125543934D02*
X142500000Y-126306434D01*
X145062500Y-114143700D02*
X145062500Y-115846688D01*
X147775000Y-112356615D02*
X146849585Y-112356615D01*
%TO.N,Net-(D28-K)*%
X145062500Y-119273391D02*
X144650000Y-119685891D01*
X143262500Y-126180330D02*
X143262500Y-127882643D01*
X144650000Y-121388204D02*
X144162500Y-121875704D01*
X144162500Y-123578017D02*
X143712500Y-124028017D01*
X147394414Y-113081300D02*
X145521298Y-114954416D01*
X143712500Y-124028017D02*
X143712500Y-125730330D01*
X145521298Y-114954416D02*
X145521298Y-116024286D01*
X144162500Y-121875704D02*
X144162500Y-123578017D01*
X144650000Y-119685891D02*
X144650000Y-121388204D01*
X145521298Y-116024286D02*
X145062500Y-116483084D01*
X145062500Y-116483084D02*
X145062500Y-119273391D01*
X148500000Y-113081300D02*
X147394414Y-113081300D01*
X143712500Y-125730330D02*
X143262500Y-126180330D01*
X143262500Y-127882643D02*
X142500000Y-128645143D01*
%TO.N,Net-(D29-K)*%
X148999999Y-113796301D02*
X148965000Y-113831300D01*
X143262500Y-128519039D02*
X143262500Y-130221352D01*
X143712500Y-128069039D02*
X143262500Y-128519039D01*
X144612500Y-123764413D02*
X144162500Y-124214413D01*
X143262500Y-130221352D02*
X142500000Y-130983852D01*
X147280810Y-113831300D02*
X145971298Y-115140812D01*
X144612500Y-122062100D02*
X144612500Y-123764413D01*
X145100000Y-121574600D02*
X144612500Y-122062100D01*
X145971298Y-116210682D02*
X145512500Y-116669480D01*
X145971298Y-115140812D02*
X145971298Y-116210682D01*
X144162500Y-124214413D02*
X144162500Y-125916726D01*
X145100000Y-119872287D02*
X145100000Y-121574600D01*
X145512500Y-119459787D02*
X145100000Y-119872287D01*
X145512500Y-116669480D02*
X145512500Y-119459787D01*
X148965000Y-113831300D02*
X147280810Y-113831300D01*
X144162500Y-125916726D02*
X143712500Y-126366726D01*
X148999999Y-113081300D02*
X148999999Y-113796301D01*
X143712500Y-126366726D02*
X143712500Y-128069039D01*
%TO.N,Net-(D30-K)*%
X145550000Y-120058683D02*
X145550000Y-121760996D01*
X144162500Y-128255435D02*
X143712500Y-128705435D01*
X144162500Y-126553122D02*
X144162500Y-128255435D01*
X145962500Y-119646183D02*
X145550000Y-120058683D01*
X147467206Y-114281300D02*
X146421298Y-115327208D01*
X143262500Y-132560061D02*
X142500000Y-133322561D01*
X143712500Y-130407748D02*
X143262500Y-130857748D01*
X145062500Y-122248496D02*
X145062500Y-123950809D01*
X144612500Y-126103122D02*
X144162500Y-126553122D01*
X143712500Y-128705435D02*
X143712500Y-130407748D01*
X146421298Y-115327208D02*
X146421298Y-116397078D01*
X145962500Y-116855876D02*
X145962500Y-119646183D01*
X144612500Y-124400809D02*
X144612500Y-126103122D01*
X146421298Y-116397078D02*
X145962500Y-116855876D01*
X143262500Y-130857748D02*
X143262500Y-132560061D01*
X145550000Y-121760996D02*
X145062500Y-122248496D01*
X149500000Y-113932696D02*
X149151396Y-114281300D01*
X145062500Y-123950809D02*
X144612500Y-124400809D01*
X149151396Y-114281300D02*
X147467206Y-114281300D01*
X149500000Y-113081300D02*
X149500000Y-113932696D01*
%TO.N,Net-(D31-K)*%
X147653602Y-114731300D02*
X146871298Y-115513604D01*
X146871298Y-116583474D02*
X146412500Y-117042272D01*
X145062500Y-126289518D02*
X144612500Y-126739518D01*
X143712500Y-132746457D02*
X143262500Y-133196457D01*
X145512500Y-122434892D02*
X145512500Y-124137205D01*
X149337792Y-114731300D02*
X147653602Y-114731300D01*
X146871298Y-115513604D02*
X146871298Y-116583474D01*
X143712500Y-131044144D02*
X143712500Y-132746457D01*
X145062500Y-124587205D02*
X145062500Y-126289518D01*
X146000000Y-121947392D02*
X145512500Y-122434892D01*
X143262500Y-133196457D02*
X143262500Y-134898770D01*
X144162500Y-130594144D02*
X143712500Y-131044144D01*
X144612500Y-126739518D02*
X144612500Y-128441831D01*
X150000000Y-114069092D02*
X149337792Y-114731300D01*
X143262500Y-134898770D02*
X142500000Y-135661270D01*
X144162500Y-128891831D02*
X144162500Y-130594144D01*
X146000000Y-120245079D02*
X146000000Y-121947392D01*
X150000000Y-113081300D02*
X150000000Y-114069092D01*
X144612500Y-128441831D02*
X144162500Y-128891831D01*
X146412500Y-119832579D02*
X146000000Y-120245079D01*
X146412500Y-117042272D02*
X146412500Y-119832579D01*
X145512500Y-124137205D02*
X145062500Y-124587205D01*
%TO.N,Net-(D32-K)*%
X145962500Y-122621288D02*
X145962500Y-124323601D01*
X143262500Y-137237500D02*
X142500000Y-138000000D01*
X145062500Y-126925914D02*
X145062500Y-128628227D01*
X145512500Y-126475914D02*
X145062500Y-126925914D01*
X145062500Y-128628227D02*
X144612500Y-129078227D01*
X143712500Y-133382853D02*
X143712500Y-135085166D01*
X144162500Y-131230540D02*
X144162500Y-132932853D01*
X143262500Y-135535166D02*
X143262500Y-137237500D01*
X146862500Y-117228668D02*
X146862500Y-120018975D01*
X145962500Y-124323601D02*
X145512500Y-124773601D01*
X144612500Y-130780540D02*
X144162500Y-131230540D01*
X150500001Y-113081300D02*
X150500001Y-114205487D01*
X147321298Y-116769870D02*
X146862500Y-117228668D01*
X146450000Y-120431475D02*
X146450000Y-122133788D01*
X147839998Y-115181300D02*
X147321298Y-115700000D01*
X149524188Y-115181300D02*
X147839998Y-115181300D01*
X145512500Y-124773601D02*
X145512500Y-126475914D01*
X143712500Y-135085166D02*
X143262500Y-135535166D01*
X146862500Y-120018975D02*
X146450000Y-120431475D01*
X144612500Y-129078227D02*
X144612500Y-130780540D01*
X150500001Y-114205487D02*
X149524188Y-115181300D01*
X146450000Y-122133788D02*
X145962500Y-122621288D01*
X147321298Y-115700000D02*
X147321298Y-116769870D01*
X144162500Y-132932853D02*
X143712500Y-133382853D01*
%TO.N,SWCLK*%
X159500000Y-95460000D02*
X159569175Y-95460000D01*
X160497500Y-101500000D02*
X161200000Y-101500000D01*
X161200000Y-101500000D02*
X163200000Y-99500000D01*
X159569175Y-95460000D02*
X160210326Y-94818849D01*
%TO.N,SWDIO*%
X163040000Y-100460000D02*
X165500000Y-100460000D01*
X161500000Y-102000000D02*
X163040000Y-100460000D01*
X160437500Y-102000000D02*
X161500000Y-102000000D01*
X164300000Y-96780362D02*
X164300000Y-99260000D01*
X162002088Y-94482450D02*
X164300000Y-96780362D01*
X160757812Y-94482450D02*
X162002088Y-94482450D01*
X164300000Y-99260000D02*
X165500000Y-100460000D01*
X159590000Y-94100000D02*
X160375362Y-94100000D01*
X159500000Y-94190000D02*
X159590000Y-94100000D01*
X160375362Y-94100000D02*
X160757812Y-94482450D01*
%TO.N,Net-(U5-IREF)*%
X151725000Y-111856489D02*
X152436209Y-111856489D01*
X152436209Y-111856489D02*
X153175000Y-112595280D01*
X153175000Y-112595280D02*
X153175000Y-114000000D01*
%TO.N,KEEP POWER ON*%
X161002500Y-104997500D02*
X162441942Y-103558058D01*
X160000000Y-104997500D02*
X161002500Y-104997500D01*
X165100000Y-109200000D02*
X165100000Y-112200000D01*
D44*
X136675000Y-133062500D02*
X136550000Y-132937500D01*
D46*
X137200000Y-136125000D02*
X136675000Y-135600000D01*
X137200000Y-136800000D02*
X137200000Y-136125000D01*
D44*
X136675000Y-135600000D02*
X136675000Y-133062500D01*
D46*
%TO.N,Net-(U3-IREF)*%
X152343889Y-103143889D02*
X151725000Y-103143889D01*
X153175000Y-105500000D02*
X152600000Y-104925000D01*
X152600000Y-104925000D02*
X152600000Y-103400000D01*
X152600000Y-103400000D02*
X152343889Y-103143889D01*
%TO.N,SCLK*%
X157500000Y-100553138D02*
X157081175Y-100134313D01*
X150450297Y-106549703D02*
X150849703Y-106549703D01*
X157500000Y-101062500D02*
X157500000Y-100553138D01*
X150849703Y-106549703D02*
X151725000Y-107425000D01*
X151725000Y-107425000D02*
X151725000Y-109855985D01*
X152642228Y-100484456D02*
X152326684Y-100800000D01*
X152068385Y-100800000D02*
X151725000Y-101143385D01*
X157081175Y-100134313D02*
X156565687Y-100134313D01*
X152326684Y-100800000D02*
X152068385Y-100800000D01*
%TO.N,MISO*%
X159000000Y-104937500D02*
X159000000Y-105424740D01*
X160837260Y-107262000D02*
X162249999Y-107262000D01*
X159000000Y-105424740D02*
X160837260Y-107262000D01*
%TO.N,NSS*%
X158000000Y-105532428D02*
X158479572Y-106012000D01*
X161462000Y-105738000D02*
X162249999Y-105738000D01*
X161400000Y-105800000D02*
X161462000Y-105738000D01*
X158000000Y-104937500D02*
X158000000Y-105532428D01*
%TO.N,LATCH*%
X157850000Y-99850000D02*
X158500000Y-100500000D01*
X152600000Y-99600000D02*
X151781300Y-100418700D01*
X151000000Y-107785808D02*
X151000000Y-109131300D01*
X151781300Y-100418700D02*
X151000000Y-100418700D01*
X150556779Y-107342587D02*
X151000000Y-107785808D01*
X158500000Y-100500000D02*
X158500000Y-101062500D01*
%TO.N,SCK*%
X161513000Y-106750000D02*
X161400000Y-106637000D01*
X162250700Y-106750000D02*
X161513000Y-106750000D01*
%TO.N,WAKE2*%
X164400000Y-106363000D02*
X164287000Y-106250000D01*
X158000000Y-101062500D02*
X158000000Y-102100000D01*
X164287000Y-106250000D02*
X163749300Y-106250000D01*
%TO.N,SDATA*%
X152311926Y-101643511D02*
X151725000Y-101643511D01*
X157000000Y-101002500D02*
X156302500Y-101002500D01*
X152655437Y-101300000D02*
X152311926Y-101643511D01*
X152900000Y-101300000D02*
X152655437Y-101300000D01*
X156302500Y-101002500D02*
X156000000Y-100700000D01*
X153000000Y-101200000D02*
X152900000Y-101300000D01*
%TO.N,BLANK*%
X151705418Y-106105418D02*
X151000000Y-105400000D01*
X152318700Y-113081300D02*
X152500000Y-112900000D01*
X152300000Y-106105418D02*
X151705418Y-106105418D01*
X151000000Y-105400000D02*
X151000000Y-104368700D01*
X151000000Y-113081300D02*
X152318700Y-113081300D01*
X158500000Y-104937500D02*
X158500000Y-103900000D01*
D44*
%TO.N,Net-(BT1--)*%
X137750000Y-139750000D02*
X126000000Y-128000000D01*
X156550000Y-139750000D02*
X137750000Y-139750000D01*
X157500000Y-138800000D02*
X156550000Y-139750000D01*
D46*
%TO.N,Net-(Q2-D)*%
X137262500Y-131300000D02*
X137500000Y-131062500D01*
X161700000Y-109625000D02*
X157000000Y-109625000D01*
D44*
X137500000Y-128825000D02*
X137500000Y-131062500D01*
D46*
X164475000Y-117075000D02*
X164475000Y-117100000D01*
X163000000Y-109625000D02*
X161700000Y-109625000D01*
X136400000Y-131300000D02*
X137262500Y-131300000D01*
X161700000Y-114300000D02*
X164475000Y-117075000D01*
%TO.N,Net-(U3-SOUT)*%
X151725000Y-105241116D02*
X151725000Y-103644015D01*
X152600000Y-110100000D02*
X152343889Y-110356111D01*
X152600000Y-107700000D02*
X152600000Y-110100000D01*
X152343889Y-110356111D02*
X151725000Y-110356111D01*
%TD*%
%TA.AperFunction,Conductor*%
%TO.N,+3.3V*%
G36*
X152583303Y-111251422D02*
G01*
X152591748Y-111257360D01*
X152601924Y-111265168D01*
X152643128Y-111321595D01*
X152647285Y-111391341D01*
X152613073Y-111452262D01*
X152551357Y-111485016D01*
X152494352Y-111483321D01*
X152485650Y-111480989D01*
X152485645Y-111480989D01*
X152485644Y-111480989D01*
X152262296Y-111480989D01*
X152238104Y-111478606D01*
X152234957Y-111477980D01*
X152173046Y-111445595D01*
X152138472Y-111384879D01*
X152142213Y-111315109D01*
X152183079Y-111258438D01*
X152234957Y-111234746D01*
X152238104Y-111234120D01*
X152262296Y-111231737D01*
X152516264Y-111231737D01*
X152583303Y-111251422D01*
G37*
%TD.AperFunction*%
%TA.AperFunction,Conductor*%
G36*
X159302401Y-101719859D02*
G01*
X159355240Y-101744499D01*
X159400821Y-101750500D01*
X159599178Y-101750499D01*
X159612074Y-101748801D01*
X159681106Y-101759566D01*
X159733363Y-101805945D01*
X159752249Y-101873213D01*
X159751198Y-101887921D01*
X159749500Y-101900816D01*
X159749500Y-102099180D01*
X159755500Y-102144756D01*
X159755503Y-102144766D01*
X159780138Y-102197596D01*
X159790630Y-102266673D01*
X159780139Y-102302403D01*
X159757987Y-102349910D01*
X159755500Y-102355243D01*
X159749501Y-102400811D01*
X159749500Y-102400827D01*
X159749500Y-102599180D01*
X159755500Y-102644756D01*
X159755503Y-102644766D01*
X159780138Y-102697596D01*
X159790630Y-102766673D01*
X159780139Y-102802403D01*
X159770401Y-102823288D01*
X159755500Y-102855243D01*
X159749501Y-102900811D01*
X159749500Y-102900827D01*
X159749500Y-103099180D01*
X159755500Y-103144756D01*
X159755503Y-103144766D01*
X159780138Y-103197596D01*
X159790630Y-103266673D01*
X159780139Y-103302403D01*
X159757993Y-103349897D01*
X159755500Y-103355243D01*
X159749501Y-103400811D01*
X159749500Y-103400827D01*
X159749500Y-103599180D01*
X159755500Y-103644756D01*
X159755503Y-103644766D01*
X159780138Y-103697596D01*
X159790630Y-103766673D01*
X159780139Y-103802403D01*
X159759822Y-103845975D01*
X159755500Y-103855243D01*
X159749501Y-103900811D01*
X159749500Y-103900827D01*
X159749500Y-104099176D01*
X159751199Y-104112078D01*
X159740430Y-104181113D01*
X159694048Y-104233366D01*
X159626778Y-104252249D01*
X159612077Y-104251198D01*
X159608639Y-104250745D01*
X159599179Y-104249500D01*
X159599177Y-104249500D01*
X159400819Y-104249500D01*
X159355243Y-104255500D01*
X159355238Y-104255501D01*
X159302403Y-104280139D01*
X159233325Y-104290630D01*
X159197595Y-104280138D01*
X159144759Y-104255500D01*
X159118962Y-104252104D01*
X159055066Y-104223836D01*
X159016595Y-104165511D01*
X159015765Y-104095647D01*
X159020587Y-104081716D01*
X159036330Y-104043709D01*
X159055250Y-103900000D01*
X159036330Y-103756291D01*
X158999350Y-103667013D01*
X158980862Y-103622377D01*
X158980861Y-103622376D01*
X158980861Y-103622375D01*
X158892621Y-103507379D01*
X158777625Y-103419139D01*
X158777624Y-103419138D01*
X158777622Y-103419137D01*
X158643712Y-103363671D01*
X158643710Y-103363670D01*
X158643709Y-103363670D01*
X158544176Y-103350566D01*
X158500001Y-103344750D01*
X158499999Y-103344750D01*
X158356291Y-103363670D01*
X158356287Y-103363671D01*
X158222377Y-103419137D01*
X158107379Y-103507379D01*
X158019137Y-103622377D01*
X157963671Y-103756287D01*
X157963670Y-103756291D01*
X157952691Y-103839687D01*
X157944750Y-103900000D01*
X157963039Y-104038919D01*
X157963670Y-104043708D01*
X157963671Y-104043712D01*
X157979412Y-104081716D01*
X157986879Y-104151185D01*
X157955603Y-104213664D01*
X157895514Y-104249315D01*
X157881035Y-104252105D01*
X157855243Y-104255500D01*
X157855238Y-104255501D01*
X157802403Y-104280139D01*
X157733325Y-104290630D01*
X157697595Y-104280138D01*
X157644759Y-104255500D01*
X157599188Y-104249501D01*
X157599185Y-104249500D01*
X157599179Y-104249500D01*
X157599172Y-104249500D01*
X157400822Y-104249500D01*
X157387920Y-104251199D01*
X157318886Y-104240430D01*
X157266632Y-104194047D01*
X157247750Y-104126778D01*
X157248801Y-104112083D01*
X157250500Y-104099179D01*
X157250499Y-103900822D01*
X157250160Y-103898250D01*
X157244499Y-103855243D01*
X157244499Y-103855240D01*
X157219860Y-103802403D01*
X157209369Y-103733327D01*
X157219858Y-103697601D01*
X157244499Y-103644760D01*
X157250500Y-103599179D01*
X157250499Y-103400822D01*
X157250293Y-103399260D01*
X157245609Y-103363671D01*
X157244499Y-103355240D01*
X157219860Y-103302403D01*
X157209369Y-103233327D01*
X157219858Y-103197601D01*
X157244499Y-103144760D01*
X157250500Y-103099179D01*
X157250499Y-102900822D01*
X157244499Y-102855240D01*
X157197850Y-102755201D01*
X157119799Y-102677150D01*
X157019760Y-102630501D01*
X157019758Y-102630500D01*
X156974188Y-102624501D01*
X156974185Y-102624500D01*
X156974179Y-102624500D01*
X156974172Y-102624500D01*
X155506900Y-102624500D01*
X155439861Y-102604815D01*
X155419219Y-102588181D01*
X155388684Y-102557646D01*
X155355199Y-102496323D01*
X155353428Y-102486163D01*
X155336330Y-102356291D01*
X155280861Y-102222375D01*
X155280860Y-102222374D01*
X155280860Y-102222373D01*
X155234898Y-102162475D01*
X155205677Y-102124394D01*
X155180483Y-102059227D01*
X155194521Y-101990782D01*
X155243334Y-101940792D01*
X155311426Y-101925128D01*
X155351503Y-101934347D01*
X155353397Y-101935131D01*
X155356291Y-101936330D01*
X155483280Y-101953048D01*
X155499999Y-101955250D01*
X155500000Y-101955250D01*
X155500001Y-101955250D01*
X155514977Y-101953278D01*
X155643709Y-101936330D01*
X155703049Y-101911750D01*
X155772516Y-101904282D01*
X155834996Y-101935557D01*
X155870648Y-101995646D01*
X155874500Y-102026310D01*
X155874500Y-102099179D01*
X155880500Y-102144756D01*
X155880502Y-102144763D01*
X155916694Y-102222376D01*
X155927150Y-102244799D01*
X156005201Y-102322850D01*
X156105240Y-102369499D01*
X156150821Y-102375500D01*
X156974178Y-102375499D01*
X156974180Y-102375499D01*
X156989372Y-102373499D01*
X157019760Y-102369499D01*
X157119799Y-102322850D01*
X157197850Y-102244799D01*
X157225465Y-102185576D01*
X157271635Y-102133140D01*
X157338828Y-102113987D01*
X157405710Y-102134202D01*
X157451045Y-102187367D01*
X157460785Y-102221796D01*
X157463670Y-102243708D01*
X157463671Y-102243712D01*
X157519137Y-102377622D01*
X157519138Y-102377624D01*
X157519139Y-102377625D01*
X157607379Y-102492621D01*
X157722375Y-102580861D01*
X157856291Y-102636330D01*
X157983280Y-102653048D01*
X157999999Y-102655250D01*
X158000000Y-102655250D01*
X158000001Y-102655250D01*
X158014977Y-102653278D01*
X158143709Y-102636330D01*
X158277625Y-102580861D01*
X158392621Y-102492621D01*
X158480861Y-102377625D01*
X158536330Y-102243709D01*
X158555250Y-102100000D01*
X158536330Y-101956291D01*
X158520586Y-101918282D01*
X158513119Y-101848815D01*
X158544395Y-101786336D01*
X158604484Y-101750684D01*
X158618951Y-101747896D01*
X158644760Y-101744499D01*
X158697597Y-101719860D01*
X158766671Y-101709369D01*
X158802401Y-101719859D01*
X158855240Y-101744499D01*
X158900821Y-101750500D01*
X159099178Y-101750499D01*
X159099180Y-101750499D01*
X159114372Y-101748499D01*
X159144760Y-101744499D01*
X159197597Y-101719860D01*
X159266671Y-101709369D01*
X159302401Y-101719859D01*
G37*
%TD.AperFunction*%
%TA.AperFunction,Conductor*%
G36*
X163048153Y-96059998D02*
G01*
X163054631Y-96066030D01*
X163888181Y-96899580D01*
X163921666Y-96960903D01*
X163924500Y-96987261D01*
X163924500Y-99187181D01*
X163904815Y-99254220D01*
X163852011Y-99299975D01*
X163782853Y-99309919D01*
X163719297Y-99280894D01*
X163685939Y-99234635D01*
X163680861Y-99222375D01*
X163592621Y-99107379D01*
X163477625Y-99019139D01*
X163477624Y-99019138D01*
X163477622Y-99019137D01*
X163343712Y-98963671D01*
X163343710Y-98963670D01*
X163343709Y-98963670D01*
X163271854Y-98954210D01*
X163200001Y-98944750D01*
X163199999Y-98944750D01*
X163056291Y-98963670D01*
X163056287Y-98963671D01*
X162922377Y-99019137D01*
X162807379Y-99107379D01*
X162719137Y-99222377D01*
X162663671Y-99356287D01*
X162663670Y-99356291D01*
X162646572Y-99486153D01*
X162618305Y-99550049D01*
X162611314Y-99557647D01*
X161080782Y-101088181D01*
X161019459Y-101121666D01*
X160993101Y-101124500D01*
X160892485Y-101124500D01*
X160868293Y-101122117D01*
X160849697Y-101118418D01*
X160830001Y-101114500D01*
X160830000Y-101114500D01*
X160509500Y-101114500D01*
X160442461Y-101094815D01*
X160396706Y-101042011D01*
X160385500Y-100990500D01*
X160385500Y-100669994D01*
X160366051Y-100572225D01*
X160366049Y-100572220D01*
X160351405Y-100536867D01*
X160296023Y-100453981D01*
X160238627Y-100415630D01*
X160213133Y-100398595D01*
X160181834Y-100385630D01*
X160179282Y-100384465D01*
X160177778Y-100383950D01*
X160177776Y-100383949D01*
X160145184Y-100377466D01*
X160080002Y-100364500D01*
X160080000Y-100364500D01*
X159919997Y-100364500D01*
X159919995Y-100364500D01*
X159822225Y-100383948D01*
X159822220Y-100383950D01*
X159782566Y-100400376D01*
X159713097Y-100407845D01*
X159682712Y-100398198D01*
X159644760Y-100380501D01*
X159644758Y-100380500D01*
X159599188Y-100374501D01*
X159599185Y-100374500D01*
X159599179Y-100374500D01*
X159599172Y-100374500D01*
X159400819Y-100374500D01*
X159355243Y-100380500D01*
X159355238Y-100380501D01*
X159302403Y-100405139D01*
X159233325Y-100415630D01*
X159197595Y-100405138D01*
X159144759Y-100380500D01*
X159099188Y-100374501D01*
X159099185Y-100374500D01*
X159099179Y-100374500D01*
X159099172Y-100374500D01*
X158932725Y-100374500D01*
X158865686Y-100354815D01*
X158825338Y-100312500D01*
X158800477Y-100269440D01*
X158800473Y-100269435D01*
X158438684Y-99907646D01*
X158405199Y-99846323D01*
X158403428Y-99836163D01*
X158386330Y-99706291D01*
X158349350Y-99617013D01*
X158330862Y-99572377D01*
X158330861Y-99572376D01*
X158330861Y-99572375D01*
X158242621Y-99457379D01*
X158127625Y-99369139D01*
X158127624Y-99369138D01*
X158127622Y-99369137D01*
X157993712Y-99313671D01*
X157993710Y-99313670D01*
X157993709Y-99313670D01*
X157921854Y-99304210D01*
X157850001Y-99294750D01*
X157849999Y-99294750D01*
X157706291Y-99313670D01*
X157706287Y-99313671D01*
X157572377Y-99369137D01*
X157525721Y-99404938D01*
X157457379Y-99457379D01*
X157380441Y-99557647D01*
X157369137Y-99572378D01*
X157317415Y-99697248D01*
X157273574Y-99751652D01*
X157207280Y-99773717D01*
X157170761Y-99769571D01*
X157130611Y-99758813D01*
X157130610Y-99758813D01*
X157022713Y-99758813D01*
X156955674Y-99739128D01*
X156947234Y-99733195D01*
X156843312Y-99653452D01*
X156843311Y-99653451D01*
X156843309Y-99653450D01*
X156709399Y-99597984D01*
X156709397Y-99597983D01*
X156709396Y-99597983D01*
X156619525Y-99586151D01*
X156565688Y-99579063D01*
X156565686Y-99579063D01*
X156421978Y-99597983D01*
X156421974Y-99597984D01*
X156288064Y-99653450D01*
X156173066Y-99741692D01*
X156084824Y-99856690D01*
X156029358Y-99990600D01*
X156029357Y-99990604D01*
X156021642Y-100049203D01*
X155993375Y-100113099D01*
X155935050Y-100151569D01*
X155914890Y-100155955D01*
X155856291Y-100163670D01*
X155846950Y-100167539D01*
X155777482Y-100175007D01*
X155715003Y-100143731D01*
X155679351Y-100083641D01*
X155675500Y-100052977D01*
X155675500Y-99475566D01*
X155675499Y-99475562D01*
X155672151Y-99463065D01*
X155649911Y-99380063D01*
X155609135Y-99309436D01*
X155600477Y-99294440D01*
X155600473Y-99294435D01*
X154511818Y-98205780D01*
X154478333Y-98144457D01*
X154475499Y-98118099D01*
X154475499Y-97704518D01*
X154475498Y-97704509D01*
X154469412Y-97647885D01*
X154451588Y-97600101D01*
X154421628Y-97519774D01*
X154339687Y-97410313D01*
X154230226Y-97328372D01*
X154222444Y-97324123D01*
X154223191Y-97322753D01*
X154175232Y-97286850D01*
X154150816Y-97221385D01*
X154150500Y-97212541D01*
X154150500Y-96631899D01*
X154170185Y-96564860D01*
X154186819Y-96544218D01*
X154242352Y-96488685D01*
X154303675Y-96455200D01*
X154313847Y-96453427D01*
X154321397Y-96452433D01*
X154443709Y-96436330D01*
X154577625Y-96380861D01*
X154692621Y-96292621D01*
X154692625Y-96292616D01*
X154698368Y-96286874D01*
X154700410Y-96288916D01*
X154745558Y-96255926D01*
X154815302Y-96251746D01*
X154876235Y-96285936D01*
X154909010Y-96347642D01*
X154910021Y-96353201D01*
X154922458Y-96431724D01*
X154922458Y-96431725D01*
X154992398Y-96646978D01*
X154992400Y-96646981D01*
X155095155Y-96848650D01*
X155228193Y-97031761D01*
X155388239Y-97191807D01*
X155571350Y-97324845D01*
X155773019Y-97427600D01*
X155773021Y-97427601D01*
X155917052Y-97474399D01*
X155988279Y-97497542D01*
X156211831Y-97532950D01*
X156211832Y-97532950D01*
X156438168Y-97532950D01*
X156438169Y-97532950D01*
X156661721Y-97497542D01*
X156661724Y-97497541D01*
X156661725Y-97497541D01*
X156876978Y-97427601D01*
X156876978Y-97427600D01*
X156876981Y-97427600D01*
X157078650Y-97324845D01*
X157261761Y-97191807D01*
X157421807Y-97031761D01*
X157440447Y-97006104D01*
X157495776Y-96963439D01*
X157565390Y-96957460D01*
X157627185Y-96990065D01*
X157650554Y-97025648D01*
X157651916Y-97024934D01*
X157655403Y-97031579D01*
X157698183Y-97093557D01*
X157720066Y-97159911D01*
X157702600Y-97227563D01*
X157651332Y-97275032D01*
X157632132Y-97282655D01*
X157631464Y-97282857D01*
X157495733Y-97339078D01*
X157495724Y-97339083D01*
X157373580Y-97420698D01*
X157373576Y-97420701D01*
X157269701Y-97524576D01*
X157269698Y-97524580D01*
X157188083Y-97646724D01*
X157188078Y-97646733D01*
X157131861Y-97782455D01*
X157131858Y-97782465D01*
X157103200Y-97926540D01*
X157103200Y-98073459D01*
X157131858Y-98217534D01*
X157131861Y-98217544D01*
X157188078Y-98353266D01*
X157188083Y-98353275D01*
X157269698Y-98475419D01*
X157269701Y-98475423D01*
X157373576Y-98579298D01*
X157373580Y-98579301D01*
X157495724Y-98660916D01*
X157495733Y-98660921D01*
X157504569Y-98664581D01*
X157631458Y-98717140D01*
X157772443Y-98745183D01*
X157775540Y-98745799D01*
X157775544Y-98745800D01*
X157775545Y-98745800D01*
X157922456Y-98745800D01*
X157922457Y-98745799D01*
X158066542Y-98717140D01*
X158202269Y-98660920D01*
X158324420Y-98579301D01*
X158428301Y-98475420D01*
X158509920Y-98353269D01*
X158566140Y-98217542D01*
X158580908Y-98143292D01*
X158613292Y-98081385D01*
X158674007Y-98046810D01*
X158718706Y-98044547D01*
X158800000Y-98055250D01*
X158943709Y-98036330D01*
X158974208Y-98023696D01*
X159043677Y-98016228D01*
X159106156Y-98047503D01*
X159141808Y-98107592D01*
X159143277Y-98114067D01*
X159163858Y-98217534D01*
X159163861Y-98217544D01*
X159220078Y-98353266D01*
X159220083Y-98353275D01*
X159301698Y-98475419D01*
X159301701Y-98475423D01*
X159405576Y-98579298D01*
X159405580Y-98579301D01*
X159527724Y-98660916D01*
X159527733Y-98660921D01*
X159536569Y-98664581D01*
X159663458Y-98717140D01*
X159804443Y-98745183D01*
X159807540Y-98745799D01*
X159807544Y-98745800D01*
X159807545Y-98745800D01*
X159954456Y-98745800D01*
X159954457Y-98745799D01*
X160098542Y-98717140D01*
X160234269Y-98660920D01*
X160356420Y-98579301D01*
X160460301Y-98475420D01*
X160541920Y-98353269D01*
X160598140Y-98217542D01*
X160626800Y-98073455D01*
X160626800Y-97926545D01*
X160598140Y-97782458D01*
X160552304Y-97671800D01*
X160541921Y-97646733D01*
X160541916Y-97646724D01*
X160460301Y-97524580D01*
X160460298Y-97524576D01*
X160356423Y-97420701D01*
X160356419Y-97420698D01*
X160234275Y-97339083D01*
X160234266Y-97339078D01*
X160098542Y-97282860D01*
X160097872Y-97282657D01*
X160097563Y-97282454D01*
X160092914Y-97280529D01*
X160093279Y-97279647D01*
X160039433Y-97244360D01*
X160010976Y-97180548D01*
X160021535Y-97111481D01*
X160031814Y-97093559D01*
X160074600Y-97031573D01*
X160074601Y-97031569D01*
X160078084Y-97024934D01*
X160080123Y-97026004D01*
X160115451Y-96979330D01*
X160181044Y-96955261D01*
X160249237Y-96970474D01*
X160289551Y-97006103D01*
X160308190Y-97031757D01*
X160308193Y-97031761D01*
X160468239Y-97191807D01*
X160651350Y-97324845D01*
X160853019Y-97427600D01*
X160853021Y-97427601D01*
X160997052Y-97474399D01*
X161068279Y-97497542D01*
X161291831Y-97532950D01*
X161291832Y-97532950D01*
X161518168Y-97532950D01*
X161518169Y-97532950D01*
X161741721Y-97497542D01*
X161741724Y-97497541D01*
X161741725Y-97497541D01*
X161956978Y-97427601D01*
X161956978Y-97427600D01*
X161956981Y-97427600D01*
X162158650Y-97324845D01*
X162341761Y-97191807D01*
X162501807Y-97031761D01*
X162634845Y-96848650D01*
X162737600Y-96646981D01*
X162770990Y-96544218D01*
X162807541Y-96431725D01*
X162807541Y-96431724D01*
X162807542Y-96431721D01*
X162842950Y-96208169D01*
X162842950Y-96153711D01*
X162862635Y-96086672D01*
X162915439Y-96040917D01*
X162984597Y-96030973D01*
X163048153Y-96059998D01*
G37*
%TD.AperFunction*%
%TA.AperFunction,Conductor*%
G36*
X132143039Y-57120185D02*
G01*
X132188794Y-57172989D01*
X132200000Y-57224500D01*
X132200000Y-63500000D01*
X150800000Y-63500000D01*
X150800000Y-57224500D01*
X150819685Y-57157461D01*
X150872489Y-57111706D01*
X150924000Y-57100500D01*
X165134108Y-57100500D01*
X165196249Y-57100500D01*
X165203736Y-57100726D01*
X165493796Y-57118271D01*
X165508657Y-57120075D01*
X165712662Y-57157461D01*
X165790798Y-57171780D01*
X165805335Y-57175363D01*
X166079172Y-57260695D01*
X166093163Y-57266000D01*
X166354743Y-57383727D01*
X166367989Y-57390680D01*
X166613465Y-57539075D01*
X166625776Y-57547573D01*
X166851573Y-57724473D01*
X166862781Y-57734403D01*
X167065596Y-57937218D01*
X167075526Y-57948426D01*
X167195481Y-58101538D01*
X167252422Y-58174217D01*
X167260928Y-58186540D01*
X167409316Y-58432004D01*
X167416275Y-58445263D01*
X167533997Y-58706831D01*
X167539306Y-58720832D01*
X167624635Y-58994663D01*
X167628219Y-59009201D01*
X167679923Y-59291340D01*
X167681728Y-59306205D01*
X167699274Y-59596263D01*
X167699500Y-59603750D01*
X167699500Y-118420293D01*
X167679815Y-118487332D01*
X167627011Y-118533087D01*
X167575455Y-118544293D01*
X159357139Y-118541292D01*
X159290106Y-118521583D01*
X159244371Y-118468762D01*
X159234453Y-118399600D01*
X159241004Y-118373955D01*
X159242349Y-118370348D01*
X159244219Y-118365335D01*
X159250500Y-118306915D01*
X159250499Y-115693086D01*
X159244219Y-115634665D01*
X159241714Y-115627950D01*
X159194930Y-115502514D01*
X159194929Y-115502511D01*
X159110403Y-115389597D01*
X158997489Y-115305071D01*
X158997487Y-115305070D01*
X158997485Y-115305069D01*
X158865338Y-115255782D01*
X158865337Y-115255781D01*
X158865335Y-115255781D01*
X158806915Y-115249500D01*
X158806905Y-115249500D01*
X156193087Y-115249500D01*
X156193081Y-115249501D01*
X156134664Y-115255780D01*
X156002514Y-115305069D01*
X156002507Y-115305073D01*
X155889597Y-115389597D01*
X155805073Y-115502507D01*
X155805069Y-115502514D01*
X155757786Y-115629289D01*
X155755781Y-115634665D01*
X155749500Y-115693085D01*
X155749500Y-115693092D01*
X155749500Y-115693093D01*
X155749500Y-118306912D01*
X155749501Y-118306918D01*
X155755780Y-118365335D01*
X155805069Y-118497485D01*
X155805073Y-118497492D01*
X155807970Y-118501362D01*
X155889597Y-118610403D01*
X156002511Y-118694929D01*
X156134665Y-118744219D01*
X156152648Y-118746152D01*
X156217196Y-118772888D01*
X156257046Y-118830280D01*
X156259541Y-118900105D01*
X156223890Y-118960194D01*
X156161411Y-118991470D01*
X156159591Y-118991785D01*
X155961441Y-119024500D01*
X155722509Y-119063948D01*
X155722506Y-119063948D01*
X155722498Y-119063950D01*
X155141877Y-119199332D01*
X155141872Y-119199333D01*
X155141869Y-119199334D01*
X155141865Y-119199335D01*
X155141862Y-119199336D01*
X154571331Y-119372404D01*
X154571316Y-119372409D01*
X154013343Y-119582415D01*
X154013320Y-119582424D01*
X153470263Y-119828481D01*
X153470236Y-119828494D01*
X152944453Y-120109530D01*
X152944431Y-120109543D01*
X152438145Y-120424372D01*
X152438135Y-120424378D01*
X151953502Y-120771662D01*
X151492630Y-121149889D01*
X151492611Y-121149906D01*
X151057472Y-121557457D01*
X151008012Y-121610266D01*
X150947817Y-121645739D01*
X150917509Y-121649500D01*
X148226080Y-121649500D01*
X148081092Y-121678340D01*
X148081082Y-121678343D01*
X147944511Y-121734912D01*
X147944498Y-121734919D01*
X147821584Y-121817048D01*
X147821580Y-121817051D01*
X147717051Y-121921580D01*
X147717048Y-121921584D01*
X147634919Y-122044498D01*
X147634912Y-122044511D01*
X147578343Y-122181082D01*
X147578340Y-122181092D01*
X147549500Y-122326079D01*
X147549500Y-122326082D01*
X147549500Y-122473918D01*
X147549500Y-122473920D01*
X147549499Y-122473920D01*
X147578340Y-122618907D01*
X147578343Y-122618917D01*
X147634912Y-122755488D01*
X147634919Y-122755501D01*
X147717048Y-122878415D01*
X147717051Y-122878419D01*
X147821580Y-122982948D01*
X147821584Y-122982951D01*
X147944498Y-123065080D01*
X147944511Y-123065087D01*
X148081082Y-123121656D01*
X148081087Y-123121658D01*
X148081091Y-123121658D01*
X148081092Y-123121659D01*
X148226079Y-123150500D01*
X148226082Y-123150500D01*
X149569195Y-123150500D01*
X149636234Y-123170185D01*
X149681989Y-123222989D01*
X149691933Y-123292147D01*
X149674496Y-123339981D01*
X149609535Y-123444445D01*
X149609530Y-123444453D01*
X149328494Y-123970236D01*
X149328481Y-123970263D01*
X149082424Y-124513320D01*
X149082415Y-124513343D01*
X148872409Y-125071316D01*
X148872404Y-125071331D01*
X148699336Y-125641862D01*
X148699332Y-125641877D01*
X148563950Y-126222498D01*
X148563948Y-126222506D01*
X148563948Y-126222509D01*
X148514115Y-126524340D01*
X148466826Y-126810765D01*
X148408388Y-127404092D01*
X148388880Y-128000000D01*
X148408388Y-128595907D01*
X148465991Y-129180753D01*
X148466827Y-129189240D01*
X148563948Y-129777491D01*
X148699334Y-130358131D01*
X148732930Y-130468882D01*
X148872404Y-130928668D01*
X148872409Y-130928683D01*
X149082415Y-131486656D01*
X149082424Y-131486679D01*
X149328481Y-132029736D01*
X149328494Y-132029763D01*
X149609530Y-132555546D01*
X149609543Y-132555568D01*
X149924372Y-133061854D01*
X149924378Y-133061864D01*
X150271662Y-133546497D01*
X150325965Y-133612666D01*
X150649897Y-134007379D01*
X151057465Y-134442535D01*
X151492621Y-134850103D01*
X151778817Y-135084977D01*
X151953502Y-135228337D01*
X151953501Y-135228337D01*
X152438135Y-135575621D01*
X152438145Y-135575627D01*
X152944431Y-135890456D01*
X152944453Y-135890469D01*
X153413504Y-136141181D01*
X153470255Y-136171515D01*
X153803808Y-136322646D01*
X154013320Y-136417575D01*
X154013343Y-136417584D01*
X154285685Y-136520086D01*
X154571326Y-136627594D01*
X155141869Y-136800666D01*
X155722509Y-136936052D01*
X156159592Y-137008214D01*
X156222528Y-137038556D01*
X156259070Y-137098108D01*
X156257615Y-137167963D01*
X156218625Y-137225942D01*
X156154478Y-137253637D01*
X156152645Y-137253848D01*
X156134664Y-137255780D01*
X156002514Y-137305069D01*
X156002507Y-137305073D01*
X155889597Y-137389597D01*
X155805073Y-137502507D01*
X155805069Y-137502514D01*
X155755782Y-137634661D01*
X155755781Y-137634665D01*
X155749500Y-137693085D01*
X155749500Y-137693093D01*
X155749500Y-138875500D01*
X155729815Y-138942539D01*
X155677011Y-138988294D01*
X155625500Y-138999500D01*
X138112229Y-138999500D01*
X138045190Y-138979815D01*
X138024548Y-138963181D01*
X132752438Y-133691070D01*
X132718953Y-133629747D01*
X132723937Y-133560055D01*
X132739324Y-133531165D01*
X133075619Y-133061867D01*
X133390461Y-132555560D01*
X133390463Y-132555555D01*
X133390469Y-132555546D01*
X133567311Y-132224697D01*
X133671515Y-132029745D01*
X133917577Y-131486675D01*
X134127594Y-130928674D01*
X134300666Y-130358131D01*
X134436052Y-129777491D01*
X134533173Y-129189240D01*
X134591612Y-128595896D01*
X134611120Y-128000000D01*
X134591612Y-127404104D01*
X134533173Y-126810760D01*
X134436052Y-126222509D01*
X134300666Y-125641869D01*
X134127594Y-125071326D01*
X133983025Y-124687215D01*
X133917584Y-124513343D01*
X133917575Y-124513320D01*
X133829294Y-124318481D01*
X133671515Y-123970255D01*
X133605230Y-123846244D01*
X133390469Y-123444453D01*
X133390456Y-123444431D01*
X133075627Y-122938145D01*
X133075621Y-122938135D01*
X132728337Y-122453502D01*
X132655173Y-122364351D01*
X132350103Y-121992621D01*
X131942535Y-121557465D01*
X131942526Y-121557457D01*
X131697416Y-121327886D01*
X131507379Y-121149897D01*
X131130825Y-120840868D01*
X131046497Y-120771662D01*
X131046498Y-120771662D01*
X130561864Y-120424378D01*
X130561854Y-120424372D01*
X130055568Y-120109543D01*
X130055546Y-120109530D01*
X129529763Y-119828494D01*
X129529751Y-119828488D01*
X129529745Y-119828485D01*
X129401147Y-119770218D01*
X128986679Y-119582424D01*
X128986656Y-119582415D01*
X128428683Y-119372409D01*
X128428668Y-119372404D01*
X128143402Y-119285870D01*
X127858131Y-119199334D01*
X127725169Y-119168331D01*
X127277501Y-119063950D01*
X127277496Y-119063949D01*
X127277491Y-119063948D01*
X126998209Y-119017838D01*
X126840409Y-118991785D01*
X126777471Y-118961443D01*
X126740929Y-118901890D01*
X126742384Y-118832036D01*
X126781375Y-118774057D01*
X126845521Y-118746362D01*
X126847312Y-118746156D01*
X126865335Y-118744219D01*
X126997489Y-118694929D01*
X127110403Y-118610403D01*
X127194929Y-118497489D01*
X127244219Y-118365335D01*
X127250500Y-118306915D01*
X127250500Y-117374500D01*
X127270185Y-117307461D01*
X127322989Y-117261706D01*
X127374500Y-117250500D01*
X132625500Y-117250500D01*
X132692539Y-117270185D01*
X132738294Y-117322989D01*
X132749500Y-117374500D01*
X132749500Y-118298919D01*
X132772117Y-118412621D01*
X132774500Y-118436811D01*
X132774500Y-118495479D01*
X132774501Y-118495490D01*
X132780587Y-118552114D01*
X132825164Y-118671626D01*
X132828372Y-118680226D01*
X132910313Y-118789687D01*
X133019774Y-118871628D01*
X133052458Y-118883818D01*
X133108390Y-118925687D01*
X133132808Y-118991151D01*
X133117957Y-119059424D01*
X133068552Y-119108830D01*
X133052461Y-119116179D01*
X133019774Y-119128371D01*
X132910313Y-119210313D01*
X132828373Y-119319771D01*
X132780587Y-119447889D01*
X132774500Y-119504498D01*
X132774500Y-119563188D01*
X132772117Y-119587380D01*
X132749500Y-119701079D01*
X132749500Y-119701082D01*
X132749500Y-120626082D01*
X132749500Y-121473918D01*
X132749500Y-121473920D01*
X132749499Y-121473920D01*
X132778340Y-121618907D01*
X132778343Y-121618917D01*
X132834912Y-121755488D01*
X132834919Y-121755501D01*
X132917048Y-121878415D01*
X132917051Y-121878419D01*
X133021580Y-121982948D01*
X133021584Y-121982951D01*
X133144498Y-122065080D01*
X133144511Y-122065087D01*
X133281082Y-122121656D01*
X133281087Y-122121658D01*
X133281091Y-122121658D01*
X133281092Y-122121659D01*
X133426079Y-122150500D01*
X133426082Y-122150500D01*
X133573920Y-122150500D01*
X133671462Y-122131096D01*
X133718913Y-122121658D01*
X133855495Y-122065084D01*
X133978416Y-121982951D01*
X134082951Y-121878416D01*
X134165084Y-121755495D01*
X134221658Y-121618913D01*
X134233881Y-121557465D01*
X134250500Y-121473920D01*
X134250500Y-119701079D01*
X134227882Y-119587376D01*
X134225499Y-119563184D01*
X134225499Y-119504518D01*
X134225498Y-119504509D01*
X134219412Y-119447885D01*
X134191258Y-119372404D01*
X134171628Y-119319774D01*
X134089687Y-119210313D01*
X134023911Y-119161074D01*
X133980228Y-119128373D01*
X133980226Y-119128372D01*
X133947538Y-119116179D01*
X133891608Y-119074310D01*
X133867191Y-119008846D01*
X133882043Y-118940573D01*
X133931448Y-118891168D01*
X133947528Y-118883823D01*
X133980226Y-118871628D01*
X134089687Y-118789687D01*
X134171628Y-118680226D01*
X134219412Y-118552114D01*
X134224488Y-118504899D01*
X134225499Y-118495499D01*
X134225499Y-118495490D01*
X134225500Y-118495485D01*
X134225499Y-118436811D01*
X134227882Y-118412618D01*
X134250500Y-118298919D01*
X134250500Y-117374500D01*
X134270185Y-117307461D01*
X134322989Y-117261706D01*
X134374500Y-117250500D01*
X136032227Y-117250500D01*
X136099266Y-117270185D01*
X136145021Y-117322989D01*
X136154965Y-117392147D01*
X136131494Y-117448810D01*
X136078374Y-117519769D01*
X136078372Y-117519773D01*
X136078372Y-117519774D01*
X136034899Y-117636328D01*
X136030587Y-117647889D01*
X136024500Y-117704498D01*
X136024500Y-117705342D01*
X136024439Y-117705646D01*
X136024323Y-117707822D01*
X136024144Y-117707812D01*
X136024144Y-117707818D01*
X136024040Y-117707806D01*
X136024010Y-117707805D01*
X136015062Y-117752790D01*
X136014007Y-117755340D01*
X136003341Y-117781090D01*
X136003340Y-117781093D01*
X135974500Y-117926079D01*
X135974500Y-119692770D01*
X135954815Y-119759809D01*
X135938181Y-119780451D01*
X135667048Y-120051583D01*
X135652552Y-120073279D01*
X135623307Y-120117049D01*
X135615377Y-120128917D01*
X135584916Y-120174504D01*
X135584912Y-120174511D01*
X135528343Y-120311082D01*
X135528340Y-120311092D01*
X135499500Y-120456079D01*
X135499500Y-120456081D01*
X135499500Y-120456082D01*
X135499500Y-124711418D01*
X135499500Y-124711420D01*
X135499499Y-124711420D01*
X135528340Y-124856407D01*
X135528343Y-124856417D01*
X135584912Y-124992988D01*
X135584916Y-124992996D01*
X135607022Y-125026079D01*
X135607023Y-125026082D01*
X135667046Y-125115914D01*
X135667052Y-125115921D01*
X135963181Y-125412049D01*
X135996666Y-125473372D01*
X135999500Y-125499728D01*
X135999500Y-125556516D01*
X136004319Y-125586943D01*
X136014354Y-125650304D01*
X136071950Y-125763342D01*
X136071952Y-125763344D01*
X136071954Y-125763347D01*
X136161652Y-125853045D01*
X136161654Y-125853046D01*
X136161658Y-125853050D01*
X136274694Y-125910645D01*
X136274698Y-125910647D01*
X136368475Y-125925499D01*
X136368481Y-125925500D01*
X136425268Y-125925499D01*
X136492307Y-125945182D01*
X136512950Y-125961818D01*
X136713181Y-126162049D01*
X136746666Y-126223372D01*
X136749500Y-126249730D01*
X136749500Y-127248920D01*
X136772117Y-127362618D01*
X136774500Y-127386810D01*
X136774500Y-127429269D01*
X136777353Y-127459699D01*
X136777353Y-127459701D01*
X136822206Y-127587880D01*
X136822207Y-127587882D01*
X136902850Y-127697150D01*
X137012118Y-127777793D01*
X137037075Y-127786526D01*
X137079484Y-127801366D01*
X137107419Y-127815304D01*
X137144508Y-127840086D01*
X137254001Y-127885439D01*
X137308405Y-127929280D01*
X137330470Y-127995574D01*
X137313191Y-128063273D01*
X137262054Y-128110884D01*
X137254002Y-128114561D01*
X137144505Y-128159915D01*
X137144500Y-128159918D01*
X137107413Y-128184698D01*
X137079482Y-128198634D01*
X137012119Y-128222206D01*
X137012118Y-128222206D01*
X136902850Y-128302850D01*
X136822207Y-128412117D01*
X136822206Y-128412119D01*
X136777353Y-128540298D01*
X136777353Y-128540300D01*
X136774500Y-128570730D01*
X136774500Y-128613188D01*
X136772117Y-128637380D01*
X136749500Y-128751079D01*
X136749500Y-130663332D01*
X136729815Y-130730371D01*
X136677011Y-130776126D01*
X136607853Y-130786070D01*
X136578049Y-130777894D01*
X136573781Y-130776126D01*
X136543709Y-130763670D01*
X136471854Y-130754210D01*
X136400001Y-130744750D01*
X136399999Y-130744750D01*
X136256291Y-130763670D01*
X136256287Y-130763671D01*
X136122377Y-130819137D01*
X136007379Y-130907379D01*
X135919137Y-131022377D01*
X135863671Y-131156287D01*
X135863670Y-131156291D01*
X135847197Y-131281417D01*
X135844750Y-131300000D01*
X135860285Y-131418001D01*
X135863670Y-131443708D01*
X135863671Y-131443712D01*
X135919137Y-131577622D01*
X135919138Y-131577624D01*
X135919139Y-131577625D01*
X136007379Y-131692621D01*
X136122375Y-131780861D01*
X136156532Y-131795009D01*
X136210936Y-131838848D01*
X136233002Y-131905142D01*
X136215724Y-131972841D01*
X136169518Y-132016173D01*
X136169550Y-132016217D01*
X136169204Y-132016468D01*
X136165385Y-132020050D01*
X136161662Y-132021946D01*
X136161652Y-132021954D01*
X136071954Y-132111652D01*
X136071951Y-132111657D01*
X136014352Y-132224698D01*
X135999500Y-132318475D01*
X135999500Y-132375269D01*
X135979815Y-132442308D01*
X135970419Y-132453980D01*
X135970908Y-132454381D01*
X135967043Y-132459089D01*
X135884921Y-132581997D01*
X135884914Y-132582009D01*
X135828342Y-132718587D01*
X135828340Y-132718593D01*
X135799500Y-132863580D01*
X135799500Y-132863582D01*
X135799500Y-132863583D01*
X135799500Y-133011417D01*
X135799500Y-133011419D01*
X135799499Y-133011419D01*
X135828340Y-133156406D01*
X135828343Y-133156416D01*
X135884913Y-133292988D01*
X135884914Y-133292990D01*
X135884916Y-133292994D01*
X135903603Y-133320961D01*
X135924480Y-133387636D01*
X135924500Y-133389850D01*
X135924500Y-135673918D01*
X135924500Y-135673920D01*
X135924499Y-135673920D01*
X135953340Y-135818907D01*
X135953342Y-135818912D01*
X135953342Y-135818913D01*
X136009916Y-135955495D01*
X136034697Y-135992584D01*
X136048634Y-136020516D01*
X136065780Y-136069517D01*
X136072207Y-136087882D01*
X136152850Y-136197150D01*
X136262118Y-136277793D01*
X136304845Y-136292744D01*
X136390299Y-136322646D01*
X136420730Y-136325500D01*
X136420734Y-136325500D01*
X136463190Y-136325500D01*
X136487382Y-136327883D01*
X136601080Y-136350500D01*
X136604753Y-136350500D01*
X136606606Y-136351044D01*
X136607142Y-136351097D01*
X136607131Y-136351198D01*
X136671792Y-136370185D01*
X136717547Y-136422989D01*
X136727491Y-136492147D01*
X136719314Y-136521952D01*
X136663671Y-136656287D01*
X136663670Y-136656291D01*
X136644750Y-136799999D01*
X136644750Y-136800000D01*
X136663670Y-136943708D01*
X136663671Y-136943712D01*
X136719137Y-137077622D01*
X136719138Y-137077624D01*
X136719139Y-137077625D01*
X136807379Y-137192621D01*
X136922375Y-137280861D01*
X136922376Y-137280861D01*
X136922377Y-137280862D01*
X136937044Y-137286937D01*
X137056291Y-137336330D01*
X137183280Y-137353048D01*
X137199999Y-137355250D01*
X137200000Y-137355250D01*
X137200001Y-137355250D01*
X137214977Y-137353278D01*
X137343709Y-137336330D01*
X137477625Y-137280861D01*
X137592621Y-137192621D01*
X137680861Y-137077625D01*
X137736330Y-136943709D01*
X137755250Y-136800000D01*
X137736330Y-136656291D01*
X137680861Y-136522375D01*
X137601123Y-136418459D01*
X137575930Y-136353291D01*
X137575500Y-136342974D01*
X137575500Y-136265932D01*
X137595185Y-136198893D01*
X137647989Y-136153138D01*
X137717147Y-136143194D01*
X137780703Y-136172219D01*
X137799268Y-136192297D01*
X137802850Y-136197150D01*
X137912118Y-136277793D01*
X137954845Y-136292744D01*
X138040299Y-136322646D01*
X138070730Y-136325500D01*
X138070734Y-136325500D01*
X138113191Y-136325500D01*
X138137383Y-136327883D01*
X138251081Y-136350500D01*
X138251083Y-136350500D01*
X138398918Y-136350500D01*
X138512617Y-136327883D01*
X138536809Y-136325500D01*
X138579270Y-136325500D01*
X138609699Y-136322646D01*
X138609701Y-136322646D01*
X138673790Y-136300219D01*
X138737882Y-136277793D01*
X138847150Y-136197150D01*
X138927793Y-136087882D01*
X138934219Y-136069517D01*
X138963580Y-136022787D01*
X138980703Y-136005664D01*
X139032952Y-135953416D01*
X139082186Y-135879729D01*
X139115084Y-135830495D01*
X139150523Y-135744937D01*
X139171659Y-135693912D01*
X139195189Y-135575619D01*
X139200500Y-135548918D01*
X139200500Y-134426082D01*
X139200500Y-132863582D01*
X139200500Y-132863580D01*
X139200500Y-132863579D01*
X139171659Y-132718592D01*
X139171658Y-132718588D01*
X139171658Y-132718587D01*
X139135949Y-132632378D01*
X139115087Y-132582011D01*
X139115080Y-132581998D01*
X139032951Y-132459084D01*
X139029086Y-132454374D01*
X139031191Y-132452646D01*
X139003333Y-132401627D01*
X139000499Y-132375269D01*
X139000499Y-132318482D01*
X139000498Y-132318475D01*
X138985646Y-132224696D01*
X138928050Y-132111658D01*
X138928046Y-132111654D01*
X138928045Y-132111652D01*
X138838347Y-132021954D01*
X138838344Y-132021952D01*
X138838342Y-132021950D01*
X138741961Y-131972841D01*
X138725301Y-131964352D01*
X138631524Y-131949500D01*
X138268482Y-131949500D01*
X138197649Y-131960718D01*
X138174696Y-131964354D01*
X138174695Y-131964354D01*
X138165057Y-131965881D01*
X138164736Y-131963859D01*
X138107478Y-131965489D01*
X138047649Y-131929402D01*
X138016827Y-131866698D01*
X138024799Y-131797285D01*
X138028514Y-131789300D01*
X138035646Y-131775304D01*
X138050500Y-131681519D01*
X138050499Y-131624730D01*
X138070182Y-131557692D01*
X138079586Y-131546036D01*
X138079086Y-131545626D01*
X138082945Y-131540921D01*
X138082951Y-131540916D01*
X138165084Y-131417995D01*
X138221658Y-131281413D01*
X138250500Y-131136418D01*
X138250500Y-128751082D01*
X138250500Y-128751079D01*
X138227883Y-128637380D01*
X138225500Y-128613188D01*
X138225500Y-128570730D01*
X138222646Y-128540300D01*
X138222646Y-128540298D01*
X138177793Y-128412119D01*
X138177792Y-128412117D01*
X138097150Y-128302850D01*
X137987882Y-128222207D01*
X137987880Y-128222206D01*
X137920516Y-128198634D01*
X137892584Y-128184697D01*
X137855495Y-128159916D01*
X137855492Y-128159914D01*
X137855487Y-128159912D01*
X137745998Y-128114561D01*
X137691594Y-128070720D01*
X137669529Y-128004426D01*
X137686808Y-127936727D01*
X137737945Y-127889116D01*
X137745998Y-127885439D01*
X137855488Y-127840087D01*
X137855488Y-127840086D01*
X137855495Y-127840084D01*
X137892582Y-127815302D01*
X137920511Y-127801366D01*
X137987882Y-127777793D01*
X138097150Y-127697150D01*
X138177793Y-127587882D01*
X138200219Y-127523790D01*
X138222646Y-127459701D01*
X138222646Y-127459699D01*
X138225500Y-127429269D01*
X138225500Y-127386810D01*
X138227883Y-127362618D01*
X138250500Y-127248920D01*
X138250500Y-126049499D01*
X138270185Y-125982460D01*
X138322989Y-125936705D01*
X138374496Y-125925499D01*
X138631518Y-125925499D01*
X138725304Y-125910646D01*
X138838342Y-125853050D01*
X138928050Y-125763342D01*
X138985646Y-125650304D01*
X138985646Y-125650302D01*
X138985647Y-125650301D01*
X139000499Y-125556524D01*
X139000500Y-125556519D01*
X139000499Y-125499728D01*
X139020182Y-125432690D01*
X139036809Y-125412056D01*
X139332951Y-125115916D01*
X139392975Y-125026083D01*
X139402773Y-125011419D01*
X140011999Y-125011419D01*
X140040840Y-125156406D01*
X140040843Y-125156416D01*
X140097414Y-125292992D01*
X140097416Y-125292996D01*
X140153602Y-125377084D01*
X140174480Y-125443761D01*
X140174500Y-125445974D01*
X140174500Y-138073918D01*
X140174500Y-138073920D01*
X140174499Y-138073920D01*
X140203340Y-138218907D01*
X140203343Y-138218917D01*
X140230037Y-138283362D01*
X140238765Y-138317556D01*
X140243009Y-138357024D01*
X140290162Y-138483447D01*
X140290164Y-138483450D01*
X140371028Y-138591472D01*
X140479049Y-138672335D01*
X140479052Y-138672337D01*
X140605475Y-138719490D01*
X140605478Y-138719491D01*
X140634818Y-138722645D01*
X140661355Y-138725499D01*
X140661370Y-138725500D01*
X140713190Y-138725500D01*
X140737382Y-138727883D01*
X140851080Y-138750500D01*
X140851082Y-138750500D01*
X140998919Y-138750500D01*
X141112618Y-138727883D01*
X141136810Y-138725500D01*
X141188630Y-138725500D01*
X141188644Y-138725499D01*
X141210523Y-138723146D01*
X141244522Y-138719491D01*
X141370950Y-138672336D01*
X141478972Y-138591472D01*
X141559836Y-138483450D01*
X141596318Y-138385638D01*
X141638189Y-138329704D01*
X141703653Y-138305287D01*
X141771926Y-138320139D01*
X141821332Y-138369544D01*
X141828682Y-138385638D01*
X141865162Y-138483447D01*
X141865164Y-138483450D01*
X141946028Y-138591472D01*
X142054049Y-138672335D01*
X142054052Y-138672337D01*
X142180475Y-138719490D01*
X142180478Y-138719491D01*
X142209818Y-138722645D01*
X142236355Y-138725499D01*
X142236370Y-138725500D01*
X142763630Y-138725500D01*
X142763644Y-138725499D01*
X142785523Y-138723146D01*
X142819522Y-138719491D01*
X142945950Y-138672336D01*
X143053972Y-138591472D01*
X143134836Y-138483450D01*
X143181991Y-138357022D01*
X143187984Y-138301281D01*
X143187999Y-138301144D01*
X143188000Y-138301129D01*
X143188000Y-137894399D01*
X143207685Y-137827360D01*
X143224319Y-137806718D01*
X143337956Y-137693081D01*
X143562975Y-137468063D01*
X143597347Y-137408528D01*
X143612410Y-137382438D01*
X143624765Y-137336330D01*
X143627088Y-137327663D01*
X143633141Y-137305069D01*
X143638000Y-137286936D01*
X143638000Y-137188064D01*
X143638000Y-135742065D01*
X143657685Y-135675026D01*
X143674319Y-135654384D01*
X144012971Y-135315732D01*
X144012974Y-135315729D01*
X144022329Y-135299526D01*
X144062410Y-135230104D01*
X144075205Y-135182352D01*
X144088000Y-135134602D01*
X144088000Y-135035730D01*
X144088000Y-133589752D01*
X144107685Y-133522713D01*
X144124319Y-133502071D01*
X144462971Y-133163419D01*
X144462974Y-133163416D01*
X144462975Y-133163412D01*
X144462978Y-133163410D01*
X144472441Y-133147021D01*
X144512408Y-133077794D01*
X144512407Y-133077794D01*
X144512410Y-133077791D01*
X144538000Y-132982288D01*
X144538000Y-131437439D01*
X144557685Y-131370400D01*
X144574319Y-131349758D01*
X144642670Y-131281407D01*
X144912974Y-131011103D01*
X144912975Y-131011102D01*
X144962410Y-130925478D01*
X144985605Y-130838915D01*
X144988000Y-130829976D01*
X144988000Y-130731104D01*
X144988000Y-129285126D01*
X145007685Y-129218087D01*
X145024319Y-129197445D01*
X145096710Y-129125054D01*
X145362974Y-128858790D01*
X145362975Y-128858789D01*
X145412410Y-128773165D01*
X145438000Y-128677662D01*
X145438000Y-127132813D01*
X145457685Y-127065774D01*
X145474319Y-127045132D01*
X145621546Y-126897905D01*
X145812974Y-126706477D01*
X145812975Y-126706476D01*
X145862410Y-126620852D01*
X145865971Y-126607564D01*
X145879834Y-126555829D01*
X145887999Y-126525354D01*
X145888000Y-126525348D01*
X145888000Y-124980500D01*
X145907685Y-124913461D01*
X145924319Y-124892819D01*
X146092975Y-124724163D01*
X146262974Y-124554164D01*
X146262975Y-124554163D01*
X146312410Y-124468539D01*
X146336578Y-124378342D01*
X146338000Y-124373037D01*
X146338000Y-124274165D01*
X146338000Y-122828187D01*
X146357685Y-122761148D01*
X146374319Y-122740506D01*
X146750470Y-122364355D01*
X146750474Y-122364351D01*
X146751500Y-122362574D01*
X146799910Y-122278726D01*
X146819119Y-122207037D01*
X146825500Y-122183224D01*
X146825500Y-122084352D01*
X146825500Y-120890561D01*
X146845185Y-120823522D01*
X146897989Y-120777767D01*
X146967147Y-120767823D01*
X147030703Y-120796848D01*
X147047869Y-120815067D01*
X147107379Y-120892621D01*
X147222375Y-120980861D01*
X147356291Y-121036330D01*
X147480806Y-121052723D01*
X147499999Y-121055250D01*
X147500000Y-121055250D01*
X147500001Y-121055250D01*
X147519194Y-121052723D01*
X147643709Y-121036330D01*
X147777625Y-120980861D01*
X147892621Y-120892621D01*
X147980861Y-120777625D01*
X148036330Y-120643709D01*
X148053427Y-120513844D01*
X148081694Y-120449949D01*
X148088672Y-120442363D01*
X148800475Y-119730562D01*
X148849911Y-119644937D01*
X148875500Y-119549436D01*
X148875500Y-119450564D01*
X148875500Y-118812000D01*
X148895185Y-118744961D01*
X148947989Y-118699206D01*
X148999500Y-118688000D01*
X149550424Y-118688000D01*
X149617463Y-118707685D01*
X149638106Y-118724320D01*
X149681592Y-118767807D01*
X149681595Y-118767809D01*
X149681597Y-118767811D01*
X149791107Y-118823609D01*
X149791109Y-118823609D01*
X149791111Y-118823610D01*
X149818670Y-118827974D01*
X149881967Y-118838000D01*
X150218032Y-118837999D01*
X150218037Y-118837999D01*
X150218037Y-118837998D01*
X150266771Y-118830280D01*
X150308888Y-118823610D01*
X150308889Y-118823610D01*
X150308890Y-118823609D01*
X150308893Y-118823609D01*
X150418403Y-118767811D01*
X150424246Y-118761968D01*
X150437319Y-118748896D01*
X150498642Y-118715411D01*
X150568334Y-118720395D01*
X150612681Y-118748896D01*
X150631591Y-118767806D01*
X150631595Y-118767809D01*
X150631597Y-118767811D01*
X150741107Y-118823609D01*
X150741109Y-118823609D01*
X150741111Y-118823610D01*
X150768670Y-118827974D01*
X150831967Y-118838000D01*
X151168032Y-118837999D01*
X151168037Y-118837999D01*
X151168037Y-118837998D01*
X151216771Y-118830280D01*
X151258888Y-118823610D01*
X151258889Y-118823610D01*
X151258890Y-118823609D01*
X151258893Y-118823609D01*
X151368403Y-118767811D01*
X151455311Y-118680903D01*
X151511109Y-118571393D01*
X151511201Y-118570816D01*
X151513588Y-118555739D01*
X151525500Y-118480533D01*
X151525499Y-117894468D01*
X151525499Y-117894462D01*
X151511109Y-117803609D01*
X151511109Y-117803607D01*
X151511107Y-117803603D01*
X151508093Y-117794324D01*
X151510246Y-117793624D01*
X151500500Y-117753015D01*
X151500500Y-117663797D01*
X151520185Y-117596758D01*
X151572989Y-117551003D01*
X151640685Y-117540858D01*
X151704533Y-117549264D01*
X151749999Y-117555250D01*
X151750000Y-117555250D01*
X151750001Y-117555250D01*
X151795467Y-117549264D01*
X151893709Y-117536330D01*
X151957427Y-117509937D01*
X152004876Y-117500500D01*
X153040890Y-117500500D01*
X153040892Y-117500500D01*
X153168186Y-117466392D01*
X153282314Y-117400500D01*
X153470995Y-117211817D01*
X153532318Y-117178333D01*
X153558676Y-117175499D01*
X153795481Y-117175499D01*
X153795484Y-117175499D01*
X153852114Y-117169412D01*
X153980226Y-117121628D01*
X154089687Y-117039687D01*
X154171628Y-116930226D01*
X154219412Y-116802114D01*
X154221687Y-116780944D01*
X154225499Y-116745501D01*
X154225499Y-116745494D01*
X154225500Y-116745485D01*
X154225499Y-116204516D01*
X154219412Y-116147886D01*
X154171628Y-116019774D01*
X154089687Y-115910313D01*
X154023508Y-115860772D01*
X153980228Y-115828373D01*
X153980226Y-115828372D01*
X153852114Y-115780588D01*
X153852112Y-115780587D01*
X153852110Y-115780587D01*
X153795493Y-115774500D01*
X153204518Y-115774500D01*
X153204509Y-115774501D01*
X153147885Y-115780587D01*
X153019773Y-115828372D01*
X152910313Y-115910313D01*
X152828373Y-116019771D01*
X152780587Y-116147889D01*
X152774500Y-116204498D01*
X152774500Y-116375500D01*
X152754815Y-116442539D01*
X152702011Y-116488294D01*
X152650500Y-116499500D01*
X152486077Y-116499500D01*
X152419038Y-116479815D01*
X152373283Y-116427011D01*
X152363339Y-116357853D01*
X152392364Y-116294297D01*
X152398396Y-116287819D01*
X152405306Y-116280908D01*
X152405311Y-116280903D01*
X152461109Y-116171393D01*
X152475500Y-116080533D01*
X152475499Y-115494468D01*
X152475499Y-115494466D01*
X152475499Y-115494462D01*
X152461110Y-115403611D01*
X152461110Y-115403610D01*
X152461109Y-115403608D01*
X152461109Y-115403607D01*
X152405311Y-115294097D01*
X152405309Y-115294095D01*
X152405306Y-115294091D01*
X152318408Y-115207193D01*
X152318404Y-115207190D01*
X152318403Y-115207189D01*
X152208893Y-115151391D01*
X152208891Y-115151390D01*
X152208888Y-115151389D01*
X152118033Y-115137000D01*
X151781962Y-115137000D01*
X151781962Y-115137001D01*
X151691111Y-115151389D01*
X151691110Y-115151389D01*
X151581595Y-115207190D01*
X151581591Y-115207193D01*
X151494693Y-115294091D01*
X151494690Y-115294095D01*
X151438889Y-115403611D01*
X151424500Y-115494466D01*
X151424500Y-116080537D01*
X151438889Y-116171388D01*
X151438889Y-116171389D01*
X151438890Y-116171392D01*
X151438891Y-116171393D01*
X151469826Y-116232107D01*
X151494690Y-116280904D01*
X151494693Y-116280908D01*
X151501604Y-116287819D01*
X151535089Y-116349142D01*
X151530105Y-116418834D01*
X151488233Y-116474767D01*
X151422769Y-116499184D01*
X151413923Y-116499500D01*
X151254876Y-116499500D01*
X151207427Y-116490062D01*
X151143709Y-116463670D01*
X151143708Y-116463669D01*
X151143706Y-116463669D01*
X151000001Y-116444750D01*
X150999999Y-116444750D01*
X150856293Y-116463669D01*
X150856291Y-116463670D01*
X150792572Y-116490062D01*
X150745124Y-116499500D01*
X150586077Y-116499500D01*
X150519038Y-116479815D01*
X150473283Y-116427011D01*
X150463339Y-116357853D01*
X150492364Y-116294297D01*
X150498396Y-116287819D01*
X150505306Y-116280908D01*
X150505311Y-116280903D01*
X150561109Y-116171393D01*
X150575500Y-116080533D01*
X150575499Y-115494468D01*
X150575499Y-115494466D01*
X150575499Y-115494462D01*
X150561110Y-115403611D01*
X150561110Y-115403610D01*
X150561109Y-115403608D01*
X150561109Y-115403607D01*
X150505311Y-115294097D01*
X150505309Y-115294095D01*
X150505306Y-115294091D01*
X150418408Y-115207193D01*
X150418405Y-115207191D01*
X150418403Y-115207189D01*
X150312727Y-115153344D01*
X150261933Y-115105371D01*
X150245138Y-115037550D01*
X150267675Y-114971415D01*
X150281336Y-114955187D01*
X150800475Y-114436050D01*
X150806141Y-114426237D01*
X150849911Y-114350425D01*
X150875501Y-114254922D01*
X150875501Y-113880800D01*
X150895186Y-113813761D01*
X150947990Y-113768006D01*
X150999501Y-113756800D01*
X151164676Y-113756800D01*
X151164677Y-113756799D01*
X151237740Y-113742266D01*
X151320601Y-113686901D01*
X151375966Y-113604040D01*
X151375967Y-113604036D01*
X151385402Y-113556608D01*
X151417788Y-113494697D01*
X151478504Y-113460123D01*
X151507019Y-113456800D01*
X152368134Y-113456800D01*
X152368136Y-113456800D01*
X152388051Y-113451463D01*
X152457899Y-113453124D01*
X152515763Y-113492284D01*
X152543270Y-113556511D01*
X152537189Y-113612189D01*
X152527354Y-113640296D01*
X152527353Y-113640300D01*
X152524500Y-113670730D01*
X152524500Y-114329269D01*
X152527353Y-114359699D01*
X152527353Y-114359701D01*
X152570442Y-114482839D01*
X152572207Y-114487882D01*
X152652850Y-114597150D01*
X152762118Y-114677793D01*
X152804491Y-114692620D01*
X152890299Y-114722646D01*
X152920730Y-114725500D01*
X152920734Y-114725500D01*
X153429270Y-114725500D01*
X153459699Y-114722646D01*
X153459701Y-114722646D01*
X153523790Y-114700219D01*
X153587882Y-114677793D01*
X153697150Y-114597150D01*
X153777793Y-114487882D01*
X153811126Y-114392621D01*
X153822646Y-114359701D01*
X153822646Y-114359699D01*
X153825500Y-114329269D01*
X154174500Y-114329269D01*
X154177353Y-114359699D01*
X154177353Y-114359701D01*
X154220442Y-114482839D01*
X154222207Y-114487882D01*
X154302850Y-114597150D01*
X154412118Y-114677793D01*
X154454491Y-114692620D01*
X154540299Y-114722646D01*
X154570730Y-114725500D01*
X154570734Y-114725500D01*
X155079270Y-114725500D01*
X155109699Y-114722646D01*
X155109701Y-114722646D01*
X155173790Y-114700219D01*
X155237882Y-114677793D01*
X155347150Y-114597150D01*
X155396305Y-114530546D01*
X155451949Y-114488298D01*
X155521605Y-114482839D01*
X155543517Y-114489618D01*
X155656291Y-114536330D01*
X155783280Y-114553048D01*
X155799999Y-114555250D01*
X155800000Y-114555250D01*
X155800001Y-114555250D01*
X155814977Y-114553278D01*
X155943709Y-114536330D01*
X156077625Y-114480861D01*
X156192621Y-114392621D01*
X156263692Y-114300000D01*
X161144750Y-114300000D01*
X161163670Y-114443708D01*
X161163671Y-114443712D01*
X161219137Y-114577622D01*
X161219138Y-114577624D01*
X161219139Y-114577625D01*
X161307379Y-114692621D01*
X161422375Y-114780861D01*
X161556291Y-114836330D01*
X161686151Y-114853426D01*
X161750047Y-114881692D01*
X161757646Y-114888684D01*
X163883431Y-117014469D01*
X163916916Y-117075792D01*
X163918652Y-117091946D01*
X163918689Y-117091942D01*
X163938670Y-117243708D01*
X163938671Y-117243712D01*
X163994137Y-117377622D01*
X163994138Y-117377624D01*
X163994139Y-117377625D01*
X164082379Y-117492621D01*
X164197375Y-117580861D01*
X164331291Y-117636330D01*
X164458280Y-117653048D01*
X164474999Y-117655250D01*
X164475000Y-117655250D01*
X164475001Y-117655250D01*
X164489977Y-117653278D01*
X164618709Y-117636330D01*
X164752625Y-117580861D01*
X164867621Y-117492621D01*
X164955861Y-117377625D01*
X165011330Y-117243709D01*
X165030250Y-117100000D01*
X165011330Y-116956291D01*
X164955861Y-116822375D01*
X164867621Y-116707379D01*
X164752625Y-116619139D01*
X164752624Y-116619138D01*
X164752622Y-116619137D01*
X164618712Y-116563671D01*
X164618710Y-116563670D01*
X164618709Y-116563670D01*
X164562773Y-116556305D01*
X164517638Y-116550363D01*
X164453741Y-116522096D01*
X164446143Y-116515105D01*
X162288684Y-114357646D01*
X162255199Y-114296323D01*
X162253428Y-114286163D01*
X162236330Y-114156291D01*
X162231363Y-114144299D01*
X162223894Y-114074830D01*
X162255170Y-114012351D01*
X162315259Y-113976699D01*
X162385084Y-113979193D01*
X162393381Y-113982288D01*
X162402262Y-113985967D01*
X162475321Y-114000499D01*
X162475324Y-114000500D01*
X162475326Y-114000500D01*
X163524676Y-114000500D01*
X163524677Y-114000499D01*
X163597740Y-113985966D01*
X163680601Y-113930601D01*
X163735966Y-113847740D01*
X163750500Y-113774674D01*
X163750500Y-112975326D01*
X163750500Y-112975323D01*
X163750499Y-112975321D01*
X163735967Y-112902264D01*
X163735966Y-112902260D01*
X163718974Y-112876829D01*
X163680601Y-112819399D01*
X163622870Y-112780825D01*
X163597739Y-112764033D01*
X163586456Y-112759360D01*
X163587662Y-112756448D01*
X163542958Y-112733057D01*
X163508392Y-112672337D01*
X163512141Y-112602568D01*
X163514498Y-112596416D01*
X163536330Y-112543709D01*
X163555250Y-112400000D01*
X163536330Y-112256291D01*
X163513014Y-112200000D01*
X164544750Y-112200000D01*
X164552160Y-112256287D01*
X164563670Y-112343708D01*
X164563671Y-112343712D01*
X164619137Y-112477622D01*
X164619138Y-112477624D01*
X164619139Y-112477625D01*
X164707379Y-112592621D01*
X164822375Y-112680861D01*
X164956291Y-112736330D01*
X165083280Y-112753048D01*
X165099999Y-112755250D01*
X165100000Y-112755250D01*
X165100001Y-112755250D01*
X165114977Y-112753278D01*
X165243709Y-112736330D01*
X165377625Y-112680861D01*
X165492621Y-112592621D01*
X165580861Y-112477625D01*
X165636330Y-112343709D01*
X165655250Y-112200000D01*
X165636330Y-112056291D01*
X165580861Y-111922375D01*
X165501123Y-111818459D01*
X165475930Y-111753291D01*
X165475500Y-111742974D01*
X165475500Y-109657026D01*
X165495185Y-109589987D01*
X165501117Y-109581547D01*
X165580861Y-109477625D01*
X165636330Y-109343709D01*
X165655250Y-109200000D01*
X165636330Y-109056291D01*
X165580861Y-108922375D01*
X165492621Y-108807379D01*
X165377625Y-108719139D01*
X165377624Y-108719138D01*
X165377622Y-108719137D01*
X165243712Y-108663671D01*
X165243710Y-108663670D01*
X165243709Y-108663670D01*
X165171854Y-108654210D01*
X165100001Y-108644750D01*
X165099999Y-108644750D01*
X164956291Y-108663670D01*
X164956287Y-108663671D01*
X164822377Y-108719137D01*
X164707379Y-108807379D01*
X164619137Y-108922377D01*
X164563671Y-109056287D01*
X164563670Y-109056291D01*
X164544750Y-109199999D01*
X164544750Y-109200000D01*
X164563670Y-109343708D01*
X164563671Y-109343712D01*
X164619137Y-109477622D01*
X164619138Y-109477624D01*
X164619139Y-109477625D01*
X164698876Y-109581540D01*
X164724070Y-109646709D01*
X164724500Y-109657026D01*
X164724500Y-111742974D01*
X164704815Y-111810013D01*
X164698882Y-111818452D01*
X164655235Y-111875333D01*
X164619137Y-111922377D01*
X164563671Y-112056287D01*
X164563670Y-112056291D01*
X164555431Y-112118875D01*
X164544750Y-112200000D01*
X163513014Y-112200000D01*
X163480861Y-112122375D01*
X163392621Y-112007379D01*
X163277625Y-111919139D01*
X163277624Y-111919138D01*
X163277622Y-111919137D01*
X163143712Y-111863671D01*
X163143710Y-111863670D01*
X163143709Y-111863670D01*
X163071854Y-111854210D01*
X163000001Y-111844750D01*
X162999999Y-111844750D01*
X162856291Y-111863670D01*
X162856287Y-111863671D01*
X162722377Y-111919137D01*
X162607379Y-112007379D01*
X162519137Y-112122377D01*
X162463671Y-112256287D01*
X162463670Y-112256291D01*
X162451094Y-112351817D01*
X162444750Y-112400000D01*
X162459731Y-112513793D01*
X162463670Y-112543708D01*
X162463671Y-112543712D01*
X162485488Y-112596384D01*
X162492957Y-112665854D01*
X162461681Y-112728333D01*
X162412723Y-112757379D01*
X162413544Y-112759360D01*
X162402260Y-112764033D01*
X162319399Y-112819399D01*
X162264033Y-112902260D01*
X162264032Y-112902264D01*
X162249500Y-112975321D01*
X162249500Y-113776309D01*
X162229815Y-113843348D01*
X162177011Y-113889103D01*
X162107853Y-113899047D01*
X162050014Y-113874685D01*
X161977625Y-113819139D01*
X161977623Y-113819138D01*
X161843712Y-113763671D01*
X161843710Y-113763670D01*
X161843709Y-113763670D01*
X161771854Y-113754210D01*
X161700001Y-113744750D01*
X161699999Y-113744750D01*
X161556291Y-113763670D01*
X161556287Y-113763671D01*
X161422377Y-113819137D01*
X161307379Y-113907379D01*
X161219137Y-114022377D01*
X161163671Y-114156287D01*
X161163670Y-114156291D01*
X161144750Y-114299999D01*
X161144750Y-114300000D01*
X156263692Y-114300000D01*
X156280861Y-114277625D01*
X156336330Y-114143709D01*
X156341057Y-114107798D01*
X156369323Y-114043903D01*
X156427647Y-114005431D01*
X156469234Y-114001272D01*
X156469234Y-114000500D01*
X157524676Y-114000500D01*
X157524677Y-114000499D01*
X157597740Y-113985966D01*
X157680601Y-113930601D01*
X157735966Y-113847740D01*
X157750500Y-113774674D01*
X157750500Y-112975326D01*
X157750500Y-112975323D01*
X157750499Y-112975321D01*
X157735967Y-112902264D01*
X157735966Y-112902260D01*
X157718974Y-112876829D01*
X157680601Y-112819399D01*
X157622870Y-112780825D01*
X157597739Y-112764033D01*
X157586456Y-112759360D01*
X157587662Y-112756448D01*
X157542958Y-112733057D01*
X157508392Y-112672337D01*
X157512141Y-112602568D01*
X157514498Y-112596416D01*
X157536330Y-112543709D01*
X157555250Y-112400000D01*
X157536330Y-112256291D01*
X157480861Y-112122375D01*
X157392621Y-112007379D01*
X157277625Y-111919139D01*
X157277624Y-111919138D01*
X157277622Y-111919137D01*
X157143712Y-111863671D01*
X157143710Y-111863670D01*
X157143709Y-111863670D01*
X157071854Y-111854210D01*
X157000001Y-111844750D01*
X156999999Y-111844750D01*
X156856291Y-111863670D01*
X156856287Y-111863671D01*
X156722377Y-111919137D01*
X156607379Y-112007379D01*
X156519137Y-112122377D01*
X156463671Y-112256287D01*
X156463670Y-112256291D01*
X156451094Y-112351817D01*
X156444750Y-112400000D01*
X156459731Y-112513793D01*
X156463670Y-112543708D01*
X156463671Y-112543712D01*
X156485488Y-112596384D01*
X156492957Y-112665854D01*
X156461681Y-112728333D01*
X156412723Y-112757379D01*
X156413544Y-112759360D01*
X156402260Y-112764033D01*
X156319399Y-112819399D01*
X156264033Y-112902260D01*
X156264032Y-112902264D01*
X156249500Y-112975321D01*
X156248903Y-112981386D01*
X156246560Y-112981155D01*
X156229815Y-113038182D01*
X156199207Y-113067390D01*
X156200886Y-113069577D01*
X156194442Y-113074521D01*
X156194439Y-113074524D01*
X156194438Y-113074525D01*
X156194437Y-113074526D01*
X155937173Y-113331789D01*
X155857647Y-113411315D01*
X155796324Y-113444799D01*
X155786153Y-113446572D01*
X155656291Y-113463670D01*
X155656287Y-113463671D01*
X155543525Y-113510378D01*
X155474055Y-113517847D01*
X155411576Y-113486571D01*
X155396303Y-113469450D01*
X155347151Y-113402851D01*
X155237882Y-113322207D01*
X155237880Y-113322206D01*
X155109700Y-113277353D01*
X155079270Y-113274500D01*
X155079266Y-113274500D01*
X154570734Y-113274500D01*
X154570730Y-113274500D01*
X154540300Y-113277353D01*
X154540298Y-113277353D01*
X154412119Y-113322206D01*
X154412117Y-113322207D01*
X154302850Y-113402850D01*
X154222207Y-113512117D01*
X154222206Y-113512119D01*
X154177353Y-113640298D01*
X154177353Y-113640300D01*
X154174500Y-113670730D01*
X154174500Y-114329269D01*
X153825500Y-114329269D01*
X153825500Y-113670730D01*
X153822646Y-113640300D01*
X153822646Y-113640298D01*
X153784391Y-113530974D01*
X153777793Y-113512118D01*
X153697150Y-113402850D01*
X153642994Y-113362881D01*
X153600866Y-113331789D01*
X153558615Y-113276141D01*
X153550500Y-113232019D01*
X153550500Y-112545846D01*
X153550499Y-112545842D01*
X153549927Y-112543709D01*
X153539486Y-112504742D01*
X153524910Y-112450343D01*
X153524910Y-112450342D01*
X153475475Y-112364718D01*
X153405562Y-112294805D01*
X152666772Y-111556015D01*
X152666771Y-111556014D01*
X152661024Y-111550267D01*
X152662685Y-111548605D01*
X152628578Y-111501897D01*
X152624423Y-111432151D01*
X152658634Y-111371231D01*
X152720351Y-111338477D01*
X152761449Y-111337009D01*
X152875164Y-111351980D01*
X152899999Y-111355250D01*
X152900000Y-111355250D01*
X152900001Y-111355250D01*
X152914977Y-111353278D01*
X153043709Y-111336330D01*
X153177625Y-111280861D01*
X153292621Y-111192621D01*
X153380861Y-111077625D01*
X153427571Y-110964855D01*
X153471409Y-110910455D01*
X153537702Y-110888389D01*
X153585461Y-110896128D01*
X153647886Y-110919412D01*
X153704515Y-110925500D01*
X154295484Y-110925499D01*
X154352114Y-110919412D01*
X154480226Y-110871628D01*
X154589687Y-110789687D01*
X154671628Y-110680226D01*
X154719412Y-110552114D01*
X154722240Y-110525812D01*
X154725499Y-110495501D01*
X154725499Y-110495494D01*
X154725500Y-110495485D01*
X154725499Y-109954516D01*
X154719412Y-109897886D01*
X154671628Y-109769774D01*
X154606212Y-109682388D01*
X154581796Y-109616925D01*
X154596648Y-109548652D01*
X154646053Y-109499247D01*
X154714326Y-109484395D01*
X154752932Y-109493518D01*
X154856291Y-109536330D01*
X154983280Y-109553048D01*
X154999999Y-109555250D01*
X155000000Y-109555250D01*
X155000001Y-109555250D01*
X155014977Y-109553278D01*
X155143709Y-109536330D01*
X155277625Y-109480861D01*
X155392621Y-109392621D01*
X155480861Y-109277625D01*
X155536330Y-109143709D01*
X155555250Y-109000000D01*
X155536330Y-108856291D01*
X155480861Y-108722375D01*
X155392621Y-108607379D01*
X155277625Y-108519139D01*
X155277624Y-108519138D01*
X155277622Y-108519137D01*
X155214985Y-108493193D01*
X155160581Y-108449353D01*
X155138516Y-108383059D01*
X155155795Y-108315359D01*
X155206932Y-108267749D01*
X155248554Y-108255412D01*
X155418055Y-108236314D01*
X155418057Y-108236313D01*
X155418059Y-108236313D01*
X155577690Y-108180456D01*
X155577692Y-108180454D01*
X155577694Y-108180454D01*
X155577697Y-108180452D01*
X155720884Y-108090481D01*
X155720885Y-108090480D01*
X155720890Y-108090477D01*
X155840477Y-107970890D01*
X155841406Y-107969412D01*
X155930452Y-107827697D01*
X155930454Y-107827694D01*
X155930454Y-107827692D01*
X155930456Y-107827690D01*
X155986313Y-107668059D01*
X155986313Y-107668058D01*
X155986314Y-107668056D01*
X156001780Y-107530791D01*
X156028846Y-107466378D01*
X156086441Y-107426822D01*
X156156278Y-107424685D01*
X156216185Y-107460643D01*
X156247140Y-107523281D01*
X156248220Y-107530791D01*
X156263685Y-107668056D01*
X156319545Y-107827694D01*
X156319547Y-107827697D01*
X156409518Y-107970884D01*
X156409523Y-107970890D01*
X156529109Y-108090476D01*
X156529115Y-108090481D01*
X156672302Y-108180452D01*
X156672305Y-108180454D01*
X156672309Y-108180455D01*
X156672310Y-108180456D01*
X156726481Y-108199411D01*
X156831943Y-108236314D01*
X156999997Y-108255249D01*
X157000000Y-108255249D01*
X157000003Y-108255249D01*
X157168056Y-108236314D01*
X157181028Y-108231775D01*
X157307285Y-108187595D01*
X157377063Y-108184035D01*
X157435920Y-108216957D01*
X157949525Y-108730562D01*
X158019438Y-108800475D01*
X158105059Y-108849908D01*
X158105062Y-108849910D01*
X158152811Y-108862705D01*
X158152812Y-108862705D01*
X158162903Y-108865408D01*
X158200564Y-108875500D01*
X158200565Y-108875500D01*
X158200566Y-108875500D01*
X161447538Y-108875500D01*
X161514577Y-108895185D01*
X161560332Y-108947989D01*
X161570276Y-109017147D01*
X161541251Y-109080703D01*
X161494990Y-109114061D01*
X161422377Y-109144137D01*
X161399248Y-109161885D01*
X161318459Y-109223876D01*
X161253291Y-109249070D01*
X161242974Y-109249500D01*
X157857073Y-109249500D01*
X157790034Y-109229815D01*
X157744279Y-109177011D01*
X157737413Y-109155755D01*
X157735966Y-109152260D01*
X157730538Y-109144137D01*
X157680601Y-109069399D01*
X157597740Y-109014034D01*
X157597739Y-109014033D01*
X157597735Y-109014032D01*
X157524677Y-108999500D01*
X157524674Y-108999500D01*
X156475326Y-108999500D01*
X156475323Y-108999500D01*
X156402264Y-109014032D01*
X156402260Y-109014033D01*
X156319399Y-109069399D01*
X156264033Y-109152260D01*
X156264032Y-109152264D01*
X156249500Y-109225321D01*
X156249500Y-110024678D01*
X156264032Y-110097735D01*
X156264033Y-110097739D01*
X156264034Y-110097740D01*
X156319399Y-110180601D01*
X156402260Y-110235966D01*
X156402264Y-110235967D01*
X156475321Y-110250499D01*
X156475324Y-110250500D01*
X156475326Y-110250500D01*
X157524676Y-110250500D01*
X157524677Y-110250499D01*
X157597740Y-110235966D01*
X157680601Y-110180601D01*
X157735966Y-110097740D01*
X157735966Y-110097738D01*
X157740640Y-110086456D01*
X157742334Y-110087157D01*
X157767843Y-110038396D01*
X157828559Y-110003823D01*
X157857073Y-110000500D01*
X161242974Y-110000500D01*
X161310013Y-110020185D01*
X161318452Y-110026117D01*
X161422375Y-110105861D01*
X161556291Y-110161330D01*
X161683280Y-110178048D01*
X161699999Y-110180250D01*
X161700000Y-110180250D01*
X161700001Y-110180250D01*
X161714977Y-110178278D01*
X161843709Y-110161330D01*
X161977625Y-110105861D01*
X162069308Y-110035509D01*
X162134477Y-110010316D01*
X162202921Y-110024354D01*
X162252911Y-110073168D01*
X162258088Y-110086982D01*
X162259360Y-110086456D01*
X162264033Y-110097739D01*
X162264034Y-110097740D01*
X162319399Y-110180601D01*
X162402260Y-110235966D01*
X162402264Y-110235967D01*
X162475321Y-110250499D01*
X162475324Y-110250500D01*
X162475326Y-110250500D01*
X163524676Y-110250500D01*
X163524677Y-110250499D01*
X163597740Y-110235966D01*
X163680601Y-110180601D01*
X163735966Y-110097740D01*
X163750500Y-110024674D01*
X163750500Y-109225326D01*
X163750500Y-109225323D01*
X163750499Y-109225321D01*
X163735967Y-109152264D01*
X163735966Y-109152260D01*
X163730538Y-109144137D01*
X163680601Y-109069399D01*
X163597740Y-109014034D01*
X163597739Y-109014033D01*
X163597735Y-109014032D01*
X163524677Y-108999500D01*
X163524674Y-108999500D01*
X162475326Y-108999500D01*
X162475323Y-108999500D01*
X162402264Y-109014032D01*
X162402260Y-109014033D01*
X162319399Y-109069399D01*
X162264033Y-109152260D01*
X162259360Y-109163544D01*
X162255356Y-109161885D01*
X162232487Y-109203782D01*
X162171169Y-109237276D01*
X162101477Y-109232301D01*
X162069308Y-109214489D01*
X161977625Y-109144139D01*
X161977623Y-109144137D01*
X161870953Y-109099954D01*
X161816549Y-109056113D01*
X161794484Y-108989819D01*
X161811763Y-108922120D01*
X161862900Y-108874509D01*
X161886318Y-108865616D01*
X161892713Y-108863903D01*
X161897180Y-108862707D01*
X161897182Y-108862705D01*
X161897186Y-108862705D01*
X161944938Y-108849910D01*
X162030562Y-108800475D01*
X162100475Y-108730562D01*
X162100474Y-108730562D01*
X162159043Y-108671993D01*
X163050475Y-107780563D01*
X163060902Y-107762501D01*
X163111468Y-107714285D01*
X163168290Y-107700500D01*
X163449672Y-107700500D01*
X163449674Y-107700500D01*
X163475810Y-107695301D01*
X163524190Y-107695301D01*
X163550326Y-107700500D01*
X163550328Y-107700500D01*
X163949676Y-107700500D01*
X164022735Y-107685967D01*
X164022735Y-107685966D01*
X164022740Y-107685966D01*
X164022744Y-107685963D01*
X164027086Y-107684165D01*
X164096555Y-107676693D01*
X164150031Y-107700349D01*
X164222373Y-107755860D01*
X164222374Y-107755860D01*
X164222375Y-107755861D01*
X164356291Y-107811330D01*
X164483280Y-107828048D01*
X164499999Y-107830250D01*
X164500000Y-107830250D01*
X164500001Y-107830250D01*
X164514977Y-107828278D01*
X164643709Y-107811330D01*
X164742015Y-107770611D01*
X164811484Y-107763142D01*
X164873963Y-107794417D01*
X164888733Y-107810860D01*
X164889085Y-107811330D01*
X164910313Y-107839687D01*
X165019774Y-107921628D01*
X165147886Y-107969412D01*
X165204515Y-107975500D01*
X165795484Y-107975499D01*
X165852114Y-107969412D01*
X165980226Y-107921628D01*
X166089687Y-107839687D01*
X166171628Y-107730226D01*
X166219412Y-107602114D01*
X166221732Y-107580537D01*
X166225499Y-107545501D01*
X166225499Y-107545494D01*
X166225500Y-107545485D01*
X166225499Y-107004516D01*
X166219412Y-106947886D01*
X166217337Y-106942324D01*
X166195463Y-106883678D01*
X166171628Y-106819774D01*
X166089687Y-106710313D01*
X166023369Y-106660668D01*
X165980228Y-106628373D01*
X165980226Y-106628372D01*
X165852114Y-106580588D01*
X165852112Y-106580587D01*
X165852110Y-106580587D01*
X165795493Y-106574500D01*
X165204518Y-106574500D01*
X165204509Y-106574501D01*
X165147887Y-106580587D01*
X165108362Y-106595330D01*
X165038670Y-106600314D01*
X164977347Y-106566829D01*
X164943862Y-106505506D01*
X164942089Y-106462964D01*
X164955250Y-106363000D01*
X164936330Y-106219291D01*
X164880861Y-106085375D01*
X164792621Y-105970379D01*
X164677625Y-105882139D01*
X164677624Y-105882138D01*
X164677622Y-105882137D01*
X164543712Y-105826671D01*
X164543710Y-105826670D01*
X164543709Y-105826670D01*
X164471854Y-105817210D01*
X164400001Y-105807750D01*
X164399999Y-105807750D01*
X164256291Y-105826670D01*
X164177357Y-105859364D01*
X164107888Y-105866831D01*
X164061019Y-105847906D01*
X164047739Y-105839033D01*
X164047740Y-105839033D01*
X163974676Y-105824500D01*
X163974674Y-105824500D01*
X163799500Y-105824500D01*
X163732461Y-105804815D01*
X163686706Y-105752011D01*
X163675500Y-105700500D01*
X163675500Y-105525323D01*
X163675499Y-105525321D01*
X163660967Y-105452264D01*
X163660966Y-105452260D01*
X163644608Y-105427778D01*
X163605601Y-105369399D01*
X163550235Y-105332405D01*
X163522739Y-105314033D01*
X163522735Y-105314032D01*
X163449677Y-105299500D01*
X163449674Y-105299500D01*
X163315957Y-105299500D01*
X163248918Y-105279815D01*
X163203163Y-105227011D01*
X163193219Y-105157853D01*
X163201396Y-105128048D01*
X163214088Y-105097407D01*
X163236330Y-105043709D01*
X163255250Y-104900000D01*
X163236330Y-104756291D01*
X163180861Y-104622375D01*
X163092621Y-104507379D01*
X162977625Y-104419139D01*
X162977624Y-104419138D01*
X162977622Y-104419137D01*
X162843712Y-104363671D01*
X162843710Y-104363670D01*
X162843709Y-104363670D01*
X162723319Y-104347820D01*
X162700001Y-104344750D01*
X162699999Y-104344750D01*
X162556291Y-104363670D01*
X162468290Y-104400120D01*
X162398821Y-104407587D01*
X162336342Y-104376312D01*
X162300690Y-104316222D01*
X162303185Y-104246397D01*
X162333156Y-104197879D01*
X162384294Y-104146741D01*
X162445615Y-104113258D01*
X162455781Y-104111485D01*
X162585651Y-104094388D01*
X162719567Y-104038919D01*
X162834563Y-103950679D01*
X162922803Y-103835683D01*
X162978272Y-103701767D01*
X162997192Y-103558058D01*
X162978272Y-103414349D01*
X162922803Y-103280433D01*
X162834563Y-103165437D01*
X162719567Y-103077197D01*
X162719566Y-103077196D01*
X162719564Y-103077195D01*
X162585654Y-103021729D01*
X162585652Y-103021728D01*
X162585651Y-103021728D01*
X162513796Y-103012268D01*
X162441943Y-103002808D01*
X162441941Y-103002808D01*
X162298233Y-103021728D01*
X162298229Y-103021729D01*
X162164319Y-103077195D01*
X162049321Y-103165437D01*
X161961079Y-103280435D01*
X161905613Y-103414345D01*
X161905612Y-103414349D01*
X161888514Y-103544211D01*
X161860247Y-103608107D01*
X161853256Y-103615705D01*
X161337180Y-104131781D01*
X161275857Y-104165266D01*
X161206165Y-104160282D01*
X161150232Y-104118410D01*
X161125815Y-104052946D01*
X161125499Y-104044120D01*
X161125499Y-103900822D01*
X161125160Y-103898250D01*
X161119499Y-103855243D01*
X161119499Y-103855240D01*
X161094860Y-103802403D01*
X161084369Y-103733327D01*
X161094858Y-103697601D01*
X161119499Y-103644760D01*
X161125500Y-103599179D01*
X161125499Y-103400822D01*
X161125293Y-103399260D01*
X161120609Y-103363671D01*
X161119499Y-103355240D01*
X161094860Y-103302403D01*
X161084369Y-103233327D01*
X161094858Y-103197601D01*
X161119499Y-103144760D01*
X161125500Y-103099179D01*
X161125499Y-103000000D01*
X164394785Y-103000000D01*
X164413602Y-103203082D01*
X164469417Y-103399247D01*
X164469422Y-103399260D01*
X164560327Y-103581821D01*
X164683237Y-103744581D01*
X164833958Y-103881980D01*
X164833960Y-103881982D01*
X164897988Y-103921626D01*
X165007363Y-103989348D01*
X165197544Y-104063024D01*
X165398024Y-104100500D01*
X165398026Y-104100500D01*
X165601974Y-104100500D01*
X165601976Y-104100500D01*
X165802456Y-104063024D01*
X165992637Y-103989348D01*
X166166041Y-103881981D01*
X166305112Y-103755201D01*
X166316762Y-103744581D01*
X166327601Y-103730228D01*
X166439673Y-103581821D01*
X166530582Y-103399250D01*
X166586397Y-103203083D01*
X166605215Y-103000000D01*
X166596025Y-102900827D01*
X166586397Y-102796917D01*
X166568209Y-102732995D01*
X166530582Y-102600750D01*
X166529804Y-102599188D01*
X166480228Y-102499625D01*
X166439673Y-102418179D01*
X166350787Y-102300475D01*
X166316762Y-102255418D01*
X166166041Y-102118019D01*
X166166039Y-102118017D01*
X165992642Y-102010655D01*
X165992635Y-102010651D01*
X165871364Y-101963671D01*
X165802456Y-101936976D01*
X165601976Y-101899500D01*
X165398024Y-101899500D01*
X165197544Y-101936976D01*
X165197541Y-101936976D01*
X165197541Y-101936977D01*
X165007364Y-102010651D01*
X165007357Y-102010655D01*
X164833960Y-102118017D01*
X164833958Y-102118019D01*
X164683237Y-102255418D01*
X164560327Y-102418178D01*
X164469422Y-102600739D01*
X164469417Y-102600752D01*
X164413602Y-102796917D01*
X164394785Y-102999999D01*
X164394785Y-103000000D01*
X161125499Y-103000000D01*
X161125499Y-102900822D01*
X161119499Y-102855240D01*
X161094860Y-102802403D01*
X161084369Y-102733327D01*
X161094858Y-102697601D01*
X161119499Y-102644760D01*
X161125500Y-102599179D01*
X161125499Y-102499499D01*
X161145183Y-102432462D01*
X161197986Y-102386706D01*
X161249499Y-102375500D01*
X161549435Y-102375500D01*
X161549436Y-102375500D01*
X161597186Y-102362705D01*
X161644938Y-102349910D01*
X161730562Y-102300475D01*
X161800475Y-102230562D01*
X161800474Y-102230562D01*
X161859043Y-102171993D01*
X163159219Y-100871819D01*
X163220542Y-100838334D01*
X163246900Y-100835500D01*
X164380815Y-100835500D01*
X164447854Y-100855185D01*
X164491813Y-100904225D01*
X164560327Y-101041821D01*
X164599127Y-101093200D01*
X164683237Y-101204581D01*
X164833958Y-101341980D01*
X164833960Y-101341982D01*
X164843082Y-101347630D01*
X165007363Y-101449348D01*
X165197544Y-101523024D01*
X165398024Y-101560500D01*
X165398026Y-101560500D01*
X165601974Y-101560500D01*
X165601976Y-101560500D01*
X165802456Y-101523024D01*
X165992637Y-101449348D01*
X166166041Y-101341981D01*
X166316764Y-101204579D01*
X166439673Y-101041821D01*
X166530582Y-100859250D01*
X166586397Y-100663083D01*
X166605215Y-100460000D01*
X166600131Y-100405139D01*
X166586397Y-100256917D01*
X166572146Y-100206831D01*
X166530582Y-100060750D01*
X166527843Y-100055250D01*
X166472145Y-99943392D01*
X166439673Y-99878179D01*
X166363736Y-99777622D01*
X166316762Y-99715418D01*
X166166041Y-99578019D01*
X166166039Y-99578017D01*
X165992642Y-99470655D01*
X165992635Y-99470651D01*
X165892552Y-99431879D01*
X165802456Y-99396976D01*
X165601976Y-99359500D01*
X165398024Y-99359500D01*
X165346460Y-99369139D01*
X165197536Y-99396977D01*
X165107443Y-99431879D01*
X165037820Y-99437740D01*
X164976080Y-99405030D01*
X164974970Y-99403933D01*
X164711819Y-99140782D01*
X164678334Y-99079459D01*
X164675500Y-99053101D01*
X164675500Y-98926490D01*
X164695185Y-98859451D01*
X164747989Y-98813696D01*
X164817147Y-98803752D01*
X164864777Y-98821063D01*
X164902751Y-98844575D01*
X165007363Y-98909348D01*
X165197544Y-98983024D01*
X165398024Y-99020500D01*
X165398026Y-99020500D01*
X165601974Y-99020500D01*
X165601976Y-99020500D01*
X165802456Y-98983024D01*
X165992637Y-98909348D01*
X166166041Y-98801981D01*
X166316764Y-98664579D01*
X166439673Y-98501821D01*
X166530582Y-98319250D01*
X166586397Y-98123083D01*
X166605215Y-97920000D01*
X166586397Y-97716917D01*
X166530582Y-97520750D01*
X166519025Y-97497541D01*
X166475591Y-97410312D01*
X166439673Y-97338179D01*
X166344796Y-97212541D01*
X166316762Y-97175418D01*
X166166041Y-97038019D01*
X166166039Y-97038017D01*
X165992642Y-96930655D01*
X165992635Y-96930651D01*
X165895252Y-96892925D01*
X165802456Y-96856976D01*
X165601976Y-96819500D01*
X165398024Y-96819500D01*
X165197544Y-96856976D01*
X165197541Y-96856976D01*
X165197541Y-96856977D01*
X165007364Y-96930651D01*
X165007357Y-96930655D01*
X164864777Y-97018936D01*
X164797416Y-97037491D01*
X164730717Y-97016683D01*
X164685856Y-96963118D01*
X164675500Y-96913509D01*
X164675500Y-96730927D01*
X164671273Y-96715154D01*
X164671272Y-96715150D01*
X164655306Y-96655563D01*
X164655306Y-96655561D01*
X164649911Y-96635427D01*
X164649910Y-96635425D01*
X164649910Y-96635424D01*
X164600475Y-96549800D01*
X164530562Y-96479887D01*
X162285562Y-94234887D01*
X162252077Y-94173564D01*
X162257061Y-94103872D01*
X162298933Y-94047939D01*
X162300358Y-94046888D01*
X162341757Y-94016810D01*
X162341757Y-94016809D01*
X162341761Y-94016807D01*
X162501807Y-93856761D01*
X162588205Y-93737844D01*
X164150000Y-93737844D01*
X164156401Y-93797372D01*
X164156403Y-93797379D01*
X164206645Y-93932086D01*
X164206649Y-93932093D01*
X164292809Y-94047187D01*
X164292812Y-94047190D01*
X164407906Y-94133350D01*
X164407913Y-94133354D01*
X164542620Y-94183596D01*
X164542627Y-94183598D01*
X164602155Y-94189999D01*
X164602172Y-94190000D01*
X164895612Y-94190000D01*
X164962651Y-94209685D01*
X165008406Y-94262489D01*
X165018350Y-94331647D01*
X164989325Y-94395203D01*
X164960889Y-94419427D01*
X164833960Y-94498017D01*
X164833958Y-94498019D01*
X164683237Y-94635418D01*
X164560327Y-94798178D01*
X164469422Y-94980739D01*
X164469417Y-94980752D01*
X164413602Y-95176917D01*
X164394785Y-95379999D01*
X164394785Y-95380000D01*
X164413602Y-95583082D01*
X164469417Y-95779247D01*
X164469422Y-95779260D01*
X164560327Y-95961821D01*
X164683237Y-96124581D01*
X164833958Y-96261980D01*
X164833960Y-96261982D01*
X164883436Y-96292616D01*
X165007363Y-96369348D01*
X165197544Y-96443024D01*
X165398024Y-96480500D01*
X165398026Y-96480500D01*
X165601974Y-96480500D01*
X165601976Y-96480500D01*
X165802456Y-96443024D01*
X165992637Y-96369348D01*
X166166041Y-96261981D01*
X166316764Y-96124579D01*
X166439673Y-95961821D01*
X166530582Y-95779250D01*
X166586397Y-95583083D01*
X166605215Y-95380000D01*
X166598850Y-95311314D01*
X166586397Y-95176917D01*
X166583436Y-95166511D01*
X166530582Y-94980750D01*
X166439673Y-94798179D01*
X166316764Y-94635421D01*
X166316762Y-94635418D01*
X166166041Y-94498019D01*
X166166039Y-94498017D01*
X166039111Y-94419427D01*
X165992475Y-94367399D01*
X165981371Y-94298417D01*
X166009324Y-94234383D01*
X166067459Y-94195627D01*
X166104388Y-94190000D01*
X166397828Y-94190000D01*
X166397844Y-94189999D01*
X166457372Y-94183598D01*
X166457379Y-94183596D01*
X166592086Y-94133354D01*
X166592093Y-94133350D01*
X166707187Y-94047190D01*
X166707190Y-94047187D01*
X166793350Y-93932093D01*
X166793354Y-93932086D01*
X166843596Y-93797379D01*
X166843598Y-93797372D01*
X166849999Y-93737844D01*
X166850000Y-93737827D01*
X166850000Y-93090000D01*
X165933012Y-93090000D01*
X165965925Y-93032993D01*
X166000000Y-92905826D01*
X166000000Y-92774174D01*
X165965925Y-92647007D01*
X165933012Y-92590000D01*
X166850000Y-92590000D01*
X166850000Y-91942172D01*
X166849999Y-91942155D01*
X166843598Y-91882627D01*
X166843596Y-91882620D01*
X166793354Y-91747913D01*
X166793350Y-91747906D01*
X166707190Y-91632812D01*
X166707187Y-91632809D01*
X166592093Y-91546649D01*
X166592086Y-91546645D01*
X166457379Y-91496403D01*
X166457372Y-91496401D01*
X166397844Y-91490000D01*
X165750000Y-91490000D01*
X165750000Y-92406988D01*
X165692993Y-92374075D01*
X165565826Y-92340000D01*
X165434174Y-92340000D01*
X165307007Y-92374075D01*
X165250000Y-92406988D01*
X165250000Y-91490000D01*
X164602155Y-91490000D01*
X164542627Y-91496401D01*
X164542620Y-91496403D01*
X164407913Y-91546645D01*
X164407906Y-91546649D01*
X164292812Y-91632809D01*
X164292809Y-91632812D01*
X164206649Y-91747906D01*
X164206645Y-91747913D01*
X164156403Y-91882620D01*
X164156401Y-91882627D01*
X164150000Y-91942155D01*
X164150000Y-92590000D01*
X165066988Y-92590000D01*
X165034075Y-92647007D01*
X165000000Y-92774174D01*
X165000000Y-92905826D01*
X165034075Y-93032993D01*
X165066988Y-93090000D01*
X164150000Y-93090000D01*
X164150000Y-93737844D01*
X162588205Y-93737844D01*
X162634845Y-93673650D01*
X162737600Y-93471981D01*
X162762476Y-93395420D01*
X162807541Y-93256725D01*
X162807541Y-93256724D01*
X162807542Y-93256721D01*
X162842950Y-93033169D01*
X162842950Y-92806831D01*
X162807542Y-92583279D01*
X162807541Y-92583275D01*
X162807541Y-92583274D01*
X162737601Y-92368021D01*
X162737599Y-92368018D01*
X162723681Y-92340701D01*
X162634845Y-92166350D01*
X162501807Y-91983239D01*
X162341761Y-91823193D01*
X162158650Y-91690155D01*
X161956981Y-91587400D01*
X161956978Y-91587398D01*
X161741723Y-91517458D01*
X161568362Y-91490000D01*
X161518169Y-91482050D01*
X161291831Y-91482050D01*
X161241638Y-91490000D01*
X161068277Y-91517458D01*
X161068274Y-91517458D01*
X160853021Y-91587398D01*
X160853018Y-91587400D01*
X160651349Y-91690155D01*
X160571853Y-91747913D01*
X160468239Y-91823193D01*
X160468237Y-91823195D01*
X160468236Y-91823195D01*
X160308195Y-91983236D01*
X160308195Y-91983237D01*
X160308193Y-91983239D01*
X160275307Y-92028503D01*
X160175155Y-92166349D01*
X160072400Y-92368018D01*
X160072398Y-92368021D01*
X160002458Y-92583274D01*
X160002458Y-92583277D01*
X160002458Y-92583279D01*
X159967050Y-92806831D01*
X159967050Y-93033169D01*
X159976051Y-93090000D01*
X160002458Y-93256722D01*
X160002458Y-93256725D01*
X160072398Y-93471978D01*
X160072399Y-93471981D01*
X160109200Y-93544205D01*
X160122096Y-93612874D01*
X160095820Y-93677615D01*
X160038713Y-93717872D01*
X159998715Y-93724500D01*
X159993050Y-93724500D01*
X159926011Y-93704815D01*
X159910823Y-93693315D01*
X159868636Y-93655940D01*
X159730112Y-93583238D01*
X159578220Y-93545800D01*
X159575809Y-93545800D01*
X159574108Y-93545300D01*
X159570776Y-93544896D01*
X159570843Y-93544341D01*
X159508770Y-93526115D01*
X159463015Y-93473311D01*
X159453071Y-93404153D01*
X159472707Y-93352909D01*
X159525916Y-93273275D01*
X159525916Y-93273274D01*
X159525920Y-93273269D01*
X159582140Y-93137542D01*
X159610800Y-92993455D01*
X159610800Y-92846545D01*
X159582140Y-92702458D01*
X159525920Y-92566731D01*
X159525919Y-92566730D01*
X159525916Y-92566724D01*
X159444301Y-92444580D01*
X159444298Y-92444576D01*
X159340423Y-92340701D01*
X159340419Y-92340698D01*
X159218275Y-92259083D01*
X159218266Y-92259078D01*
X159082544Y-92202861D01*
X159082545Y-92202861D01*
X159082542Y-92202860D01*
X159082538Y-92202859D01*
X159082534Y-92202858D01*
X158938459Y-92174200D01*
X158938455Y-92174200D01*
X158791545Y-92174200D01*
X158791540Y-92174200D01*
X158647465Y-92202858D01*
X158647455Y-92202861D01*
X158511733Y-92259078D01*
X158511724Y-92259083D01*
X158389580Y-92340698D01*
X158389576Y-92340701D01*
X158285701Y-92444576D01*
X158285698Y-92444580D01*
X158204083Y-92566724D01*
X158204078Y-92566733D01*
X158147861Y-92702455D01*
X158147858Y-92702465D01*
X158119200Y-92846540D01*
X158119200Y-92993459D01*
X158147858Y-93137534D01*
X158147861Y-93137544D01*
X158204078Y-93273266D01*
X158204083Y-93273275D01*
X158285698Y-93395419D01*
X158285701Y-93395423D01*
X158389576Y-93499298D01*
X158389580Y-93499301D01*
X158511724Y-93580916D01*
X158511733Y-93580921D01*
X158536800Y-93591304D01*
X158647458Y-93637140D01*
X158791540Y-93665799D01*
X158791544Y-93665800D01*
X158842806Y-93665800D01*
X158909845Y-93685485D01*
X158955600Y-93738289D01*
X158965544Y-93807447D01*
X158944856Y-93860240D01*
X158925401Y-93888425D01*
X158925400Y-93888426D01*
X158869926Y-94034697D01*
X158869925Y-94034703D01*
X158864311Y-94080946D01*
X158836690Y-94145124D01*
X158778756Y-94184181D01*
X158741215Y-94190000D01*
X158230000Y-94190000D01*
X158230000Y-94629601D01*
X158210315Y-94696640D01*
X158157511Y-94742395D01*
X158088353Y-94752339D01*
X158024797Y-94723314D01*
X158018319Y-94717282D01*
X157488259Y-94187222D01*
X157488258Y-94187221D01*
X157407449Y-94140566D01*
X157402636Y-94137787D01*
X157395127Y-94134677D01*
X157395717Y-94133250D01*
X157343913Y-94101674D01*
X157313383Y-94038827D01*
X157321677Y-93969451D01*
X157347980Y-93930587D01*
X157421807Y-93856761D01*
X157554845Y-93673650D01*
X157657600Y-93471981D01*
X157682476Y-93395420D01*
X157727541Y-93256725D01*
X157727541Y-93256724D01*
X157727542Y-93256721D01*
X157762950Y-93033169D01*
X157762950Y-92806831D01*
X157727542Y-92583279D01*
X157727541Y-92583275D01*
X157727541Y-92583274D01*
X157657601Y-92368021D01*
X157657599Y-92368018D01*
X157643681Y-92340701D01*
X157554845Y-92166350D01*
X157421807Y-91983239D01*
X157261761Y-91823193D01*
X157078650Y-91690155D01*
X156876981Y-91587400D01*
X156876978Y-91587398D01*
X156661723Y-91517458D01*
X156488362Y-91490000D01*
X156438169Y-91482050D01*
X156211831Y-91482050D01*
X156161638Y-91490000D01*
X155988277Y-91517458D01*
X155988274Y-91517458D01*
X155773021Y-91587398D01*
X155773018Y-91587400D01*
X155571349Y-91690155D01*
X155491853Y-91747913D01*
X155388239Y-91823193D01*
X155388237Y-91823195D01*
X155388236Y-91823195D01*
X155228195Y-91983236D01*
X155228195Y-91983237D01*
X155228193Y-91983239D01*
X155195307Y-92028503D01*
X155095155Y-92166349D01*
X154992400Y-92368018D01*
X154992398Y-92368021D01*
X154922458Y-92583274D01*
X154922458Y-92583277D01*
X154922458Y-92583279D01*
X154887050Y-92806831D01*
X154887050Y-93033169D01*
X154896051Y-93090000D01*
X154922458Y-93256722D01*
X154922458Y-93256725D01*
X154992398Y-93471978D01*
X154992400Y-93471981D01*
X155095155Y-93673650D01*
X155228193Y-93856761D01*
X155228195Y-93856763D01*
X155388242Y-94016810D01*
X155423638Y-94042526D01*
X155466305Y-94097856D01*
X155472284Y-94167469D01*
X155439679Y-94229264D01*
X155438435Y-94230526D01*
X154357647Y-95311314D01*
X154296324Y-95344799D01*
X154286153Y-95346572D01*
X154156291Y-95363670D01*
X154156287Y-95363671D01*
X154022377Y-95419137D01*
X153907379Y-95507379D01*
X153819137Y-95622377D01*
X153763671Y-95756287D01*
X153763670Y-95756291D01*
X153746572Y-95886153D01*
X153718305Y-95950049D01*
X153711315Y-95957647D01*
X153544438Y-96124525D01*
X153474526Y-96194436D01*
X153425091Y-96280059D01*
X153425091Y-96280060D01*
X153425090Y-96280062D01*
X153399500Y-96375565D01*
X153399500Y-96375567D01*
X153399500Y-97212541D01*
X153379815Y-97279580D01*
X153327011Y-97325335D01*
X153320071Y-97328209D01*
X153319773Y-97328372D01*
X153210313Y-97410313D01*
X153128372Y-97519773D01*
X153116181Y-97552459D01*
X153074310Y-97608392D01*
X153008845Y-97632808D01*
X152940572Y-97617956D01*
X152891167Y-97568550D01*
X152883819Y-97552459D01*
X152876542Y-97532950D01*
X152871628Y-97519774D01*
X152789687Y-97410313D01*
X152707614Y-97348874D01*
X152665743Y-97292940D01*
X152660759Y-97223248D01*
X152678267Y-97185513D01*
X152676797Y-97184664D01*
X152680856Y-97177631D01*
X152680861Y-97177625D01*
X152736330Y-97043709D01*
X152755250Y-96900000D01*
X152736330Y-96756291D01*
X152686267Y-96635427D01*
X152680862Y-96622377D01*
X152680861Y-96622376D01*
X152680861Y-96622375D01*
X152592621Y-96507379D01*
X152477625Y-96419139D01*
X152477624Y-96419138D01*
X152477622Y-96419137D01*
X152343712Y-96363671D01*
X152343710Y-96363670D01*
X152343709Y-96363670D01*
X152221967Y-96347642D01*
X152200001Y-96344750D01*
X152199999Y-96344750D01*
X152056291Y-96363670D01*
X152056287Y-96363671D01*
X151922377Y-96419137D01*
X151807379Y-96507379D01*
X151719137Y-96622377D01*
X151663671Y-96756287D01*
X151663670Y-96756291D01*
X151651826Y-96846257D01*
X151644750Y-96900000D01*
X151662096Y-97031757D01*
X151663670Y-97043708D01*
X151663671Y-97043712D01*
X151719138Y-97177623D01*
X151719138Y-97177624D01*
X151734693Y-97197896D01*
X151759886Y-97263066D01*
X151745847Y-97331510D01*
X151710628Y-97372647D01*
X151660314Y-97410312D01*
X151578373Y-97519771D01*
X151566181Y-97552459D01*
X151531022Y-97646724D01*
X151530587Y-97647889D01*
X151524500Y-97704498D01*
X151524500Y-98295481D01*
X151524501Y-98295490D01*
X151530587Y-98352114D01*
X151566180Y-98447539D01*
X151578372Y-98480226D01*
X151660313Y-98589687D01*
X151746672Y-98654334D01*
X151760357Y-98664579D01*
X151769774Y-98671628D01*
X151897886Y-98719412D01*
X151954515Y-98725500D01*
X152495484Y-98725499D01*
X152552114Y-98719412D01*
X152680226Y-98671628D01*
X152789687Y-98589687D01*
X152871628Y-98480226D01*
X152883819Y-98447538D01*
X152925687Y-98391609D01*
X152991150Y-98367191D01*
X153059424Y-98382042D01*
X153108830Y-98431446D01*
X153116180Y-98447539D01*
X153128372Y-98480227D01*
X153169342Y-98534956D01*
X153210313Y-98589687D01*
X153296672Y-98654334D01*
X153310357Y-98664579D01*
X153319774Y-98671628D01*
X153447886Y-98719412D01*
X153504515Y-98725500D01*
X153918099Y-98725499D01*
X153985138Y-98745183D01*
X154005780Y-98761818D01*
X154888181Y-99644218D01*
X154921666Y-99705541D01*
X154924500Y-99731899D01*
X154924500Y-101249435D01*
X154929859Y-101269433D01*
X154929860Y-101269438D01*
X154944986Y-101325891D01*
X154948150Y-101374167D01*
X154944750Y-101399996D01*
X154944750Y-101400000D01*
X154960946Y-101523022D01*
X154963670Y-101543708D01*
X154963671Y-101543712D01*
X155019138Y-101677623D01*
X155019139Y-101677626D01*
X155036308Y-101700000D01*
X155078665Y-101755201D01*
X155094321Y-101775603D01*
X155119516Y-101840772D01*
X155105478Y-101909217D01*
X155056664Y-101959207D01*
X154988573Y-101974871D01*
X154948501Y-101965654D01*
X154943715Y-101963672D01*
X154943711Y-101963670D01*
X154943709Y-101963670D01*
X154871854Y-101954210D01*
X154800001Y-101944750D01*
X154799999Y-101944750D01*
X154656291Y-101963670D01*
X154656287Y-101963671D01*
X154522377Y-102019137D01*
X154407379Y-102107379D01*
X154319137Y-102222377D01*
X154263671Y-102356287D01*
X154263670Y-102356291D01*
X154249135Y-102466687D01*
X154220868Y-102530583D01*
X154162543Y-102569053D01*
X154126196Y-102574500D01*
X153704518Y-102574500D01*
X153704509Y-102574501D01*
X153647885Y-102580587D01*
X153519773Y-102628372D01*
X153410313Y-102710313D01*
X153328373Y-102819771D01*
X153280587Y-102947889D01*
X153274500Y-103004498D01*
X153274500Y-103545481D01*
X153274501Y-103545490D01*
X153280587Y-103602114D01*
X153314562Y-103693200D01*
X153328372Y-103730226D01*
X153410313Y-103839687D01*
X153519774Y-103921628D01*
X153544073Y-103930691D01*
X153600006Y-103972562D01*
X153623677Y-104030683D01*
X153624500Y-104036938D01*
X153632883Y-104068224D01*
X153650089Y-104132436D01*
X153650089Y-104132437D01*
X153666166Y-104160282D01*
X153699525Y-104218062D01*
X153699526Y-104218063D01*
X153699527Y-104218064D01*
X154261986Y-104780523D01*
X154295471Y-104841846D01*
X154290487Y-104911538D01*
X154274076Y-104941837D01*
X154222207Y-105012118D01*
X154222206Y-105012119D01*
X154177353Y-105140298D01*
X154177353Y-105140300D01*
X154174500Y-105170730D01*
X154174500Y-105829269D01*
X154177353Y-105859699D01*
X154177353Y-105859701D01*
X154220692Y-105983552D01*
X154222207Y-105987882D01*
X154302850Y-106097150D01*
X154412118Y-106177793D01*
X154428874Y-106183656D01*
X154540299Y-106222646D01*
X154570730Y-106225500D01*
X154570734Y-106225500D01*
X155079270Y-106225500D01*
X155109699Y-106222646D01*
X155109701Y-106222646D01*
X155188178Y-106195185D01*
X155237882Y-106177793D01*
X155286867Y-106141639D01*
X155352494Y-106117669D01*
X155420664Y-106132984D01*
X155469733Y-106182723D01*
X155483439Y-106225222D01*
X155487232Y-106254031D01*
X155487233Y-106254034D01*
X155542700Y-106387945D01*
X155542701Y-106387947D01*
X155601679Y-106464809D01*
X155626873Y-106529978D01*
X155612835Y-106598423D01*
X155590984Y-106627976D01*
X155493731Y-106725229D01*
X155432408Y-106758714D01*
X155392167Y-106760768D01*
X155250004Y-106744751D01*
X155249997Y-106744751D01*
X155081943Y-106763685D01*
X154922305Y-106819545D01*
X154922302Y-106819547D01*
X154779115Y-106909518D01*
X154779108Y-106909524D01*
X154724963Y-106963669D01*
X154663640Y-106997153D01*
X154593948Y-106992168D01*
X154538015Y-106950297D01*
X154522724Y-106923444D01*
X154480861Y-106822375D01*
X154392621Y-106707379D01*
X154277625Y-106619139D01*
X154277624Y-106619138D01*
X154277622Y-106619137D01*
X154143712Y-106563671D01*
X154143710Y-106563670D01*
X154143709Y-106563670D01*
X154042361Y-106550327D01*
X154000001Y-106544750D01*
X153999999Y-106544750D01*
X153856291Y-106563670D01*
X153856287Y-106563671D01*
X153722377Y-106619137D01*
X153607379Y-106707379D01*
X153519137Y-106822377D01*
X153463671Y-106956287D01*
X153463670Y-106956291D01*
X153444750Y-107100000D01*
X153463147Y-107239740D01*
X153463670Y-107243708D01*
X153463671Y-107243712D01*
X153519137Y-107377622D01*
X153519138Y-107377624D01*
X153519139Y-107377625D01*
X153598876Y-107481540D01*
X153624070Y-107546709D01*
X153624500Y-107557026D01*
X153624500Y-108049438D01*
X153631681Y-108076235D01*
X153631681Y-108076237D01*
X153631682Y-108076237D01*
X153631682Y-108076238D01*
X153650090Y-108144938D01*
X153696740Y-108225738D01*
X153696741Y-108225739D01*
X153696740Y-108225739D01*
X153699333Y-108230230D01*
X153699526Y-108230563D01*
X153699529Y-108230566D01*
X154411314Y-108942351D01*
X154444799Y-109003674D01*
X154446572Y-109013845D01*
X154463670Y-109143708D01*
X154463671Y-109143712D01*
X154519137Y-109277622D01*
X154519138Y-109277624D01*
X154519139Y-109277625D01*
X154581717Y-109359178D01*
X154595182Y-109376725D01*
X154620376Y-109441895D01*
X154606338Y-109510339D01*
X154557524Y-109560329D01*
X154489432Y-109575993D01*
X154453477Y-109568395D01*
X154352114Y-109530588D01*
X154352112Y-109530587D01*
X154352110Y-109530587D01*
X154295493Y-109524500D01*
X153704518Y-109524500D01*
X153704509Y-109524501D01*
X153647885Y-109530587D01*
X153519773Y-109578372D01*
X153410313Y-109660313D01*
X153328372Y-109769772D01*
X153293423Y-109863472D01*
X153251551Y-109919404D01*
X153248396Y-109921486D01*
X153244436Y-109924525D01*
X153187181Y-109981780D01*
X153125858Y-110015265D01*
X153056166Y-110010281D01*
X153000233Y-109968409D01*
X152975816Y-109902945D01*
X152975500Y-109894099D01*
X152975500Y-108157026D01*
X152995185Y-108089987D01*
X153001117Y-108081547D01*
X153080861Y-107977625D01*
X153136330Y-107843709D01*
X153155250Y-107700000D01*
X153153402Y-107685967D01*
X153153048Y-107683280D01*
X153136330Y-107556291D01*
X153084208Y-107430456D01*
X153080862Y-107422377D01*
X153080861Y-107422376D01*
X153080861Y-107422375D01*
X152992621Y-107307379D01*
X152877625Y-107219139D01*
X152877624Y-107219138D01*
X152877622Y-107219137D01*
X152743712Y-107163671D01*
X152743710Y-107163670D01*
X152743709Y-107163670D01*
X152671854Y-107154210D01*
X152600001Y-107144750D01*
X152599999Y-107144750D01*
X152456291Y-107163670D01*
X152456287Y-107163671D01*
X152322376Y-107219138D01*
X152322374Y-107219139D01*
X152238684Y-107283357D01*
X152173515Y-107308551D01*
X152105070Y-107294513D01*
X152055812Y-107246982D01*
X152025474Y-107194437D01*
X151513262Y-106682225D01*
X151479777Y-106620902D01*
X151484761Y-106551210D01*
X151526633Y-106495277D01*
X151592097Y-106470860D01*
X151633031Y-106474768D01*
X151655982Y-106480918D01*
X151655983Y-106480918D01*
X151842974Y-106480918D01*
X151910013Y-106500603D01*
X151918452Y-106506535D01*
X152022375Y-106586279D01*
X152156291Y-106641748D01*
X152283280Y-106658466D01*
X152299999Y-106660668D01*
X152300000Y-106660668D01*
X152300001Y-106660668D01*
X152314977Y-106658696D01*
X152443709Y-106641748D01*
X152577625Y-106586279D01*
X152692621Y-106498039D01*
X152780861Y-106383043D01*
X152814410Y-106302048D01*
X152858250Y-106247644D01*
X152924544Y-106225579D01*
X152928971Y-106225500D01*
X153429270Y-106225500D01*
X153459699Y-106222646D01*
X153459701Y-106222646D01*
X153538178Y-106195185D01*
X153587882Y-106177793D01*
X153697150Y-106097150D01*
X153777793Y-105987882D01*
X153817467Y-105874500D01*
X153822646Y-105859701D01*
X153822646Y-105859699D01*
X153825500Y-105829269D01*
X153825500Y-105170730D01*
X153822646Y-105140300D01*
X153822646Y-105140298D01*
X153777793Y-105012119D01*
X153777792Y-105012117D01*
X153769394Y-105000738D01*
X153697150Y-104902850D01*
X153587882Y-104822207D01*
X153587880Y-104822206D01*
X153459700Y-104777353D01*
X153429270Y-104774500D01*
X153429266Y-104774500D01*
X153099500Y-104774500D01*
X153032461Y-104754815D01*
X152986706Y-104702011D01*
X152975500Y-104650500D01*
X152975500Y-103350566D01*
X152975500Y-103350565D01*
X152975325Y-103349911D01*
X152949911Y-103255063D01*
X152925193Y-103212250D01*
X152900477Y-103169440D01*
X152900473Y-103169435D01*
X152574452Y-102843415D01*
X152574451Y-102843414D01*
X152488827Y-102793979D01*
X152427793Y-102777625D01*
X152427791Y-102777624D01*
X152427789Y-102777623D01*
X152393325Y-102768389D01*
X152393324Y-102768389D01*
X152262296Y-102768389D01*
X152238104Y-102766006D01*
X152234957Y-102765380D01*
X152173046Y-102732995D01*
X152138472Y-102672279D01*
X152142213Y-102602509D01*
X152183079Y-102545838D01*
X152234957Y-102522146D01*
X152238104Y-102521520D01*
X152262296Y-102519137D01*
X152565378Y-102519137D01*
X152612830Y-102528576D01*
X152623479Y-102532987D01*
X152676849Y-102555093D01*
X152803838Y-102571811D01*
X152820557Y-102574013D01*
X152820558Y-102574013D01*
X152820559Y-102574013D01*
X152835535Y-102572041D01*
X152964267Y-102555093D01*
X153098183Y-102499624D01*
X153213179Y-102411384D01*
X153301419Y-102296388D01*
X153356888Y-102162472D01*
X153375808Y-102018763D01*
X153356888Y-101875054D01*
X153313144Y-101769447D01*
X153305676Y-101699979D01*
X153336951Y-101637500D01*
X153352212Y-101623628D01*
X153392621Y-101592621D01*
X153480861Y-101477625D01*
X153536330Y-101343709D01*
X153555250Y-101200000D01*
X153536330Y-101056291D01*
X153480861Y-100922375D01*
X153392621Y-100807379D01*
X153277625Y-100719139D01*
X153260228Y-100711933D01*
X153205825Y-100668092D01*
X153183760Y-100601798D01*
X153184741Y-100581198D01*
X153197478Y-100484456D01*
X153178558Y-100340747D01*
X153123089Y-100206831D01*
X153123088Y-100206830D01*
X153123088Y-100206829D01*
X153074670Y-100143731D01*
X153034849Y-100091835D01*
X153034847Y-100091833D01*
X153033593Y-100090199D01*
X153008398Y-100025030D01*
X153022436Y-99956585D01*
X153033593Y-99939225D01*
X153080861Y-99877625D01*
X153136330Y-99743709D01*
X153155250Y-99600000D01*
X153154984Y-99597983D01*
X153149674Y-99557647D01*
X153136330Y-99456291D01*
X153080861Y-99322375D01*
X152992621Y-99207379D01*
X152877625Y-99119139D01*
X152877624Y-99119138D01*
X152877622Y-99119137D01*
X152743712Y-99063671D01*
X152743710Y-99063670D01*
X152743709Y-99063670D01*
X152663431Y-99053101D01*
X152600001Y-99044750D01*
X152599999Y-99044750D01*
X152456291Y-99063670D01*
X152456287Y-99063671D01*
X152322377Y-99119137D01*
X152207379Y-99207379D01*
X152119137Y-99322377D01*
X152063671Y-99456287D01*
X152063670Y-99456290D01*
X152063670Y-99456291D01*
X152061132Y-99475566D01*
X152046573Y-99586151D01*
X152018306Y-99650047D01*
X152011315Y-99657646D01*
X151917310Y-99751652D01*
X151734821Y-99934142D01*
X151662082Y-100006881D01*
X151600759Y-100040366D01*
X151574401Y-100043200D01*
X151507019Y-100043200D01*
X151439980Y-100023515D01*
X151394225Y-99970711D01*
X151385402Y-99943392D01*
X151375967Y-99895963D01*
X151375966Y-99895960D01*
X151373735Y-99892621D01*
X151320601Y-99813099D01*
X151237740Y-99757734D01*
X151237739Y-99757733D01*
X151237735Y-99757732D01*
X151164677Y-99743200D01*
X151164674Y-99743200D01*
X150999501Y-99743200D01*
X150932462Y-99723515D01*
X150886707Y-99670711D01*
X150875501Y-99619200D01*
X150875501Y-98350211D01*
X150875501Y-98350210D01*
X150875501Y-98350209D01*
X150849912Y-98254708D01*
X150821664Y-98205780D01*
X150800478Y-98169085D01*
X150800474Y-98169080D01*
X149524319Y-96892925D01*
X149490834Y-96831602D01*
X149488000Y-96805244D01*
X149488000Y-94193137D01*
X149488000Y-94193134D01*
X149486689Y-94188243D01*
X149486415Y-94187222D01*
X149480996Y-94166996D01*
X149473914Y-94140564D01*
X149462410Y-94097631D01*
X149412975Y-94012007D01*
X149343062Y-93942094D01*
X149074319Y-93673351D01*
X149040834Y-93612028D01*
X149038000Y-93585670D01*
X149038000Y-92040820D01*
X149034700Y-92028506D01*
X149034699Y-92028503D01*
X149023744Y-91987617D01*
X149014597Y-91953481D01*
X149012410Y-91945318D01*
X148962975Y-91859694D01*
X148893062Y-91789781D01*
X148661819Y-91558538D01*
X148628334Y-91497215D01*
X148625500Y-91470857D01*
X148625500Y-89926007D01*
X148621256Y-89910171D01*
X148621255Y-89910166D01*
X148608179Y-89861363D01*
X148608179Y-89861362D01*
X148599911Y-89830508D01*
X148599910Y-89830505D01*
X148585258Y-89805127D01*
X148550475Y-89744881D01*
X148480562Y-89674968D01*
X148174319Y-89368725D01*
X148140834Y-89307402D01*
X148138000Y-89281044D01*
X148138000Y-87736198D01*
X148138000Y-87736195D01*
X148136689Y-87731304D01*
X148120679Y-87671551D01*
X148120679Y-87671550D01*
X148120679Y-87671549D01*
X148112411Y-87640695D01*
X148112410Y-87640692D01*
X148062975Y-87555068D01*
X147993062Y-87485155D01*
X147724319Y-87216412D01*
X147690834Y-87155089D01*
X147688000Y-87128731D01*
X147688000Y-85583885D01*
X147688000Y-85583882D01*
X147686689Y-85578991D01*
X147670679Y-85519238D01*
X147670679Y-85519237D01*
X147670679Y-85519236D01*
X147662411Y-85488382D01*
X147662410Y-85488379D01*
X147612975Y-85402755D01*
X147543062Y-85332842D01*
X147274319Y-85064099D01*
X147240834Y-85002776D01*
X147238000Y-84976418D01*
X147238000Y-83431572D01*
X147238000Y-83431569D01*
X147236689Y-83426678D01*
X147220679Y-83366925D01*
X147220679Y-83366924D01*
X147220679Y-83366923D01*
X147212411Y-83336069D01*
X147212410Y-83336066D01*
X147162975Y-83250442D01*
X147093062Y-83180529D01*
X146824319Y-82911786D01*
X146790834Y-82850463D01*
X146788000Y-82824105D01*
X146788000Y-81279259D01*
X146788000Y-81279256D01*
X146786689Y-81274365D01*
X146786686Y-81274353D01*
X146770679Y-81214611D01*
X146770679Y-81214610D01*
X146762411Y-81183756D01*
X146762410Y-81183753D01*
X146758303Y-81176639D01*
X146712975Y-81098129D01*
X146643062Y-81028216D01*
X146374319Y-80759473D01*
X146340834Y-80698150D01*
X146338000Y-80671792D01*
X146338000Y-79126946D01*
X146338000Y-79126943D01*
X146336689Y-79122052D01*
X146320679Y-79062299D01*
X146320679Y-79062298D01*
X146320679Y-79062297D01*
X146312411Y-79031443D01*
X146312410Y-79031440D01*
X146296518Y-79003915D01*
X146262975Y-78945816D01*
X146193062Y-78875903D01*
X145924319Y-78607160D01*
X145890834Y-78545837D01*
X145888000Y-78519479D01*
X145888000Y-76974633D01*
X145888000Y-76974630D01*
X145886689Y-76969739D01*
X145870679Y-76909986D01*
X145870679Y-76909985D01*
X145870679Y-76909984D01*
X145862411Y-76879130D01*
X145862410Y-76879127D01*
X145812975Y-76793503D01*
X145743062Y-76723590D01*
X145474319Y-76454847D01*
X145440834Y-76393524D01*
X145438000Y-76367166D01*
X145438000Y-74822319D01*
X145438000Y-74822317D01*
X145412410Y-74726814D01*
X145362975Y-74641190D01*
X145293062Y-74571277D01*
X145024319Y-74302534D01*
X144990834Y-74241211D01*
X144988000Y-74214853D01*
X144988000Y-72670006D01*
X144988000Y-72670004D01*
X144962410Y-72574501D01*
X144912975Y-72488877D01*
X144843062Y-72418964D01*
X144574319Y-72150221D01*
X144540834Y-72088898D01*
X144538000Y-72062540D01*
X144538000Y-70517693D01*
X144538000Y-70517691D01*
X144512410Y-70422188D01*
X144462975Y-70336564D01*
X144393062Y-70266651D01*
X144124319Y-69997908D01*
X144090834Y-69936585D01*
X144088000Y-69910227D01*
X144088000Y-68365379D01*
X144087999Y-68365375D01*
X144076419Y-68322159D01*
X144076418Y-68322156D01*
X144062410Y-68269875D01*
X144062409Y-68269873D01*
X144057033Y-68260562D01*
X144012975Y-68184251D01*
X143943062Y-68114338D01*
X143674319Y-67845595D01*
X143640834Y-67784272D01*
X143638000Y-67757914D01*
X143638000Y-66213067D01*
X143638000Y-66213065D01*
X143612410Y-66117562D01*
X143587692Y-66074750D01*
X143587692Y-66074749D01*
X143587690Y-66074747D01*
X143562975Y-66031937D01*
X143562974Y-66031936D01*
X143562971Y-66031932D01*
X143224319Y-65693280D01*
X143190834Y-65631957D01*
X143188000Y-65605599D01*
X143188000Y-65198870D01*
X143187999Y-65198855D01*
X143184928Y-65170295D01*
X143181991Y-65142978D01*
X143177320Y-65130455D01*
X143134837Y-65016552D01*
X143134835Y-65016549D01*
X143053972Y-64908528D01*
X142945950Y-64827664D01*
X142945947Y-64827662D01*
X142819524Y-64780509D01*
X142763644Y-64774500D01*
X142763630Y-64774500D01*
X142236370Y-64774500D01*
X142236355Y-64774500D01*
X142180475Y-64780509D01*
X142054052Y-64827662D01*
X142054049Y-64827664D01*
X141946028Y-64908528D01*
X141865164Y-65016549D01*
X141865162Y-65016552D01*
X141828682Y-65114361D01*
X141786811Y-65170295D01*
X141721346Y-65194712D01*
X141653073Y-65179860D01*
X141603668Y-65130455D01*
X141596318Y-65114361D01*
X141559837Y-65016552D01*
X141559835Y-65016549D01*
X141478972Y-64908528D01*
X141370950Y-64827664D01*
X141370947Y-64827662D01*
X141244524Y-64780509D01*
X141188644Y-64774500D01*
X141188630Y-64774500D01*
X141136810Y-64774500D01*
X141112618Y-64772117D01*
X140998920Y-64749500D01*
X140998918Y-64749500D01*
X140851082Y-64749500D01*
X140851080Y-64749500D01*
X140737382Y-64772117D01*
X140713190Y-64774500D01*
X140661355Y-64774500D01*
X140605475Y-64780509D01*
X140479052Y-64827662D01*
X140479049Y-64827664D01*
X140371028Y-64908528D01*
X140290164Y-65016549D01*
X140290162Y-65016552D01*
X140243009Y-65142975D01*
X140238765Y-65182443D01*
X140230038Y-65216635D01*
X140203342Y-65281087D01*
X140203340Y-65281092D01*
X140174500Y-65426079D01*
X140174500Y-124429024D01*
X140154815Y-124496063D01*
X140153603Y-124497913D01*
X140097421Y-124581997D01*
X140097414Y-124582009D01*
X140040842Y-124718587D01*
X140040840Y-124718593D01*
X140012000Y-124863580D01*
X140012000Y-124863583D01*
X140012000Y-125011417D01*
X140012000Y-125011419D01*
X140011999Y-125011419D01*
X139402773Y-125011419D01*
X139415083Y-124992996D01*
X139438517Y-124936421D01*
X139471658Y-124856413D01*
X139497963Y-124724166D01*
X139500203Y-124712910D01*
X139500499Y-124711420D01*
X139500499Y-120456078D01*
X139471658Y-120311091D01*
X139471657Y-120311087D01*
X139471657Y-120311086D01*
X139456259Y-120273912D01*
X139415086Y-120174510D01*
X139415079Y-120174497D01*
X139332951Y-120051584D01*
X139291164Y-120009797D01*
X139228415Y-119947048D01*
X139174323Y-119892956D01*
X139111818Y-119830450D01*
X139078334Y-119769127D01*
X139075500Y-119742769D01*
X139075500Y-117976081D01*
X139075499Y-117976080D01*
X139060267Y-117899500D01*
X139046659Y-117831088D01*
X139035277Y-117803609D01*
X139034939Y-117802792D01*
X139025500Y-117755340D01*
X139025500Y-117451079D01*
X138996659Y-117306092D01*
X138996658Y-117306091D01*
X138996658Y-117306087D01*
X138973633Y-117250500D01*
X138940085Y-117169507D01*
X138916238Y-117133817D01*
X138906859Y-117119780D01*
X138906858Y-117119778D01*
X138906857Y-117119776D01*
X138857953Y-117046585D01*
X138857947Y-117046578D01*
X137728418Y-115917050D01*
X137728417Y-115917049D01*
X137644191Y-115860772D01*
X137627634Y-115849709D01*
X137605495Y-115834916D01*
X137605493Y-115834915D01*
X137605490Y-115834913D01*
X137468917Y-115778343D01*
X137468907Y-115778340D01*
X137323920Y-115749500D01*
X137323918Y-115749500D01*
X133898918Y-115749500D01*
X129812057Y-115749500D01*
X129745018Y-115729815D01*
X129699263Y-115677011D01*
X129689319Y-115607853D01*
X129713682Y-115550013D01*
X129730860Y-115527626D01*
X129730859Y-115527626D01*
X129730861Y-115527625D01*
X129786330Y-115393709D01*
X129805250Y-115250000D01*
X129786330Y-115106291D01*
X129786328Y-115106287D01*
X129784227Y-115098443D01*
X129787256Y-115097631D01*
X129781371Y-115042879D01*
X129812646Y-114980400D01*
X129871307Y-114945122D01*
X129929330Y-114929575D01*
X130127639Y-114837102D01*
X130306877Y-114711598D01*
X130461598Y-114556877D01*
X130587102Y-114377639D01*
X130679575Y-114179330D01*
X130736207Y-113967977D01*
X130755277Y-113750000D01*
X130754600Y-113742267D01*
X130749757Y-113686901D01*
X130736207Y-113532023D01*
X130679575Y-113320670D01*
X130587102Y-113122362D01*
X130587100Y-113122359D01*
X130587099Y-113122357D01*
X130461599Y-112943124D01*
X130395304Y-112876829D01*
X130306877Y-112788402D01*
X130153293Y-112680861D01*
X130127638Y-112662897D01*
X129976927Y-112592620D01*
X129929330Y-112570425D01*
X129929326Y-112570424D01*
X129929322Y-112570422D01*
X129717977Y-112513793D01*
X129500002Y-112494723D01*
X129499998Y-112494723D01*
X129385513Y-112504739D01*
X129282023Y-112513793D01*
X129282020Y-112513793D01*
X129070677Y-112570422D01*
X129070668Y-112570426D01*
X128872361Y-112662898D01*
X128872357Y-112662900D01*
X128693121Y-112788402D01*
X128538402Y-112943121D01*
X128412900Y-113122357D01*
X128412898Y-113122361D01*
X128320426Y-113320668D01*
X128320422Y-113320677D01*
X128263793Y-113532020D01*
X128263793Y-113532024D01*
X128244723Y-113749997D01*
X128244723Y-113750002D01*
X128263793Y-113967975D01*
X128263793Y-113967979D01*
X128320422Y-114179322D01*
X128320424Y-114179326D01*
X128320425Y-114179330D01*
X128355673Y-114254919D01*
X128412897Y-114377638D01*
X128441844Y-114418978D01*
X128538402Y-114556877D01*
X128659317Y-114677792D01*
X128693123Y-114711598D01*
X128696622Y-114714048D01*
X128740248Y-114768625D01*
X128749500Y-114815624D01*
X128749500Y-114995124D01*
X128740062Y-115042575D01*
X128713669Y-115106293D01*
X128699287Y-115215538D01*
X128694750Y-115250000D01*
X128708978Y-115358074D01*
X128713670Y-115393708D01*
X128713671Y-115393712D01*
X128769138Y-115527623D01*
X128769139Y-115527626D01*
X128786318Y-115550013D01*
X128811513Y-115615182D01*
X128797475Y-115683627D01*
X128748662Y-115733617D01*
X128687943Y-115749500D01*
X127367949Y-115749500D01*
X127300910Y-115729815D01*
X127255155Y-115677011D01*
X127244660Y-115638758D01*
X127244220Y-115634667D01*
X127194930Y-115502514D01*
X127194929Y-115502511D01*
X127110403Y-115389597D01*
X126997489Y-115305071D01*
X126997487Y-115305070D01*
X126997485Y-115305069D01*
X126865334Y-115255780D01*
X126865335Y-115255780D01*
X126861245Y-115255341D01*
X126858285Y-115254114D01*
X126857790Y-115253998D01*
X126857808Y-115253917D01*
X126796693Y-115228603D01*
X126756845Y-115171211D01*
X126750500Y-115132052D01*
X126750500Y-114975383D01*
X126770185Y-114908344D01*
X126822093Y-114863002D01*
X126877639Y-114837102D01*
X127056877Y-114711598D01*
X127211598Y-114556877D01*
X127337102Y-114377639D01*
X127429575Y-114179330D01*
X127486207Y-113967977D01*
X127505277Y-113750000D01*
X127504600Y-113742267D01*
X127499757Y-113686901D01*
X127486207Y-113532023D01*
X127429575Y-113320670D01*
X127337102Y-113122362D01*
X127337100Y-113122359D01*
X127337099Y-113122357D01*
X127211599Y-112943124D01*
X127145304Y-112876829D01*
X127056877Y-112788402D01*
X126903293Y-112680861D01*
X126877638Y-112662897D01*
X126726927Y-112592620D01*
X126679330Y-112570425D01*
X126679326Y-112570424D01*
X126679322Y-112570422D01*
X126467977Y-112513793D01*
X126250002Y-112494723D01*
X126249998Y-112494723D01*
X126135513Y-112504739D01*
X126032023Y-112513793D01*
X126032020Y-112513793D01*
X125820677Y-112570422D01*
X125820668Y-112570426D01*
X125622361Y-112662898D01*
X125622357Y-112662900D01*
X125443121Y-112788402D01*
X125288402Y-112943121D01*
X125162900Y-113122357D01*
X125162898Y-113122361D01*
X125070426Y-113320668D01*
X125070422Y-113320677D01*
X125013793Y-113532020D01*
X125013793Y-113532024D01*
X124994723Y-113749997D01*
X124994723Y-113750002D01*
X125013793Y-113967975D01*
X125013793Y-113967979D01*
X125070422Y-114179322D01*
X125070424Y-114179326D01*
X125070425Y-114179330D01*
X125105673Y-114254919D01*
X125162897Y-114377638D01*
X125187998Y-114413486D01*
X125288402Y-114556877D01*
X125443123Y-114711598D01*
X125622361Y-114837102D01*
X125677906Y-114863002D01*
X125730343Y-114909171D01*
X125749500Y-114975383D01*
X125749500Y-115125500D01*
X125729815Y-115192539D01*
X125677011Y-115238294D01*
X125625500Y-115249500D01*
X124193087Y-115249500D01*
X124193081Y-115249501D01*
X124134664Y-115255780D01*
X124002514Y-115305069D01*
X124002507Y-115305073D01*
X123889597Y-115389597D01*
X123805073Y-115502507D01*
X123805069Y-115502514D01*
X123757786Y-115629289D01*
X123755781Y-115634665D01*
X123749500Y-115693085D01*
X123749500Y-115693092D01*
X123749500Y-115693093D01*
X123749500Y-118306912D01*
X123749501Y-118306918D01*
X123755781Y-118365336D01*
X123757650Y-118370348D01*
X123762631Y-118440040D01*
X123729143Y-118501362D01*
X123667818Y-118534844D01*
X123641270Y-118537676D01*
X115424304Y-118524690D01*
X115357296Y-118504899D01*
X115311624Y-118452023D01*
X115300500Y-118400690D01*
X115300500Y-59603750D01*
X115300726Y-59596263D01*
X115318271Y-59306205D01*
X115320076Y-59291340D01*
X115371780Y-59009201D01*
X115375364Y-58994663D01*
X115452096Y-58748422D01*
X115460696Y-58720822D01*
X115465998Y-58706841D01*
X115583731Y-58445249D01*
X115590676Y-58432016D01*
X115739080Y-58186526D01*
X115747567Y-58174230D01*
X115924480Y-57948417D01*
X115934395Y-57937226D01*
X116137226Y-57734395D01*
X116148417Y-57724480D01*
X116374230Y-57547567D01*
X116386526Y-57539080D01*
X116632016Y-57390676D01*
X116645249Y-57383731D01*
X116906841Y-57265998D01*
X116920822Y-57260696D01*
X117194668Y-57175362D01*
X117209197Y-57171780D01*
X117491344Y-57120075D01*
X117506201Y-57118271D01*
X117796264Y-57100726D01*
X117803751Y-57100500D01*
X117865892Y-57100500D01*
X132076000Y-57100500D01*
X132143039Y-57120185D01*
G37*
%TD.AperFunction*%
%TD*%
%TA.AperFunction,NonConductor*%
G36*
X167575697Y-137475308D02*
G01*
X167642704Y-137495099D01*
X167688376Y-137547975D01*
X167699500Y-137599308D01*
X167699500Y-137996249D01*
X167699274Y-138003736D01*
X167681728Y-138293794D01*
X167679923Y-138308659D01*
X167628219Y-138590798D01*
X167624635Y-138605336D01*
X167539306Y-138879167D01*
X167533997Y-138893168D01*
X167416275Y-139154736D01*
X167409316Y-139167995D01*
X167260928Y-139413459D01*
X167252422Y-139425782D01*
X167075526Y-139651573D01*
X167065596Y-139662781D01*
X166862781Y-139865596D01*
X166851573Y-139875526D01*
X166625782Y-140052422D01*
X166613459Y-140060928D01*
X166367995Y-140209316D01*
X166354736Y-140216275D01*
X166093168Y-140333997D01*
X166079167Y-140339306D01*
X165805336Y-140424635D01*
X165790798Y-140428219D01*
X165508659Y-140479923D01*
X165493794Y-140481728D01*
X165203736Y-140499274D01*
X165196249Y-140499500D01*
X159367840Y-140499500D01*
X159300801Y-140479815D01*
X159255046Y-140427011D01*
X159244551Y-140362244D01*
X159245478Y-140353627D01*
X159250500Y-140306915D01*
X159250499Y-137693086D01*
X159244219Y-137634665D01*
X159242351Y-137629659D01*
X159237365Y-137559969D01*
X159270847Y-137498644D01*
X159332169Y-137465157D01*
X159358720Y-137462322D01*
X167575697Y-137475308D01*
G37*
%TD.AperFunction*%
%TA.AperFunction,NonConductor*%
G36*
X131696950Y-134771867D02*
G01*
X131737520Y-134798888D01*
X134455183Y-137516550D01*
X137167048Y-140228415D01*
X137167049Y-140228416D01*
X137226452Y-140287819D01*
X137259936Y-140349143D01*
X137254951Y-140418835D01*
X137213080Y-140474768D01*
X137147615Y-140499184D01*
X137138770Y-140499500D01*
X127367840Y-140499500D01*
X127300801Y-140479815D01*
X127255046Y-140427011D01*
X127244551Y-140362244D01*
X127245478Y-140353627D01*
X127250500Y-140306915D01*
X127250499Y-137693086D01*
X127244219Y-137634665D01*
X127244217Y-137634660D01*
X127200165Y-137516550D01*
X127194929Y-137502511D01*
X127110403Y-137389597D01*
X126997489Y-137305071D01*
X126997487Y-137305070D01*
X126997485Y-137305069D01*
X126865335Y-137255780D01*
X126847350Y-137253847D01*
X126782799Y-137227108D01*
X126742952Y-137169715D01*
X126740459Y-137099890D01*
X126776113Y-137039802D01*
X126838592Y-137008528D01*
X126840284Y-137008235D01*
X127277491Y-136936052D01*
X127858131Y-136800666D01*
X128428674Y-136627594D01*
X128986675Y-136417577D01*
X129529745Y-136171515D01*
X129770554Y-136042800D01*
X130055546Y-135890469D01*
X130055568Y-135890456D01*
X130161594Y-135824525D01*
X130561867Y-135575619D01*
X131046498Y-135228337D01*
X131507379Y-134850103D01*
X131565073Y-134796065D01*
X131627459Y-134764605D01*
X131696950Y-134771867D01*
G37*
%TD.AperFunction*%
%TA.AperFunction,NonConductor*%
G36*
X123642862Y-137458706D02*
G01*
X123709893Y-137478415D01*
X123755628Y-137531236D01*
X123765546Y-137600398D01*
X123759000Y-137626032D01*
X123755782Y-137634660D01*
X123755782Y-137634661D01*
X123755781Y-137634665D01*
X123749500Y-137693085D01*
X123749500Y-137693092D01*
X123749500Y-137693093D01*
X123749500Y-140306912D01*
X123749501Y-140306918D01*
X123755449Y-140362247D01*
X123743042Y-140431006D01*
X123695431Y-140482143D01*
X123632159Y-140499500D01*
X117803751Y-140499500D01*
X117796264Y-140499274D01*
X117506205Y-140481728D01*
X117491340Y-140479923D01*
X117209201Y-140428219D01*
X117194663Y-140424635D01*
X116920832Y-140339306D01*
X116906831Y-140333997D01*
X116645263Y-140216275D01*
X116632004Y-140209316D01*
X116386540Y-140060928D01*
X116374217Y-140052422D01*
X116148426Y-139875526D01*
X116137218Y-139865596D01*
X115934403Y-139662781D01*
X115924473Y-139651573D01*
X115747573Y-139425776D01*
X115739075Y-139413465D01*
X115590680Y-139167989D01*
X115583727Y-139154743D01*
X115466000Y-138893163D01*
X115460693Y-138879167D01*
X115459550Y-138875500D01*
X115375363Y-138605335D01*
X115371780Y-138590798D01*
X115322180Y-138320139D01*
X115320075Y-138308657D01*
X115318271Y-138293794D01*
X115300726Y-138003736D01*
X115300500Y-137996249D01*
X115300500Y-137579705D01*
X115320185Y-137512666D01*
X115372989Y-137466911D01*
X115424543Y-137455705D01*
X123642862Y-137458706D01*
G37*
%TD.AperFunction*%
M02*
