%TF.GenerationSoftware,KiCad,Pcbnew,8.0.1*%
%TF.CreationDate,2024-05-16T01:37:04-04:00*%
%TF.ProjectId,opensauce2024,6f70656e-7361-4756-9365-323032342e6b,rev?*%
%TF.SameCoordinates,Original*%
%TF.FileFunction,Soldermask,Top*%
%TF.FilePolarity,Negative*%
%FSLAX46Y46*%
G04 Gerber Fmt 4.6, Leading zero omitted, Abs format (unit mm)*
G04 Created by KiCad (PCBNEW 8.0.1) date 2024-05-16 01:37:04*
%MOMM*%
%LPD*%
G01*
G04 APERTURE LIST*
G04 Aperture macros list*
%AMRoundRect*
0 Rectangle with rounded corners*
0 $1 Rounding radius*
0 $2 $3 $4 $5 $6 $7 $8 $9 X,Y pos of 4 corners*
0 Add a 4 corners polygon primitive as box body*
4,1,4,$2,$3,$4,$5,$6,$7,$8,$9,$2,$3,0*
0 Add four circle primitives for the rounded corners*
1,1,$1+$1,$2,$3*
1,1,$1+$1,$4,$5*
1,1,$1+$1,$6,$7*
1,1,$1+$1,$8,$9*
0 Add four rect primitives between the rounded corners*
20,1,$1+$1,$2,$3,$4,$5,0*
20,1,$1+$1,$4,$5,$6,$7,0*
20,1,$1+$1,$6,$7,$8,$9,0*
20,1,$1+$1,$8,$9,$2,$3,0*%
%AMFreePoly0*
4,1,14,0.230680,0.111820,0.364320,-0.021820,0.377500,-0.053640,0.377500,-0.080000,0.364320,-0.111820,0.332500,-0.125000,-0.332500,-0.125000,-0.364320,-0.111820,-0.377500,-0.080000,-0.377500,0.080000,-0.364320,0.111820,-0.332500,0.125000,0.198860,0.125000,0.230680,0.111820,0.230680,0.111820,$1*%
%AMFreePoly1*
4,1,14,0.364320,0.111820,0.377500,0.080000,0.377500,0.053640,0.364320,0.021820,0.230680,-0.111820,0.198860,-0.125000,-0.332500,-0.125000,-0.364320,-0.111820,-0.377500,-0.080000,-0.377500,0.080000,-0.364320,0.111820,-0.332500,0.125000,0.332500,0.125000,0.364320,0.111820,0.364320,0.111820,$1*%
%AMFreePoly2*
4,1,14,0.111820,0.364320,0.125000,0.332500,0.125000,-0.332500,0.111820,-0.364320,0.080000,-0.377500,-0.080000,-0.377500,-0.111820,-0.364320,-0.125000,-0.332500,-0.125000,0.198860,-0.111820,0.230680,0.021820,0.364320,0.053640,0.377500,0.080000,0.377500,0.111820,0.364320,0.111820,0.364320,$1*%
%AMFreePoly3*
4,1,14,-0.021820,0.364320,0.111820,0.230680,0.125000,0.198860,0.125000,-0.332500,0.111820,-0.364320,0.080000,-0.377500,-0.080000,-0.377500,-0.111820,-0.364320,-0.125000,-0.332500,-0.125000,0.332500,-0.111820,0.364320,-0.080000,0.377500,-0.053640,0.377500,-0.021820,0.364320,-0.021820,0.364320,$1*%
%AMFreePoly4*
4,1,14,0.364320,0.111820,0.377500,0.080000,0.377500,-0.080000,0.364320,-0.111820,0.332500,-0.125000,-0.198860,-0.125000,-0.230680,-0.111820,-0.364320,0.021820,-0.377500,0.053640,-0.377500,0.080000,-0.364320,0.111820,-0.332500,0.125000,0.332500,0.125000,0.364320,0.111820,0.364320,0.111820,$1*%
%AMFreePoly5*
4,1,14,0.364320,0.111820,0.377500,0.080000,0.377500,-0.080000,0.364320,-0.111820,0.332500,-0.125000,-0.332500,-0.125000,-0.364320,-0.111820,-0.377500,-0.080000,-0.377500,-0.053640,-0.364320,-0.021820,-0.230680,0.111820,-0.198860,0.125000,0.332500,0.125000,0.364320,0.111820,0.364320,0.111820,$1*%
%AMFreePoly6*
4,1,14,0.111820,0.364320,0.125000,0.332500,0.125000,-0.198860,0.111820,-0.230680,-0.021820,-0.364320,-0.053640,-0.377500,-0.080000,-0.377500,-0.111820,-0.364320,-0.125000,-0.332500,-0.125000,0.332500,-0.111820,0.364320,-0.080000,0.377500,0.080000,0.377500,0.111820,0.364320,0.111820,0.364320,$1*%
%AMFreePoly7*
4,1,14,0.111820,0.364320,0.125000,0.332500,0.125000,-0.332500,0.111820,-0.364320,0.080000,-0.377500,0.053640,-0.377500,0.021820,-0.364320,-0.111820,-0.230680,-0.125000,-0.198860,-0.125000,0.332500,-0.111820,0.364320,-0.080000,0.377500,0.080000,0.377500,0.111820,0.364320,0.111820,0.364320,$1*%
G04 Aperture macros list end*
%ADD10C,0.000000*%
%ADD11C,2.000000*%
%ADD12RoundRect,0.137500X0.137500X-0.262500X0.137500X0.262500X-0.137500X0.262500X-0.137500X-0.262500X0*%
%ADD13C,1.000000*%
%ADD14R,0.350000X0.375000*%
%ADD15R,0.375000X0.350000*%
%ADD16RoundRect,0.218750X0.218750X0.256250X-0.218750X0.256250X-0.218750X-0.256250X0.218750X-0.256250X0*%
%ADD17RoundRect,0.225000X-0.250000X0.225000X-0.250000X-0.225000X0.250000X-0.225000X0.250000X0.225000X0*%
%ADD18RoundRect,0.200000X0.200000X0.275000X-0.200000X0.275000X-0.200000X-0.275000X0.200000X-0.275000X0*%
%ADD19RoundRect,0.200000X-0.200000X-0.275000X0.200000X-0.275000X0.200000X0.275000X-0.200000X0.275000X0*%
%ADD20R,0.280000X0.850000*%
%ADD21R,0.850000X0.280000*%
%ADD22C,2.374900*%
%ADD23C,0.990600*%
%ADD24C,0.787400*%
%ADD25RoundRect,0.240000X-1.260000X1.260000X-1.260000X-1.260000X1.260000X-1.260000X1.260000X1.260000X0*%
%ADD26C,18.000000*%
%ADD27FreePoly0,0.000000*%
%ADD28RoundRect,0.062500X-0.375000X-0.062500X0.375000X-0.062500X0.375000X0.062500X-0.375000X0.062500X0*%
%ADD29FreePoly1,0.000000*%
%ADD30FreePoly2,0.000000*%
%ADD31RoundRect,0.062500X-0.062500X-0.375000X0.062500X-0.375000X0.062500X0.375000X-0.062500X0.375000X0*%
%ADD32FreePoly3,0.000000*%
%ADD33FreePoly4,0.000000*%
%ADD34FreePoly5,0.000000*%
%ADD35FreePoly6,0.000000*%
%ADD36FreePoly7,0.000000*%
%ADD37RoundRect,0.225000X0.250000X-0.225000X0.250000X0.225000X-0.250000X0.225000X-0.250000X-0.225000X0*%
%ADD38RoundRect,0.200000X-0.275000X0.200000X-0.275000X-0.200000X0.275000X-0.200000X0.275000X0.200000X0*%
%ADD39R,1.000000X0.750000*%
%ADD40RoundRect,0.150000X0.150000X-0.587500X0.150000X0.587500X-0.150000X0.587500X-0.150000X-0.587500X0*%
%ADD41RoundRect,0.225000X0.225000X0.250000X-0.225000X0.250000X-0.225000X-0.250000X0.225000X-0.250000X0*%
%ADD42RoundRect,0.240000X1.260000X-1.260000X1.260000X1.260000X-1.260000X1.260000X-1.260000X-1.260000X0*%
%ADD43R,1.700000X1.700000*%
%ADD44O,1.700000X1.700000*%
G04 APERTURE END LIST*
D10*
%TO.C,U3*%
G36*
X150863500Y-103507200D02*
G01*
X148643700Y-103507200D01*
X148643700Y-101280200D01*
X150863500Y-101280200D01*
X150863500Y-103507200D01*
G37*
%TO.C,U5*%
G36*
X150863500Y-112219800D02*
G01*
X148643700Y-112219800D01*
X148643700Y-109992800D01*
X150863500Y-109992800D01*
X150863500Y-112219800D01*
G37*
%TD*%
D11*
%TO.C,TP6*%
X129500000Y-113750000D03*
%TD*%
%TO.C,TP5*%
X126250000Y-113750000D03*
%TD*%
D12*
%TO.C,U2*%
X150050000Y-118187500D03*
X151000000Y-118187500D03*
X151950000Y-118187500D03*
X151950000Y-115787500D03*
X150050000Y-115787500D03*
%TD*%
D13*
%TO.C,TP4*%
X158750000Y-107500000D03*
%TD*%
%TO.C,TP3*%
X157000000Y-107500000D03*
%TD*%
%TO.C,TP2*%
X160250000Y-106750000D03*
%TD*%
%TO.C,TP1*%
X155250000Y-107500000D03*
%TD*%
D14*
%TO.C,U4*%
X162250000Y-107262500D03*
X162750000Y-107262500D03*
X163250000Y-107262500D03*
X163750000Y-107262500D03*
D15*
X163762500Y-106750000D03*
X163762500Y-106250000D03*
D14*
X163750000Y-105737500D03*
X163250000Y-105737500D03*
X162750000Y-105737500D03*
X162250000Y-105737500D03*
D15*
X162237500Y-106250000D03*
X162237500Y-106750000D03*
%TD*%
D16*
%TO.C,D21*%
X142500000Y-112274180D03*
X140925000Y-112274180D03*
%TD*%
D17*
%TO.C,C4*%
X154000000Y-101725000D03*
X154000000Y-103275000D03*
%TD*%
D16*
%TO.C,D5*%
X142500000Y-74854836D03*
X140925000Y-74854836D03*
%TD*%
D18*
%TO.C,R2*%
X138325000Y-120105000D03*
X136675000Y-120105000D03*
%TD*%
D16*
%TO.C,D30*%
X142500000Y-133322561D03*
X140925000Y-133322561D03*
%TD*%
D19*
%TO.C,R1*%
X153175000Y-114000000D03*
X154825000Y-114000000D03*
%TD*%
D20*
%TO.C,U3*%
X151000000Y-100418700D03*
X150500001Y-100418700D03*
X150000000Y-100418700D03*
X149500000Y-100418700D03*
X148999999Y-100418700D03*
X148500000Y-100418700D03*
D21*
X147775000Y-101143385D03*
X147775000Y-101643511D03*
X147775000Y-102143637D03*
X147775000Y-102643763D03*
X147775000Y-103143889D03*
X147775000Y-103644015D03*
D20*
X148500000Y-104368700D03*
X148999999Y-104368700D03*
X149500000Y-104368700D03*
X150000000Y-104368700D03*
X150500001Y-104368700D03*
X151000000Y-104368700D03*
D21*
X151725000Y-103644015D03*
X151725000Y-103143889D03*
X151725000Y-102643763D03*
X151725000Y-102143637D03*
X151725000Y-101643511D03*
X151725000Y-101143385D03*
%TD*%
D16*
%TO.C,D16*%
X142500000Y-100580635D03*
X140925000Y-100580635D03*
%TD*%
D22*
%TO.C,J1*%
X161405000Y-92920000D03*
D23*
X158865000Y-92920000D03*
D22*
X156325000Y-92920000D03*
X161405000Y-96095000D03*
X156325000Y-96095000D03*
D23*
X159881000Y-98000000D03*
X157849000Y-98000000D03*
D24*
X158230000Y-94190000D03*
X159500000Y-94190000D03*
X158230000Y-95460000D03*
X159500000Y-95460000D03*
X158230000Y-96730000D03*
X159500000Y-96730000D03*
%TD*%
D16*
%TO.C,D6*%
X142500000Y-77193545D03*
X140925000Y-77193545D03*
%TD*%
%TO.C,D32*%
X142500000Y-138000000D03*
X140925000Y-138000000D03*
%TD*%
%TO.C,D19*%
X142500000Y-107596762D03*
X140925000Y-107596762D03*
%TD*%
%TO.C,D28*%
X142500000Y-128645143D03*
X140925000Y-128645143D03*
%TD*%
%TO.C,D8*%
X142500000Y-81870963D03*
X140925000Y-81870963D03*
%TD*%
%TO.C,D12*%
X142500000Y-91225799D03*
X140925000Y-91225799D03*
%TD*%
D19*
%TO.C,R5*%
X136675000Y-135600000D03*
X138325000Y-135600000D03*
%TD*%
D16*
%TO.C,D3*%
X142500000Y-70177418D03*
X140925000Y-70177418D03*
%TD*%
%TO.C,D17*%
X142500000Y-102919344D03*
X140925000Y-102919344D03*
%TD*%
D17*
%TO.C,C3*%
X133500000Y-118225000D03*
X133500000Y-119775000D03*
%TD*%
D16*
%TO.C,D22*%
X142500000Y-114612889D03*
X140925000Y-114612889D03*
%TD*%
%TO.C,D31*%
X142500000Y-135661270D03*
X140925000Y-135661270D03*
%TD*%
%TO.C,D9*%
X142500000Y-84209672D03*
X140925000Y-84209672D03*
%TD*%
D25*
%TO.C,BT2*%
X157500000Y-117000000D03*
X157500000Y-139000000D03*
D26*
X157500000Y-128000000D03*
%TD*%
D27*
%TO.C,U1*%
X156502500Y-101500000D03*
D28*
X156562500Y-102000000D03*
X156562500Y-102500000D03*
X156562500Y-103000000D03*
X156562500Y-103500000D03*
X156562500Y-104000000D03*
D29*
X156502500Y-104500000D03*
D30*
X157000000Y-104997500D03*
D31*
X157500000Y-104937500D03*
X158000000Y-104937500D03*
X158500000Y-104937500D03*
X159000000Y-104937500D03*
X159500000Y-104937500D03*
D32*
X160000000Y-104997500D03*
D33*
X160497500Y-104500000D03*
D28*
X160437500Y-104000000D03*
X160437500Y-103500000D03*
X160437500Y-103000000D03*
X160437500Y-102500000D03*
X160437500Y-102000000D03*
D34*
X160497500Y-101500000D03*
D35*
X160000000Y-101002500D03*
D31*
X159500000Y-101062500D03*
X159000000Y-101062500D03*
X158500000Y-101062500D03*
X158000000Y-101062500D03*
X157500000Y-101062500D03*
D36*
X157000000Y-101002500D03*
%TD*%
D37*
%TO.C,C2*%
X153500000Y-118025000D03*
X153500000Y-116475000D03*
%TD*%
D16*
%TO.C,D26*%
X142500000Y-123967725D03*
X140925000Y-123967725D03*
%TD*%
D37*
%TO.C,C1*%
X148500000Y-118025000D03*
X148500000Y-116475000D03*
%TD*%
D38*
%TO.C,R3*%
X137500000Y-127175000D03*
X137500000Y-128825000D03*
%TD*%
D16*
%TO.C,D25*%
X142500000Y-121629016D03*
X140925000Y-121629016D03*
%TD*%
D39*
%TO.C,SW1*%
X163000000Y-113375000D03*
X157000000Y-113375000D03*
X163000000Y-109625000D03*
X157000000Y-109625000D03*
%TD*%
D40*
%TO.C,Q1*%
X136550000Y-124937500D03*
X138450000Y-124937500D03*
X137500000Y-123062500D03*
%TD*%
D16*
%TO.C,D4*%
X142500000Y-72516127D03*
X140925000Y-72516127D03*
%TD*%
D20*
%TO.C,U5*%
X151000000Y-109131300D03*
X150500001Y-109131300D03*
X150000000Y-109131300D03*
X149500000Y-109131300D03*
X148999999Y-109131300D03*
X148500000Y-109131300D03*
D21*
X147775000Y-109855985D03*
X147775000Y-110356111D03*
X147775000Y-110856237D03*
X147775000Y-111356363D03*
X147775000Y-111856489D03*
X147775000Y-112356615D03*
D20*
X148500000Y-113081300D03*
X148999999Y-113081300D03*
X149500000Y-113081300D03*
X150000000Y-113081300D03*
X150500001Y-113081300D03*
X151000000Y-113081300D03*
D21*
X151725000Y-112356615D03*
X151725000Y-111856489D03*
X151725000Y-111356363D03*
X151725000Y-110856237D03*
X151725000Y-110356111D03*
X151725000Y-109855985D03*
%TD*%
D16*
%TO.C,D11*%
X142500000Y-88887090D03*
X140925000Y-88887090D03*
%TD*%
%TO.C,D1*%
X142500000Y-65500000D03*
X140925000Y-65500000D03*
%TD*%
D41*
%TO.C,C6*%
X138275000Y-118000000D03*
X136725000Y-118000000D03*
%TD*%
D16*
%TO.C,D18*%
X142500000Y-105258053D03*
X140925000Y-105258053D03*
%TD*%
D41*
%TO.C,C9*%
X153775000Y-98000000D03*
X152225000Y-98000000D03*
%TD*%
D16*
%TO.C,D7*%
X142500000Y-79532254D03*
X140925000Y-79532254D03*
%TD*%
D37*
%TO.C,C8*%
X154000000Y-111775000D03*
X154000000Y-110225000D03*
%TD*%
D16*
%TO.C,D27*%
X142500000Y-126306434D03*
X140925000Y-126306434D03*
%TD*%
%TO.C,D10*%
X142500000Y-86548381D03*
X140925000Y-86548381D03*
%TD*%
%TO.C,D13*%
X142500000Y-93564508D03*
X140925000Y-93564508D03*
%TD*%
%TO.C,D20*%
X142500000Y-109935471D03*
X140925000Y-109935471D03*
%TD*%
D19*
%TO.C,R4*%
X153175000Y-105500000D03*
X154825000Y-105500000D03*
%TD*%
D16*
%TO.C,D23*%
X142500000Y-116951598D03*
X140925000Y-116951598D03*
%TD*%
D40*
%TO.C,Q2*%
X136550000Y-132937500D03*
X138450000Y-132937500D03*
X137500000Y-131062500D03*
%TD*%
D16*
%TO.C,D14*%
X142500000Y-95903217D03*
X140925000Y-95903217D03*
%TD*%
%TO.C,D15*%
X142500000Y-98241926D03*
X140925000Y-98241926D03*
%TD*%
D17*
%TO.C,C5*%
X165500000Y-105725000D03*
X165500000Y-107275000D03*
%TD*%
D16*
%TO.C,D2*%
X142500000Y-67838709D03*
X140925000Y-67838709D03*
%TD*%
D42*
%TO.C,BT1*%
X125500000Y-139000000D03*
X125500000Y-117000000D03*
D26*
X125500000Y-128000000D03*
%TD*%
D43*
%TO.C,J2*%
X165500000Y-92840000D03*
D44*
X165500000Y-95380000D03*
X165500000Y-97920000D03*
X165500000Y-100460000D03*
X165500000Y-103000000D03*
%TD*%
D16*
%TO.C,D29*%
X142500000Y-130983852D03*
X140925000Y-130983852D03*
%TD*%
%TO.C,D24*%
X142500000Y-119290307D03*
X140925000Y-119290307D03*
%TD*%
M02*
