M48
; DRILL file {KiCad 8.0.1} date 2024-05-16T01:37:06-0400
; FORMAT={-:-/ absolute / inch / decimal}
; #@! TF.CreationDate,2024-05-16T01:37:06-04:00
; #@! TF.GenerationSoftware,Kicad,Pcbnew,8.0.1
; #@! TF.FileFunction,Plated,1,2,PTH
FMAT,2
INCH
; #@! TA.AperFunction,Plated,PTH,ViaDrill
T1C0.0118
; #@! TA.AperFunction,Plated,PTH,ComponentDrill
T2C0.0394
%
G90
G05
T1
X5.0886Y-4.5374
X5.2559Y-4.752
X5.2559Y-4.7795
X5.3701Y-5.1693
X5.4016Y-5.3858
X5.4134Y-4.7835
X5.4508Y-5.2953
X5.5482Y-4.7441
X5.6024Y-4.0039
X5.6732Y-4.1417
X5.8071Y-4.7441
X5.8386Y-4.8189
X5.8465Y-4.5593
X5.8661Y-4.8189
X5.874Y-4.0118
X5.874Y-4.0512
X5.874Y-4.3543
X5.874Y-4.3937
X5.9154Y-4.6063
X5.9173Y-4.0118
X5.9173Y-4.0512
X5.9173Y-4.3543
X5.9173Y-4.3937
X5.9232Y-4.1949
X5.9274Y-4.2261
X5.9449Y-4.6063
X5.9734Y-4.1434
X5.9744Y-4.6063
X5.9921Y-3.815
X5.9961Y-4.1774
X6.0039Y-4.4449
X6.0079Y-3.9213
X6.0079Y-4.2402
X6.0095Y-3.9561
X6.0166Y-4.0165
X6.0197Y-4.3622
X6.0236Y-3.9843
X6.063Y-4.2165
X6.0748Y-3.7756
X6.0945Y-4.0354
X6.1024Y-4.2913
X6.122Y-3.9921
X6.122Y-4.0797
X6.1339Y-4.4882
X6.1417Y-3.9646
X6.1427Y-4.1776
X6.164Y-3.9423
X6.1811Y-4.4252
X6.2146Y-3.9311
X6.2205Y-4.0197
X6.2394Y-4.1737
X6.2402Y-4.0906
X6.252Y-3.8386
X6.3075Y-3.733
X6.3543Y-4.1654
X6.3543Y-4.1983
X6.3661Y-4.3159
X6.3661Y-4.5
X6.3954Y-4.0771
X6.4055Y-4.1299
X6.4173Y-4.4252
X6.4252Y-3.9173
X6.4724Y-4.1875
X6.4754Y-4.6102
X6.4764Y-4.2234
X6.5Y-4.2992
X6.5Y-4.4173
T2
X6.5157Y-3.6551
X6.5157Y-3.7551
X6.5157Y-3.8551
X6.5157Y-3.9551
X6.5157Y-4.0551
M30
